<?xml version="1.0" encoding="utf-8" ?>
<svg baseProfile="full" height="430" version="1.1" viewBox="0 0 872 430" width="872" xmlns="http://www.w3.org/2000/svg"  xmlns:xlink="http://www.w3.org/1999/xlink">
  <defs>
    <filter id="shadow">
    <feOffset in="SourceAlpha" dx="2" dy="2" result="offsetblur"/>
    <feComponentTransfer result="shadow">
        <feFuncA type="linear" slope="0.5"/>
    </feComponentTransfer>
    <feMorphology in="SourceAlpha" operator="dilate" radius="1" result="border"/>
    <feMerge>
        <feMergeNode in="shadow"/>
        <feMergeNode in="border"/>
        <feMergeNode in="SourceGraphic"/>
    </feMerge>
    </filter>
      <filter id="whitenum">
      <feComponentTransfer>
        <feFuncR type="linear" slope="100"/>
        <feFuncG type="linear" slope="100"/>
        <feFuncB type="linear" slope="100"/>
      </feComponentTransfer>
    </filter>
        
</defs>
  <image height="100" width="70" x="0" xlink:href="/img/pieces/back-r.svg" y="50"/>
  <image height="100" width="70" x="74" xlink:href="/img/pieces/back-y.svg" y="50"/>
  <image height="100" width="70" x="148" xlink:href="/img/pieces/back-g.svg" y="50"/>
  <image height="100" width="70" x="222" xlink:href="/img/pieces/back-b.svg" y="50"/>
  <image height="100" width="70" x="296" xlink:href="/img/pieces/back-p.svg" y="50"/>
  <text dy="50" fill="#000001" x="442" y="0">Alice</text>
  <svg height="100" width="70" x="502" y="10">
    <defs/>
    <rect fill="gray" height="100" rx="5" ry="5" width="70" x="0" y="0"/>
    <svg height="20" width="14.0" x="0.0" y="80">
      <defs/>
      <text dominant-baseline="central" fill="white" style="filter: url(#shadow)" text-anchor="middle" x="50%" y="50%">1</text>
    </svg>
    <svg height="20" width="14.0" x="14.0" y="80">
      <defs/>
      <text dominant-baseline="central" fill="white" style="filter: url(#shadow)" text-anchor="middle" x="50%" y="50%">2</text>
    </svg>
    <svg height="20" width="14.0" x="28.0" y="80">
      <defs/>
      <text dominant-baseline="central" fill="white" style="filter: url(#shadow)" text-anchor="middle" x="50%" y="50%">3</text>
    </svg>
    <svg height="20" width="14.0" x="42.0" y="80">
      <defs/>
      <text dominant-baseline="central" fill="white" style="filter: url(#shadow)" text-anchor="middle" x="50%" y="50%">4</text>
    </svg>
    <svg height="20" width="14.0" x="56.0" y="80">
      <defs/>
      <text dominant-baseline="central" fill="white" style="filter: url(#shadow)" text-anchor="middle" x="50%" y="50%">5</text>
    </svg>
    <svg height="100" viewBox="-35 -50 70 100" width="70" x="0" y="0">
      <defs/>
      <image height="12" style="filter: url(#shadow)" transform="translate(-0.0, -20.0)" width="12" x="-6" xlink:href="/img/pieces/pip-r.svg" y="-6"/>
      <image height="12" style="filter: url(#shadow)" transform="translate(-19.02113032590307, -6.180339887498949)" width="12" x="-6" xlink:href="/img/pieces/pip-y.svg" y="-6"/>
      <image height="12" style="filter: url(#shadow)" transform="translate(-11.755705045849465, 16.180339887498945)" width="12" x="-6" xlink:href="/img/pieces/pip-g.svg" y="-6"/>
      <image height="12" style="filter: url(#shadow)" transform="translate(11.75570504584946, 16.180339887498953)" width="12" x="-6" xlink:href="/img/pieces/pip-b.svg" y="-6"/>
      <image height="12" style="filter: url(#shadow)" transform="translate(19.021130325903073, -6.180339887498945)" width="12" x="-6" xlink:href="/img/pieces/pip-p.svg" y="-6"/>
    </svg>
  </svg>
  <svg height="100" width="70" x="576" y="10">
    <defs/>
    <rect fill="gray" height="100" rx="5" ry="5" width="70" x="0" y="0"/>
    <svg height="20" width="14.0" x="0.0" y="80">
      <defs/>
      <text dominant-baseline="central" fill="white" style="filter: url(#shadow)" text-anchor="middle" x="50%" y="50%">1</text>
    </svg>
    <svg height="20" width="14.0" x="14.0" y="80">
      <defs/>
      <text dominant-baseline="central" fill="white" style="filter: url(#shadow)" text-anchor="middle" x="50%" y="50%">2</text>
    </svg>
    <svg height="20" width="14.0" x="28.0" y="80">
      <defs/>
      <text dominant-baseline="central" fill="white" style="filter: url(#shadow)" text-anchor="middle" x="50%" y="50%">3</text>
    </svg>
    <svg height="20" width="14.0" x="42.0" y="80">
      <defs/>
      <text dominant-baseline="central" fill="white" style="filter: url(#shadow)" text-anchor="middle" x="50%" y="50%">4</text>
    </svg>
    <svg height="20" width="14.0" x="56.0" y="80">
      <defs/>
      <text dominant-baseline="central" fill="white" style="filter: url(#shadow)" text-anchor="middle" x="50%" y="50%">5</text>
    </svg>
    <svg height="100" viewBox="-35 -50 70 100" width="70" x="0" y="0">
      <defs/>
      <image height="12" style="filter: url(#shadow)" transform="translate(-0.0, -20.0)" width="12" x="-6" xlink:href="/img/pieces/pip-r.svg" y="-6"/>
      <image height="12" style="filter: url(#shadow)" transform="translate(-19.02113032590307, -6.180339887498949)" width="12" x="-6" xlink:href="/img/pieces/pip-y.svg" y="-6"/>
      <image height="12" style="filter: url(#shadow)" transform="translate(-11.755705045849465, 16.180339887498945)" width="12" x="-6" xlink:href="/img/pieces/pip-g.svg" y="-6"/>
      <image height="12" style="filter: url(#shadow)" transform="translate(11.75570504584946, 16.180339887498953)" width="12" x="-6" xlink:href="/img/pieces/pip-b.svg" y="-6"/>
      <image height="12" style="filter: url(#shadow)" transform="translate(19.021130325903073, -6.180339887498945)" width="12" x="-6" xlink:href="/img/pieces/pip-p.svg" y="-6"/>
    </svg>
  </svg>
  <svg height="100" width="70" x="650" y="10">
    <defs/>
    <rect fill="gray" height="100" rx="5" ry="5" width="70" x="0" y="0"/>
    <svg height="20" width="14.0" x="0.0" y="80">
      <defs/>
      <text dominant-baseline="central" fill="white" style="filter: url(#shadow)" text-anchor="middle" x="50%" y="50%">1</text>
    </svg>
    <svg height="20" width="14.0" x="14.0" y="80">
      <defs/>
      <text dominant-baseline="central" fill="white" style="filter: url(#shadow)" text-anchor="middle" x="50%" y="50%">2</text>
    </svg>
    <svg height="20" width="14.0" x="28.0" y="80">
      <defs/>
      <text dominant-baseline="central" fill="white" style="filter: url(#shadow)" text-anchor="middle" x="50%" y="50%">3</text>
    </svg>
    <svg height="20" width="14.0" x="42.0" y="80">
      <defs/>
      <text dominant-baseline="central" fill="white" style="filter: url(#shadow)" text-anchor="middle" x="50%" y="50%">4</text>
    </svg>
    <svg height="20" width="14.0" x="56.0" y="80">
      <defs/>
      <text dominant-baseline="central" fill="white" style="filter: url(#shadow)" text-anchor="middle" x="50%" y="50%">5</text>
    </svg>
    <svg height="100" viewBox="-35 -50 70 100" width="70" x="0" y="0">
      <defs/>
      <image height="12" style="filter: url(#shadow)" transform="translate(-0.0, -20.0)" width="12" x="-6" xlink:href="/img/pieces/pip-r.svg" y="-6"/>
      <image height="12" style="filter: url(#shadow)" transform="translate(-19.02113032590307, -6.180339887498949)" width="12" x="-6" xlink:href="/img/pieces/pip-y.svg" y="-6"/>
      <image height="12" style="filter: url(#shadow)" transform="translate(-11.755705045849465, 16.180339887498945)" width="12" x="-6" xlink:href="/img/pieces/pip-g.svg" y="-6"/>
      <image height="12" style="filter: url(#shadow)" transform="translate(11.75570504584946, 16.180339887498953)" width="12" x="-6" xlink:href="/img/pieces/pip-b.svg" y="-6"/>
      <image height="12" style="filter: url(#shadow)" transform="translate(19.021130325903073, -6.180339887498945)" width="12" x="-6" xlink:href="/img/pieces/pip-p.svg" y="-6"/>
    </svg>
  </svg>
  <svg height="100" width="70" x="724" y="10">
    <defs/>
    <rect fill="gray" height="100" rx="5" ry="5" width="70" x="0" y="0"/>
    <svg height="20" width="14.0" x="0.0" y="80">
      <defs/>
      <text dominant-baseline="central" fill="white" style="filter: url(#shadow)" text-anchor="middle" x="50%" y="50%">1</text>
    </svg>
    <svg height="20" width="14.0" x="14.0" y="80">
      <defs/>
      <text dominant-baseline="central" fill="white" style="filter: url(#shadow)" text-anchor="middle" x="50%" y="50%">2</text>
    </svg>
    <svg height="20" width="14.0" x="28.0" y="80">
      <defs/>
      <text dominant-baseline="central" fill="white" style="filter: url(#shadow)" text-anchor="middle" x="50%" y="50%">3</text>
    </svg>
    <svg height="20" width="14.0" x="42.0" y="80">
      <defs/>
      <text dominant-baseline="central" fill="white" style="filter: url(#shadow)" text-anchor="middle" x="50%" y="50%">4</text>
    </svg>
    <svg height="20" width="14.0" x="56.0" y="80">
      <defs/>
      <text dominant-baseline="central" fill="white" style="filter: url(#shadow)" text-anchor="middle" x="50%" y="50%">5</text>
    </svg>
    <svg height="100" viewBox="-35 -50 70 100" width="70" x="0" y="0">
      <defs/>
      <image height="12" style="filter: url(#shadow)" transform="translate(-0.0, -20.0)" width="12" x="-6" xlink:href="/img/pieces/pip-r.svg" y="-6"/>
      <image height="12" style="filter: url(#shadow)" transform="translate(-19.02113032590307, -6.180339887498949)" width="12" x="-6" xlink:href="/img/pieces/pip-y.svg" y="-6"/>
      <image height="12" style="filter: url(#shadow)" transform="translate(-11.755705045849465, 16.180339887498945)" width="12" x="-6" xlink:href="/img/pieces/pip-g.svg" y="-6"/>
      <image height="12" style="filter: url(#shadow)" transform="translate(11.75570504584946, 16.180339887498953)" width="12" x="-6" xlink:href="/img/pieces/pip-b.svg" y="-6"/>
      <image height="12" style="filter: url(#shadow)" transform="translate(19.021130325903073, -6.180339887498945)" width="12" x="-6" xlink:href="/img/pieces/pip-p.svg" y="-6"/>
    </svg>
  </svg>
  <svg height="100" width="70" x="798" y="10">
    <defs/>
    <rect fill="gray" height="100" rx="5" ry="5" width="70" x="0" y="0"/>
    <svg height="20" width="14.0" x="0.0" y="80">
      <defs/>
      <text dominant-baseline="central" fill="white" style="filter: url(#shadow)" text-anchor="middle" x="50%" y="50%">1</text>
    </svg>
    <svg height="20" width="14.0" x="14.0" y="80">
      <defs/>
      <text dominant-baseline="central" fill="white" style="filter: url(#shadow)" text-anchor="middle" x="50%" y="50%">2</text>
    </svg>
    <svg height="20" width="14.0" x="28.0" y="80">
      <defs/>
      <text dominant-baseline="central" fill="white" style="filter: url(#shadow)" text-anchor="middle" x="50%" y="50%">3</text>
    </svg>
    <svg height="20" width="14.0" x="42.0" y="80">
      <defs/>
      <text dominant-baseline="central" fill="white" style="filter: url(#shadow)" text-anchor="middle" x="50%" y="50%">4</text>
    </svg>
    <svg height="20" width="14.0" x="56.0" y="80">
      <defs/>
      <text dominant-baseline="central" fill="white" style="filter: url(#shadow)" text-anchor="middle" x="50%" y="50%">5</text>
    </svg>
    <svg height="100" viewBox="-35 -50 70 100" width="70" x="0" y="0">
      <defs/>
      <image height="12" style="filter: url(#shadow)" transform="translate(-0.0, -20.0)" width="12" x="-6" xlink:href="/img/pieces/pip-r.svg" y="-6"/>
      <image height="12" style="filter: url(#shadow)" transform="translate(-19.02113032590307, -6.180339887498949)" width="12" x="-6" xlink:href="/img/pieces/pip-y.svg" y="-6"/>
      <image height="12" style="filter: url(#shadow)" transform="translate(-11.755705045849465, 16.180339887498945)" width="12" x="-6" xlink:href="/img/pieces/pip-g.svg" y="-6"/>
      <image height="12" style="filter: url(#shadow)" transform="translate(11.75570504584946, 16.180339887498953)" width="12" x="-6" xlink:href="/img/pieces/pip-b.svg" y="-6"/>
      <image height="12" style="filter: url(#shadow)" transform="translate(19.021130325903073, -6.180339887498945)" width="12" x="-6" xlink:href="/img/pieces/pip-p.svg" y="-6"/>
    </svg>
  </svg>
  <svg height="40" width="64" x="801" y="0">
    <defs/>
    <rect fill="maroon" height="40" stroke="white" width="64" x="0" y="0"/>
    <svg height="20" width="64" x="0" y="0">
      <defs/>
      <text dominant-baseline="central" fill="white" text-anchor="middle" x="50%" y="50%">Chop</text>
    </svg>
    <svg height="20" width="64" x="0" y="20">
      <defs/>
      <text dominant-baseline="central" fill="white" text-anchor="middle" x="50%" y="50%">Move</text>
    </svg>
  </svg>
  <text dy="50" fill="#000001" x="442" y="125">Bob</text>
  <text dy="70" fill="#000001" x="442" y="125">(clue</text>
  <text dy="90" fill="#000001" x="442" y="125">giver)</text>
  <rect fill="orange" height="102" rx="5" ry="5" width="72" x="501" y="124"/>
  <svg height="100" width="70" x="502" y="125">
    <defs/>
    <image height="100" width="70" x="0" xlink:href="/img/pieces/1.svg" y="0"/>
    <svg height="100" viewBox="-35 -50 70 100" width="70" x="0" y="0">
      <defs/>
      <image height="12" style="filter: url(#shadow)" transform="translate(-0.0, -20.0)" width="12" x="-6" xlink:href="/img/pieces/pip-r.svg" y="-6"/>
      <image height="12" style="filter: url(#shadow)" transform="translate(-19.02113032590307, -6.180339887498949)" width="12" x="-6" xlink:href="/img/pieces/pip-y.svg" y="-6"/>
      <image height="12" style="filter: url(#shadow)" transform="translate(-11.755705045849465, 16.180339887498945)" width="12" x="-6" xlink:href="/img/pieces/pip-g.svg" y="-6"/>
      <image height="12" style="filter: url(#shadow)" transform="translate(11.75570504584946, 16.180339887498953)" width="12" x="-6" xlink:href="/img/pieces/pip-b.svg" y="-6"/>
      <image height="12" style="filter: url(#shadow)" transform="translate(19.021130325903073, -6.180339887498945)" width="12" x="-6" xlink:href="/img/pieces/pip-p.svg" y="-6"/>
    </svg>
  </svg>
  <image height="70" width="50" x="512" xlink:href="/img/pieces/arrow.svg" y="85"/>
  <circle cx="537" cy="110" fill="black" r="15" stroke="white" stroke-width="2"/>
  <image height="16" style="filter: url(#whitenum)" width="16" x="529" xlink:href="/img/pieces/pip-1.svg" y="102"/>
  <svg height="60" width="64" x="505" y="230">
    <defs/>
    <rect fill="maroon" height="60" stroke="white" width="64" x="0" y="0"/>
    <svg height="20" width="64" x="0" y="0">
      <defs/>
      <text dominant-baseline="central" fill="white" text-anchor="middle" x="50%" y="50%">Chop</text>
    </svg>
    <svg height="20" width="64" x="0" y="20">
      <defs/>
      <text dominant-baseline="central" fill="white" text-anchor="middle" x="50%" y="50%">Move</text>
    </svg>
    <svg height="20" width="64" x="0" y="40">
      <defs/>
      <text dominant-baseline="central" fill="white" text-anchor="middle" x="50%" y="50%">Alice</text>
    </svg>
  </svg>
  <rect fill="orange" height="102" rx="5" ry="5" width="72" x="575" y="124"/>
  <svg height="100" width="70" x="576" y="125">
    <defs/>
    <image height="100" width="70" x="0" xlink:href="/img/pieces/1.svg" y="0"/>
    <svg height="100" viewBox="-35 -50 70 100" width="70" x="0" y="0">
      <defs/>
      <image height="12" style="filter: url(#shadow)" transform="translate(-0.0, -20.0)" width="12" x="-6" xlink:href="/img/pieces/pip-r.svg" y="-6"/>
      <image height="12" style="filter: url(#shadow)" transform="translate(-19.02113032590307, -6.180339887498949)" width="12" x="-6" xlink:href="/img/pieces/pip-y.svg" y="-6"/>
      <image height="12" style="filter: url(#shadow)" transform="translate(-11.755705045849465, 16.180339887498945)" width="12" x="-6" xlink:href="/img/pieces/pip-g.svg" y="-6"/>
      <image height="12" style="filter: url(#shadow)" transform="translate(11.75570504584946, 16.180339887498953)" width="12" x="-6" xlink:href="/img/pieces/pip-b.svg" y="-6"/>
      <image height="12" style="filter: url(#shadow)" transform="translate(19.021130325903073, -6.180339887498945)" width="12" x="-6" xlink:href="/img/pieces/pip-p.svg" y="-6"/>
    </svg>
  </svg>
  <image height="70" width="50" x="586" xlink:href="/img/pieces/arrow.svg" y="85"/>
  <circle cx="611" cy="110" fill="black" r="15" stroke="white" stroke-width="2"/>
  <image height="16" style="filter: url(#whitenum)" width="16" x="603" xlink:href="/img/pieces/pip-1.svg" y="102"/>
  <svg height="60" width="64" x="579" y="230">
    <defs/>
    <rect fill="darkgreen" height="60" stroke="white" width="64" x="0" y="0"/>
    <svg height="20" width="64" x="0" y="0">
      <defs/>
      <text dominant-baseline="central" fill="white" text-anchor="middle" x="50%" y="50%">Chop</text>
    </svg>
    <svg height="20" width="64" x="0" y="20">
      <defs/>
      <text dominant-baseline="central" fill="white" text-anchor="middle" x="50%" y="50%">Move</text>
    </svg>
    <svg height="20" width="64" x="0" y="40">
      <defs/>
      <text dominant-baseline="central" fill="white" text-anchor="middle" x="50%" y="50%">Cathy</text>
    </svg>
  </svg>
  <rect fill="orange" height="102" rx="5" ry="5" width="72" x="649" y="124"/>
  <svg height="100" width="70" x="650" y="125">
    <defs/>
    <image height="100" width="70" x="0" xlink:href="/img/pieces/1.svg" y="0"/>
    <svg height="100" viewBox="-35 -50 70 100" width="70" x="0" y="0">
      <defs/>
      <image height="12" style="filter: url(#shadow)" transform="translate(-0.0, -20.0)" width="12" x="-6" xlink:href="/img/pieces/pip-r.svg" y="-6"/>
      <image height="12" style="filter: url(#shadow)" transform="translate(-19.02113032590307, -6.180339887498949)" width="12" x="-6" xlink:href="/img/pieces/pip-y.svg" y="-6"/>
      <image height="12" style="filter: url(#shadow)" transform="translate(-11.755705045849465, 16.180339887498945)" width="12" x="-6" xlink:href="/img/pieces/pip-g.svg" y="-6"/>
      <image height="12" style="filter: url(#shadow)" transform="translate(11.75570504584946, 16.180339887498953)" width="12" x="-6" xlink:href="/img/pieces/pip-b.svg" y="-6"/>
      <image height="12" style="filter: url(#shadow)" transform="translate(19.021130325903073, -6.180339887498945)" width="12" x="-6" xlink:href="/img/pieces/pip-p.svg" y="-6"/>
    </svg>
  </svg>
  <image height="70" width="50" x="660" xlink:href="/img/pieces/arrow.svg" y="85"/>
  <circle cx="685" cy="110" fill="black" r="15" stroke="white" stroke-width="2"/>
  <image height="16" style="filter: url(#whitenum)" width="16" x="677" xlink:href="/img/pieces/pip-1.svg" y="102"/>
  <svg height="100" width="70" x="724" y="135">
    <defs/>
    <rect fill="gray" height="100" rx="5" ry="5" width="70" x="0" y="0"/>
    <svg height="20" width="14.0" x="14.0" y="80">
      <defs/>
      <text dominant-baseline="central" fill="white" style="filter: url(#shadow)" text-anchor="middle" x="50%" y="50%">2</text>
    </svg>
    <svg height="20" width="14.0" x="28.0" y="80">
      <defs/>
      <text dominant-baseline="central" fill="white" style="filter: url(#shadow)" text-anchor="middle" x="50%" y="50%">3</text>
    </svg>
    <svg height="20" width="14.0" x="42.0" y="80">
      <defs/>
      <text dominant-baseline="central" fill="white" style="filter: url(#shadow)" text-anchor="middle" x="50%" y="50%">4</text>
    </svg>
    <svg height="20" width="14.0" x="56.0" y="80">
      <defs/>
      <text dominant-baseline="central" fill="white" style="filter: url(#shadow)" text-anchor="middle" x="50%" y="50%">5</text>
    </svg>
    <svg height="100" viewBox="-35 -50 70 100" width="70" x="0" y="0">
      <defs/>
      <image height="12" style="filter: url(#shadow)" transform="translate(-0.0, -20.0)" width="12" x="-6" xlink:href="/img/pieces/pip-r.svg" y="-6"/>
      <image height="12" style="filter: url(#shadow)" transform="translate(-19.02113032590307, -6.180339887498949)" width="12" x="-6" xlink:href="/img/pieces/pip-y.svg" y="-6"/>
      <image height="12" style="filter: url(#shadow)" transform="translate(-11.755705045849465, 16.180339887498945)" width="12" x="-6" xlink:href="/img/pieces/pip-g.svg" y="-6"/>
      <image height="12" style="filter: url(#shadow)" transform="translate(11.75570504584946, 16.180339887498953)" width="12" x="-6" xlink:href="/img/pieces/pip-b.svg" y="-6"/>
      <image height="12" style="filter: url(#shadow)" transform="translate(19.021130325903073, -6.180339887498945)" width="12" x="-6" xlink:href="/img/pieces/pip-p.svg" y="-6"/>
    </svg>
  </svg>
  <svg height="100" width="70" x="798" y="135">
    <defs/>
    <rect fill="gray" height="100" rx="5" ry="5" width="70" x="0" y="0"/>
    <svg height="20" width="14.0" x="14.0" y="80">
      <defs/>
      <text dominant-baseline="central" fill="white" style="filter: url(#shadow)" text-anchor="middle" x="50%" y="50%">2</text>
    </svg>
    <svg height="20" width="14.0" x="28.0" y="80">
      <defs/>
      <text dominant-baseline="central" fill="white" style="filter: url(#shadow)" text-anchor="middle" x="50%" y="50%">3</text>
    </svg>
    <svg height="20" width="14.0" x="42.0" y="80">
      <defs/>
      <text dominant-baseline="central" fill="white" style="filter: url(#shadow)" text-anchor="middle" x="50%" y="50%">4</text>
    </svg>
    <svg height="20" width="14.0" x="56.0" y="80">
      <defs/>
      <text dominant-baseline="central" fill="white" style="filter: url(#shadow)" text-anchor="middle" x="50%" y="50%">5</text>
    </svg>
    <svg height="100" viewBox="-35 -50 70 100" width="70" x="0" y="0">
      <defs/>
      <image height="12" style="filter: url(#shadow)" transform="translate(-0.0, -20.0)" width="12" x="-6" xlink:href="/img/pieces/pip-r.svg" y="-6"/>
      <image height="12" style="filter: url(#shadow)" transform="translate(-19.02113032590307, -6.180339887498949)" width="12" x="-6" xlink:href="/img/pieces/pip-y.svg" y="-6"/>
      <image height="12" style="filter: url(#shadow)" transform="translate(-11.755705045849465, 16.180339887498945)" width="12" x="-6" xlink:href="/img/pieces/pip-g.svg" y="-6"/>
      <image height="12" style="filter: url(#shadow)" transform="translate(11.75570504584946, 16.180339887498953)" width="12" x="-6" xlink:href="/img/pieces/pip-b.svg" y="-6"/>
      <image height="12" style="filter: url(#shadow)" transform="translate(19.021130325903073, -6.180339887498945)" width="12" x="-6" xlink:href="/img/pieces/pip-p.svg" y="-6"/>
    </svg>
  </svg>
  <text dy="50" fill="#000001" x="442" y="305">Cathy</text>
  <svg height="100" width="70" x="502" y="315">
    <defs/>
    <rect fill="gray" height="100" rx="5" ry="5" width="70" x="0" y="0"/>
    <svg height="20" width="14.0" x="0.0" y="80">
      <defs/>
      <text dominant-baseline="central" fill="white" style="filter: url(#shadow)" text-anchor="middle" x="50%" y="50%">1</text>
    </svg>
    <svg height="20" width="14.0" x="14.0" y="80">
      <defs/>
      <text dominant-baseline="central" fill="white" style="filter: url(#shadow)" text-anchor="middle" x="50%" y="50%">2</text>
    </svg>
    <svg height="20" width="14.0" x="28.0" y="80">
      <defs/>
      <text dominant-baseline="central" fill="white" style="filter: url(#shadow)" text-anchor="middle" x="50%" y="50%">3</text>
    </svg>
    <svg height="20" width="14.0" x="42.0" y="80">
      <defs/>
      <text dominant-baseline="central" fill="white" style="filter: url(#shadow)" text-anchor="middle" x="50%" y="50%">4</text>
    </svg>
    <svg height="20" width="14.0" x="56.0" y="80">
      <defs/>
      <text dominant-baseline="central" fill="white" style="filter: url(#shadow)" text-anchor="middle" x="50%" y="50%">5</text>
    </svg>
    <svg height="100" viewBox="-35 -50 70 100" width="70" x="0" y="0">
      <defs/>
      <image height="12" style="filter: url(#shadow)" transform="translate(-0.0, -20.0)" width="12" x="-6" xlink:href="/img/pieces/pip-r.svg" y="-6"/>
      <image height="12" style="filter: url(#shadow)" transform="translate(-19.02113032590307, -6.180339887498949)" width="12" x="-6" xlink:href="/img/pieces/pip-y.svg" y="-6"/>
      <image height="12" style="filter: url(#shadow)" transform="translate(-11.755705045849465, 16.180339887498945)" width="12" x="-6" xlink:href="/img/pieces/pip-g.svg" y="-6"/>
      <image height="12" style="filter: url(#shadow)" transform="translate(11.75570504584946, 16.180339887498953)" width="12" x="-6" xlink:href="/img/pieces/pip-b.svg" y="-6"/>
      <image height="12" style="filter: url(#shadow)" transform="translate(19.021130325903073, -6.180339887498945)" width="12" x="-6" xlink:href="/img/pieces/pip-p.svg" y="-6"/>
    </svg>
  </svg>
  <svg height="100" width="70" x="576" y="315">
    <defs/>
    <rect fill="gray" height="100" rx="5" ry="5" width="70" x="0" y="0"/>
    <svg height="20" width="14.0" x="0.0" y="80">
      <defs/>
      <text dominant-baseline="central" fill="white" style="filter: url(#shadow)" text-anchor="middle" x="50%" y="50%">1</text>
    </svg>
    <svg height="20" width="14.0" x="14.0" y="80">
      <defs/>
      <text dominant-baseline="central" fill="white" style="filter: url(#shadow)" text-anchor="middle" x="50%" y="50%">2</text>
    </svg>
    <svg height="20" width="14.0" x="28.0" y="80">
      <defs/>
      <text dominant-baseline="central" fill="white" style="filter: url(#shadow)" text-anchor="middle" x="50%" y="50%">3</text>
    </svg>
    <svg height="20" width="14.0" x="42.0" y="80">
      <defs/>
      <text dominant-baseline="central" fill="white" style="filter: url(#shadow)" text-anchor="middle" x="50%" y="50%">4</text>
    </svg>
    <svg height="20" width="14.0" x="56.0" y="80">
      <defs/>
      <text dominant-baseline="central" fill="white" style="filter: url(#shadow)" text-anchor="middle" x="50%" y="50%">5</text>
    </svg>
    <svg height="100" viewBox="-35 -50 70 100" width="70" x="0" y="0">
      <defs/>
      <image height="12" style="filter: url(#shadow)" transform="translate(-0.0, -20.0)" width="12" x="-6" xlink:href="/img/pieces/pip-r.svg" y="-6"/>
      <image height="12" style="filter: url(#shadow)" transform="translate(-19.02113032590307, -6.180339887498949)" width="12" x="-6" xlink:href="/img/pieces/pip-y.svg" y="-6"/>
      <image height="12" style="filter: url(#shadow)" transform="translate(-11.755705045849465, 16.180339887498945)" width="12" x="-6" xlink:href="/img/pieces/pip-g.svg" y="-6"/>
      <image height="12" style="filter: url(#shadow)" transform="translate(11.75570504584946, 16.180339887498953)" width="12" x="-6" xlink:href="/img/pieces/pip-b.svg" y="-6"/>
      <image height="12" style="filter: url(#shadow)" transform="translate(19.021130325903073, -6.180339887498945)" width="12" x="-6" xlink:href="/img/pieces/pip-p.svg" y="-6"/>
    </svg>
  </svg>
  <svg height="100" width="70" x="650" y="315">
    <defs/>
    <rect fill="gray" height="100" rx="5" ry="5" width="70" x="0" y="0"/>
    <svg height="20" width="14.0" x="0.0" y="80">
      <defs/>
      <text dominant-baseline="central" fill="white" style="filter: url(#shadow)" text-anchor="middle" x="50%" y="50%">1</text>
    </svg>
    <svg height="20" width="14.0" x="14.0" y="80">
      <defs/>
      <text dominant-baseline="central" fill="white" style="filter: url(#shadow)" text-anchor="middle" x="50%" y="50%">2</text>
    </svg>
    <svg height="20" width="14.0" x="28.0" y="80">
      <defs/>
      <text dominant-baseline="central" fill="white" style="filter: url(#shadow)" text-anchor="middle" x="50%" y="50%">3</text>
    </svg>
    <svg height="20" width="14.0" x="42.0" y="80">
      <defs/>
      <text dominant-baseline="central" fill="white" style="filter: url(#shadow)" text-anchor="middle" x="50%" y="50%">4</text>
    </svg>
    <svg height="20" width="14.0" x="56.0" y="80">
      <defs/>
      <text dominant-baseline="central" fill="white" style="filter: url(#shadow)" text-anchor="middle" x="50%" y="50%">5</text>
    </svg>
    <svg height="100" viewBox="-35 -50 70 100" width="70" x="0" y="0">
      <defs/>
      <image height="12" style="filter: url(#shadow)" transform="translate(-0.0, -20.0)" width="12" x="-6" xlink:href="/img/pieces/pip-r.svg" y="-6"/>
      <image height="12" style="filter: url(#shadow)" transform="translate(-19.02113032590307, -6.180339887498949)" width="12" x="-6" xlink:href="/img/pieces/pip-y.svg" y="-6"/>
      <image height="12" style="filter: url(#shadow)" transform="translate(-11.755705045849465, 16.180339887498945)" width="12" x="-6" xlink:href="/img/pieces/pip-g.svg" y="-6"/>
      <image height="12" style="filter: url(#shadow)" transform="translate(11.75570504584946, 16.180339887498953)" width="12" x="-6" xlink:href="/img/pieces/pip-b.svg" y="-6"/>
      <image height="12" style="filter: url(#shadow)" transform="translate(19.021130325903073, -6.180339887498945)" width="12" x="-6" xlink:href="/img/pieces/pip-p.svg" y="-6"/>
    </svg>
  </svg>
  <svg height="100" width="70" x="724" y="315">
    <defs/>
    <rect fill="gray" height="100" rx="5" ry="5" width="70" x="0" y="0"/>
    <svg height="20" width="14.0" x="0.0" y="80">
      <defs/>
      <text dominant-baseline="central" fill="white" style="filter: url(#shadow)" text-anchor="middle" x="50%" y="50%">1</text>
    </svg>
    <svg height="20" width="14.0" x="14.0" y="80">
      <defs/>
      <text dominant-baseline="central" fill="white" style="filter: url(#shadow)" text-anchor="middle" x="50%" y="50%">2</text>
    </svg>
    <svg height="20" width="14.0" x="28.0" y="80">
      <defs/>
      <text dominant-baseline="central" fill="white" style="filter: url(#shadow)" text-anchor="middle" x="50%" y="50%">3</text>
    </svg>
    <svg height="20" width="14.0" x="42.0" y="80">
      <defs/>
      <text dominant-baseline="central" fill="white" style="filter: url(#shadow)" text-anchor="middle" x="50%" y="50%">4</text>
    </svg>
    <svg height="20" width="14.0" x="56.0" y="80">
      <defs/>
      <text dominant-baseline="central" fill="white" style="filter: url(#shadow)" text-anchor="middle" x="50%" y="50%">5</text>
    </svg>
    <svg height="100" viewBox="-35 -50 70 100" width="70" x="0" y="0">
      <defs/>
      <image height="12" style="filter: url(#shadow)" transform="translate(-0.0, -20.0)" width="12" x="-6" xlink:href="/img/pieces/pip-r.svg" y="-6"/>
      <image height="12" style="filter: url(#shadow)" transform="translate(-19.02113032590307, -6.180339887498949)" width="12" x="-6" xlink:href="/img/pieces/pip-y.svg" y="-6"/>
      <image height="12" style="filter: url(#shadow)" transform="translate(-11.755705045849465, 16.180339887498945)" width="12" x="-6" xlink:href="/img/pieces/pip-g.svg" y="-6"/>
      <image height="12" style="filter: url(#shadow)" transform="translate(11.75570504584946, 16.180339887498953)" width="12" x="-6" xlink:href="/img/pieces/pip-b.svg" y="-6"/>
      <image height="12" style="filter: url(#shadow)" transform="translate(19.021130325903073, -6.180339887498945)" width="12" x="-6" xlink:href="/img/pieces/pip-p.svg" y="-6"/>
    </svg>
  </svg>
  <svg height="100" width="70" x="798" y="315">
    <defs/>
    <rect fill="gray" height="100" rx="5" ry="5" width="70" x="0" y="0"/>
    <svg height="20" width="14.0" x="0.0" y="80">
      <defs/>
      <text dominant-baseline="central" fill="white" style="filter: url(#shadow)" text-anchor="middle" x="50%" y="50%">1</text>
    </svg>
    <svg height="20" width="14.0" x="14.0" y="80">
      <defs/>
      <text dominant-baseline="central" fill="white" style="filter: url(#shadow)" text-anchor="middle" x="50%" y="50%">2</text>
    </svg>
    <svg height="20" width="14.0" x="28.0" y="80">
      <defs/>
      <text dominant-baseline="central" fill="white" style="filter: url(#shadow)" text-anchor="middle" x="50%" y="50%">3</text>
    </svg>
    <svg height="20" width="14.0" x="42.0" y="80">
      <defs/>
      <text dominant-baseline="central" fill="white" style="filter: url(#shadow)" text-anchor="middle" x="50%" y="50%">4</text>
    </svg>
    <svg height="20" width="14.0" x="56.0" y="80">
      <defs/>
      <text dominant-baseline="central" fill="white" style="filter: url(#shadow)" text-anchor="middle" x="50%" y="50%">5</text>
    </svg>
    <svg height="100" viewBox="-35 -50 70 100" width="70" x="0" y="0">
      <defs/>
      <image height="12" style="filter: url(#shadow)" transform="translate(-0.0, -20.0)" width="12" x="-6" xlink:href="/img/pieces/pip-r.svg" y="-6"/>
      <image height="12" style="filter: url(#shadow)" transform="translate(-19.02113032590307, -6.180339887498949)" width="12" x="-6" xlink:href="/img/pieces/pip-y.svg" y="-6"/>
      <image height="12" style="filter: url(#shadow)" transform="translate(-11.755705045849465, 16.180339887498945)" width="12" x="-6" xlink:href="/img/pieces/pip-g.svg" y="-6"/>
      <image height="12" style="filter: url(#shadow)" transform="translate(11.75570504584946, 16.180339887498953)" width="12" x="-6" xlink:href="/img/pieces/pip-b.svg" y="-6"/>
      <image height="12" style="filter: url(#shadow)" transform="translate(19.021130325903073, -6.180339887498945)" width="12" x="-6" xlink:href="/img/pieces/pip-p.svg" y="-6"/>
    </svg>
  </svg>
  <svg height="40" width="64" x="801" y="305">
    <defs/>
    <rect fill="darkgreen" height="40" stroke="white" width="64" x="0" y="0"/>
    <svg height="20" width="64" x="0" y="0">
      <defs/>
      <text dominant-baseline="central" fill="white" text-anchor="middle" x="50%" y="50%">Chop</text>
    </svg>
    <svg height="20" width="64" x="0" y="20">
      <defs/>
      <text dominant-baseline="central" fill="white" text-anchor="middle" x="50%" y="50%">Move</text>
    </svg>
  </svg>
</svg>

