<?xml version="1.0" encoding="utf-8" ?>
<svg baseProfile="full" height="450" version="1.1" viewBox="0 0 934 450" width="934" xmlns="http://www.w3.org/2000/svg"  xmlns:xlink="http://www.w3.org/1999/xlink">
  <defs>
        <filter id="shadow">
        <feOffset in="SourceAlpha" dx="2" dy="2" result="offsetblur"/>
        <feComponentTransfer result="shadow">
            <feFuncA type="linear" slope="0.5"/>
        </feComponentTransfer>
        <feMorphology in="SourceAlpha" operator="dilate" radius="1" result="border"/>
        <feMerge>
            <feMergeNode in="shadow"/>
            <feMergeNode in="border"/>
            <feMergeNode in="SourceGraphic"/>
        </feMerge>
        </filter>
        <filter id="whitenum">
        <feComponentTransfer>
            <feFuncR type="linear" slope="100"/>
            <feFuncG type="linear" slope="100"/>
            <feFuncB type="linear" slope="100"/>
        </feComponentTransfer>
        </filter>
            
    </defs>
  <image height="100" width="70" x="0" xlink:href="/img/pieces/cards/r0.svg" y="0"/>
  <image height="100" width="70" x="78" xlink:href="/img/pieces/cards/y0.svg" y="0"/>
  <image height="100" width="70" x="156" xlink:href="/img/pieces/cards/g0.svg" y="0"/>
  <image height="100" width="70" x="234" xlink:href="/img/pieces/cards/b0.svg" y="0"/>
  <image height="100" width="70" x="312" xlink:href="/img/pieces/cards/p0.svg" y="0"/>
  <g style="font-size: 1.4em;">
    <text dy="57.0" fill="#f5f6f7" x="464" y="0">Alice</text>
  </g>
  <svg height="100" width="70" x="544" y="0">
    <defs/>
    <rect fill="gray" height="100" rx="5" ry="5" width="70" x="0" y="0"/>
    <svg height="100" viewBox="-35 -50 70 100" width="70" x="0" y="0">
      <defs/>
    </svg>
  </svg>
  <svg height="100" width="70" x="622" y="0">
    <defs/>
    <rect fill="gray" height="100" rx="5" ry="5" width="70" x="0" y="0"/>
    <svg height="100" viewBox="-35 -50 70 100" width="70" x="0" y="0">
      <defs/>
    </svg>
  </svg>
  <svg height="100" width="70" x="700" y="0">
    <defs/>
    <rect fill="gray" height="100" rx="5" ry="5" width="70" x="0" y="0"/>
    <svg height="100" viewBox="-35 -50 70 100" width="70" x="0" y="0">
      <defs/>
    </svg>
  </svg>
  <svg height="100" width="70" x="778" y="0">
    <defs/>
    <rect fill="gray" height="100" rx="5" ry="5" width="70" x="0" y="0"/>
    <svg height="100" viewBox="-35 -50 70 100" width="70" x="0" y="0">
      <defs/>
    </svg>
  </svg>
  <svg height="40" width="64" x="781" y="0">
    <defs/>
    <rect fill="purple" height="40" stroke="white" width="64" x="0" y="0"/>
    <svg height="20" width="64" x="0" y="0">
      <defs/>
      <text dominant-baseline="central" fill="white" text-anchor="middle" x="50%" y="50%">Chop</text>
    </svg>
    <svg height="20" width="64" x="0" y="20">
      <defs/>
      <text dominant-baseline="central" fill="white" text-anchor="middle" x="50%" y="50%">Move</text>
    </svg>
  </svg>
  <svg height="100" width="70" x="856" y="0">
    <defs/>
    <rect fill="gray" height="100" rx="5" ry="5" width="70" x="0" y="0"/>
    <svg height="100" viewBox="-35 -50 70 100" width="70" x="0" y="0">
      <defs/>
    </svg>
  </svg>
  <svg height="40" width="64" x="859" y="0">
    <defs/>
    <rect fill="maroon" height="40" stroke="white" width="64" x="0" y="0"/>
    <svg height="20" width="64" x="0" y="0">
      <defs/>
      <text dominant-baseline="central" fill="white" text-anchor="middle" x="50%" y="50%">Chop</text>
    </svg>
    <svg height="20" width="64" x="0" y="20">
      <defs/>
      <text dominant-baseline="central" fill="white" text-anchor="middle" x="50%" y="50%">Move</text>
    </svg>
  </svg>
  <g style="font-size: 1.4em;">
    <text dy="57.0" fill="#f5f6f7" x="464" y="125">Bob</text>
  </g>
  <rect fill="orange" height="104" rx="5" ry="5" width="74" x="542.0" y="123.0"/>
  <svg height="100" width="70" x="544" y="125">
    <defs/>
    <image height="100" width="70" x="0" xlink:href="/img/pieces/cards/1.svg" y="0"/>
    <svg height="100" viewBox="-35 -50 70 100" width="70" x="0" y="0">
      <defs/>
      <image height="12" style="filter: url(#shadow)" transform="translate(-0.0, -20.0)" width="12" x="-6" xlink:href="/img/pieces/pips/r.svg" y="-6"/>
      <image height="12" style="filter: url(#shadow)" transform="translate(-19.02113032590307, -6.180339887498949)" width="12" x="-6" xlink:href="/img/pieces/pips/y.svg" y="-6"/>
      <image height="12" style="filter: url(#shadow)" transform="translate(-11.755705045849465, 16.180339887498945)" width="12" x="-6" xlink:href="/img/pieces/pips/g.svg" y="-6"/>
      <image height="12" style="filter: url(#shadow)" transform="translate(11.75570504584946, 16.180339887498953)" width="12" x="-6" xlink:href="/img/pieces/pips/b.svg" y="-6"/>
      <image height="12" style="filter: url(#shadow)" transform="translate(19.021130325903073, -6.180339887498945)" width="12" x="-6" xlink:href="/img/pieces/pips/p.svg" y="-6"/>
    </svg>
  </svg>
  <image height="70" width="50" x="554" xlink:href="/img/pieces/arrow.svg" y="85"/>
  <circle cx="579" cy="110" fill="black" r="15" stroke="white" stroke-width="2"/>
  <image height="16" style="filter: url(#whitenum)" width="16" x="571" xlink:href="/img/pieces/pips/1.svg" y="102"/>
  <svg height="80" width="64" x="547" y="230">
    <defs/>
    <rect fill="purple" height="80" stroke="white" width="64" x="0" y="0"/>
    <svg height="20" width="64" x="0" y="0">
      <defs/>
      <text dominant-baseline="central" fill="white" text-anchor="middle" x="50%" y="50%">Double</text>
    </svg>
    <svg height="20" width="64" x="0" y="20">
      <defs/>
      <text dominant-baseline="central" fill="white" text-anchor="middle" x="50%" y="50%">Chop</text>
    </svg>
    <svg height="20" width="64" x="0" y="40">
      <defs/>
      <text dominant-baseline="central" fill="white" text-anchor="middle" x="50%" y="50%">Move</text>
    </svg>
    <svg height="20" width="64" x="0" y="60">
      <defs/>
      <text dominant-baseline="central" fill="white" text-anchor="middle" x="50%" y="50%">Alice</text>
    </svg>
  </svg>
  <rect fill="orange" height="104" rx="5" ry="5" width="74" x="620.0" y="123.0"/>
  <svg height="100" width="70" x="622" y="125">
    <defs/>
    <image height="100" width="70" x="0" xlink:href="/img/pieces/cards/1.svg" y="0"/>
    <svg height="100" viewBox="-35 -50 70 100" width="70" x="0" y="0">
      <defs/>
      <image height="12" style="filter: url(#shadow)" transform="translate(-0.0, -20.0)" width="12" x="-6" xlink:href="/img/pieces/pips/r.svg" y="-6"/>
      <image height="12" style="filter: url(#shadow)" transform="translate(-19.02113032590307, -6.180339887498949)" width="12" x="-6" xlink:href="/img/pieces/pips/y.svg" y="-6"/>
      <image height="12" style="filter: url(#shadow)" transform="translate(-11.755705045849465, 16.180339887498945)" width="12" x="-6" xlink:href="/img/pieces/pips/g.svg" y="-6"/>
      <image height="12" style="filter: url(#shadow)" transform="translate(11.75570504584946, 16.180339887498953)" width="12" x="-6" xlink:href="/img/pieces/pips/b.svg" y="-6"/>
      <image height="12" style="filter: url(#shadow)" transform="translate(19.021130325903073, -6.180339887498945)" width="12" x="-6" xlink:href="/img/pieces/pips/p.svg" y="-6"/>
    </svg>
  </svg>
  <image height="70" width="50" x="632" xlink:href="/img/pieces/arrow.svg" y="85"/>
  <circle cx="657" cy="110" fill="black" r="15" stroke="white" stroke-width="2"/>
  <image height="16" style="filter: url(#whitenum)" width="16" x="649" xlink:href="/img/pieces/pips/1.svg" y="102"/>
  <svg height="80" width="64" x="625" y="230">
    <defs/>
    <rect fill="darkgreen" height="80" stroke="white" width="64" x="0" y="0"/>
    <svg height="20" width="64" x="0" y="0">
      <defs/>
      <text dominant-baseline="central" fill="white" text-anchor="middle" x="50%" y="50%">Double</text>
    </svg>
    <svg height="20" width="64" x="0" y="20">
      <defs/>
      <text dominant-baseline="central" fill="white" text-anchor="middle" x="50%" y="50%">Chop</text>
    </svg>
    <svg height="20" width="64" x="0" y="40">
      <defs/>
      <text dominant-baseline="central" fill="white" text-anchor="middle" x="50%" y="50%">Move</text>
    </svg>
    <svg height="20" width="64" x="0" y="60">
      <defs/>
      <text dominant-baseline="central" fill="white" text-anchor="middle" x="50%" y="50%">Cathy</text>
    </svg>
  </svg>
  <rect fill="orange" height="104" rx="5" ry="5" width="74" x="698.0" y="123.0"/>
  <svg height="100" width="70" x="700" y="125">
    <defs/>
    <image height="100" width="70" x="0" xlink:href="/img/pieces/cards/1.svg" y="0"/>
    <svg height="100" viewBox="-35 -50 70 100" width="70" x="0" y="0">
      <defs/>
      <image height="12" style="filter: url(#shadow)" transform="translate(-0.0, -20.0)" width="12" x="-6" xlink:href="/img/pieces/pips/r.svg" y="-6"/>
      <image height="12" style="filter: url(#shadow)" transform="translate(-19.02113032590307, -6.180339887498949)" width="12" x="-6" xlink:href="/img/pieces/pips/y.svg" y="-6"/>
      <image height="12" style="filter: url(#shadow)" transform="translate(-11.755705045849465, 16.180339887498945)" width="12" x="-6" xlink:href="/img/pieces/pips/g.svg" y="-6"/>
      <image height="12" style="filter: url(#shadow)" transform="translate(11.75570504584946, 16.180339887498953)" width="12" x="-6" xlink:href="/img/pieces/pips/b.svg" y="-6"/>
      <image height="12" style="filter: url(#shadow)" transform="translate(19.021130325903073, -6.180339887498945)" width="12" x="-6" xlink:href="/img/pieces/pips/p.svg" y="-6"/>
    </svg>
  </svg>
  <image height="70" width="50" x="710" xlink:href="/img/pieces/arrow.svg" y="85"/>
  <circle cx="735" cy="110" fill="black" r="15" stroke="white" stroke-width="2"/>
  <image height="16" style="filter: url(#whitenum)" width="16" x="727" xlink:href="/img/pieces/pips/1.svg" y="102"/>
  <svg height="60" width="64" x="703" y="230">
    <defs/>
    <rect fill="maroon" height="60" stroke="white" width="64" x="0" y="0"/>
    <svg height="20" width="64" x="0" y="0">
      <defs/>
      <text dominant-baseline="central" fill="white" text-anchor="middle" x="50%" y="50%">Chop</text>
    </svg>
    <svg height="20" width="64" x="0" y="20">
      <defs/>
      <text dominant-baseline="central" fill="white" text-anchor="middle" x="50%" y="50%">Move</text>
    </svg>
    <svg height="20" width="64" x="0" y="40">
      <defs/>
      <text dominant-baseline="central" fill="white" text-anchor="middle" x="50%" y="50%">Alice</text>
    </svg>
  </svg>
  <rect fill="orange" height="104" rx="5" ry="5" width="74" x="776.0" y="123.0"/>
  <svg height="100" width="70" x="778" y="125">
    <defs/>
    <image height="100" width="70" x="0" xlink:href="/img/pieces/cards/1.svg" y="0"/>
    <svg height="100" viewBox="-35 -50 70 100" width="70" x="0" y="0">
      <defs/>
      <image height="12" style="filter: url(#shadow)" transform="translate(-0.0, -20.0)" width="12" x="-6" xlink:href="/img/pieces/pips/r.svg" y="-6"/>
      <image height="12" style="filter: url(#shadow)" transform="translate(-19.02113032590307, -6.180339887498949)" width="12" x="-6" xlink:href="/img/pieces/pips/y.svg" y="-6"/>
      <image height="12" style="filter: url(#shadow)" transform="translate(-11.755705045849465, 16.180339887498945)" width="12" x="-6" xlink:href="/img/pieces/pips/g.svg" y="-6"/>
      <image height="12" style="filter: url(#shadow)" transform="translate(11.75570504584946, 16.180339887498953)" width="12" x="-6" xlink:href="/img/pieces/pips/b.svg" y="-6"/>
      <image height="12" style="filter: url(#shadow)" transform="translate(19.021130325903073, -6.180339887498945)" width="12" x="-6" xlink:href="/img/pieces/pips/p.svg" y="-6"/>
    </svg>
  </svg>
  <image height="70" width="50" x="788" xlink:href="/img/pieces/arrow.svg" y="85"/>
  <circle cx="813" cy="110" fill="black" r="15" stroke="white" stroke-width="2"/>
  <image height="16" style="filter: url(#whitenum)" width="16" x="805" xlink:href="/img/pieces/pips/1.svg" y="102"/>
  <svg height="60" width="64" x="781" y="230">
    <defs/>
    <rect fill="darkblue" height="60" stroke="white" width="64" x="0" y="0"/>
    <svg height="20" width="64" x="0" y="0">
      <defs/>
      <text dominant-baseline="central" fill="white" text-anchor="middle" x="50%" y="50%">Chop</text>
    </svg>
    <svg height="20" width="64" x="0" y="20">
      <defs/>
      <text dominant-baseline="central" fill="white" text-anchor="middle" x="50%" y="50%">Move</text>
    </svg>
    <svg height="20" width="64" x="0" y="40">
      <defs/>
      <text dominant-baseline="central" fill="white" text-anchor="middle" x="50%" y="50%">Cathy</text>
    </svg>
  </svg>
  <rect fill="orange" height="104" rx="5" ry="5" width="74" x="854.0" y="123.0"/>
  <svg height="100" width="70" x="856" y="125">
    <defs/>
    <image height="100" width="70" x="0" xlink:href="/img/pieces/cards/1.svg" y="0"/>
    <svg height="100" viewBox="-35 -50 70 100" width="70" x="0" y="0">
      <defs/>
      <image height="12" style="filter: url(#shadow)" transform="translate(-0.0, -20.0)" width="12" x="-6" xlink:href="/img/pieces/pips/r.svg" y="-6"/>
      <image height="12" style="filter: url(#shadow)" transform="translate(-19.02113032590307, -6.180339887498949)" width="12" x="-6" xlink:href="/img/pieces/pips/y.svg" y="-6"/>
      <image height="12" style="filter: url(#shadow)" transform="translate(-11.755705045849465, 16.180339887498945)" width="12" x="-6" xlink:href="/img/pieces/pips/g.svg" y="-6"/>
      <image height="12" style="filter: url(#shadow)" transform="translate(11.75570504584946, 16.180339887498953)" width="12" x="-6" xlink:href="/img/pieces/pips/b.svg" y="-6"/>
      <image height="12" style="filter: url(#shadow)" transform="translate(19.021130325903073, -6.180339887498945)" width="12" x="-6" xlink:href="/img/pieces/pips/p.svg" y="-6"/>
    </svg>
  </svg>
  <image height="70" width="50" x="866" xlink:href="/img/pieces/arrow.svg" y="85"/>
  <circle cx="891" cy="110" fill="black" r="15" stroke="white" stroke-width="2"/>
  <image height="16" style="filter: url(#whitenum)" width="16" x="883" xlink:href="/img/pieces/pips/1.svg" y="102"/>
  <g style="font-size: 1.4em;">
    <text dy="57.0" fill="#f5f6f7" x="464" y="325">Cathy</text>
  </g>
  <svg height="100" width="70" x="544" y="325">
    <defs/>
    <rect fill="gray" height="100" rx="5" ry="5" width="70" x="0" y="0"/>
    <svg height="100" viewBox="-35 -50 70 100" width="70" x="0" y="0">
      <defs/>
    </svg>
  </svg>
  <svg height="100" width="70" x="622" y="325">
    <defs/>
    <rect fill="gray" height="100" rx="5" ry="5" width="70" x="0" y="0"/>
    <svg height="100" viewBox="-35 -50 70 100" width="70" x="0" y="0">
      <defs/>
    </svg>
  </svg>
  <svg height="100" width="70" x="700" y="325">
    <defs/>
    <rect fill="gray" height="100" rx="5" ry="5" width="70" x="0" y="0"/>
    <svg height="100" viewBox="-35 -50 70 100" width="70" x="0" y="0">
      <defs/>
    </svg>
  </svg>
  <svg height="100" width="70" x="778" y="325">
    <defs/>
    <rect fill="gray" height="100" rx="5" ry="5" width="70" x="0" y="0"/>
    <svg height="100" viewBox="-35 -50 70 100" width="70" x="0" y="0">
      <defs/>
    </svg>
  </svg>
  <svg height="40" width="64" x="781" y="325">
    <defs/>
    <rect fill="darkgreen" height="40" stroke="white" width="64" x="0" y="0"/>
    <svg height="20" width="64" x="0" y="0">
      <defs/>
      <text dominant-baseline="central" fill="white" text-anchor="middle" x="50%" y="50%">Chop</text>
    </svg>
    <svg height="20" width="64" x="0" y="20">
      <defs/>
      <text dominant-baseline="central" fill="white" text-anchor="middle" x="50%" y="50%">Move</text>
    </svg>
  </svg>
  <svg height="100" width="70" x="856" y="325">
    <defs/>
    <rect fill="gray" height="100" rx="5" ry="5" width="70" x="0" y="0"/>
    <svg height="100" viewBox="-35 -50 70 100" width="70" x="0" y="0">
      <defs/>
    </svg>
  </svg>
  <svg height="40" width="64" x="859" y="325">
    <defs/>
    <rect fill="darkblue" height="40" stroke="white" width="64" x="0" y="0"/>
    <svg height="20" width="64" x="0" y="0">
      <defs/>
      <text dominant-baseline="central" fill="white" text-anchor="middle" x="50%" y="50%">Chop</text>
    </svg>
    <svg height="20" width="64" x="0" y="20">
      <defs/>
      <text dominant-baseline="central" fill="white" text-anchor="middle" x="50%" y="50%">Move</text>
    </svg>
  </svg>
</svg>

