<?xml version="1.0" encoding="utf-8" ?>
<svg baseProfile="full" height="450" version="1.1" viewBox="0 0 874 450" width="874" xmlns="http://www.w3.org/2000/svg"  xmlns:xlink="http://www.w3.org/1999/xlink">
  <defs>
        <filter id="shadow">
        <feOffset in="SourceAlpha" dx="2" dy="2" result="offsetblur"/>
        <feComponentTransfer result="shadow">
            <feFuncA type="linear" slope="0.5"/>
        </feComponentTransfer>
        <feMorphology in="SourceAlpha" operator="dilate" radius="1" result="border"/>
        <feMerge>
            <feMergeNode in="shadow"/>
            <feMergeNode in="border"/>
            <feMergeNode in="SourceGraphic"/>
        </feMerge>
        </filter>
        <filter id="whitenum">
        <feComponentTransfer>
            <feFuncR type="linear" slope="100"/>
            <feFuncG type="linear" slope="100"/>
            <feFuncB type="linear" slope="100"/>
        </feComponentTransfer>
        </filter>
            
    </defs>
  <image height="100" width="70" x="0" xlink:href="/img/pieces/cards/r0.svg" y="0"/>
  <image height="100" width="70" x="74" xlink:href="/img/pieces/cards/y0.svg" y="0"/>
  <image height="100" width="70" x="148" xlink:href="/img/pieces/cards/g0.svg" y="0"/>
  <image height="100" width="70" x="222" xlink:href="/img/pieces/cards/b0.svg" y="0"/>
  <image height="100" width="70" x="296" xlink:href="/img/pieces/cards/p0.svg" y="0"/>
  <text dy="50" fill="#000001" x="444" y="0">Alice</text>
  <svg height="100" width="70" x="504" y="10">
    <defs/>
    <rect fill="gray" height="100" rx="5" ry="5" width="70" x="0" y="0"/>
    <svg height="20" width="14.0" x="0.0" y="80">
      <defs/>
      <text dominant-baseline="central" fill="white" style="filter: url(#shadow)" text-anchor="middle" x="50%" y="50%">1</text>
    </svg>
    <svg height="20" width="14.0" x="14.0" y="80">
      <defs/>
      <text dominant-baseline="central" fill="white" style="filter: url(#shadow)" text-anchor="middle" x="50%" y="50%">2</text>
    </svg>
    <svg height="20" width="14.0" x="28.0" y="80">
      <defs/>
      <text dominant-baseline="central" fill="white" style="filter: url(#shadow)" text-anchor="middle" x="50%" y="50%">3</text>
    </svg>
    <svg height="20" width="14.0" x="42.0" y="80">
      <defs/>
      <text dominant-baseline="central" fill="white" style="filter: url(#shadow)" text-anchor="middle" x="50%" y="50%">4</text>
    </svg>
    <svg height="20" width="14.0" x="56.0" y="80">
      <defs/>
      <text dominant-baseline="central" fill="white" style="filter: url(#shadow)" text-anchor="middle" x="50%" y="50%">5</text>
    </svg>
    <svg height="100" viewBox="-35 -50 70 100" width="70" x="0" y="0">
      <defs/>
      <image height="12" style="filter: url(#shadow)" transform="translate(-0.0, -20.0)" width="12" x="-6" xlink:href="/img/pieces/pips/r.svg" y="-6"/>
      <image height="12" style="filter: url(#shadow)" transform="translate(-19.02113032590307, -6.180339887498949)" width="12" x="-6" xlink:href="/img/pieces/pips/y.svg" y="-6"/>
      <image height="12" style="filter: url(#shadow)" transform="translate(-11.755705045849465, 16.180339887498945)" width="12" x="-6" xlink:href="/img/pieces/pips/g.svg" y="-6"/>
      <image height="12" style="filter: url(#shadow)" transform="translate(11.75570504584946, 16.180339887498953)" width="12" x="-6" xlink:href="/img/pieces/pips/b.svg" y="-6"/>
      <image height="12" style="filter: url(#shadow)" transform="translate(19.021130325903073, -6.180339887498945)" width="12" x="-6" xlink:href="/img/pieces/pips/p.svg" y="-6"/>
    </svg>
  </svg>
  <svg height="100" width="70" x="578" y="10">
    <defs/>
    <rect fill="gray" height="100" rx="5" ry="5" width="70" x="0" y="0"/>
    <svg height="20" width="14.0" x="0.0" y="80">
      <defs/>
      <text dominant-baseline="central" fill="white" style="filter: url(#shadow)" text-anchor="middle" x="50%" y="50%">1</text>
    </svg>
    <svg height="20" width="14.0" x="14.0" y="80">
      <defs/>
      <text dominant-baseline="central" fill="white" style="filter: url(#shadow)" text-anchor="middle" x="50%" y="50%">2</text>
    </svg>
    <svg height="20" width="14.0" x="28.0" y="80">
      <defs/>
      <text dominant-baseline="central" fill="white" style="filter: url(#shadow)" text-anchor="middle" x="50%" y="50%">3</text>
    </svg>
    <svg height="20" width="14.0" x="42.0" y="80">
      <defs/>
      <text dominant-baseline="central" fill="white" style="filter: url(#shadow)" text-anchor="middle" x="50%" y="50%">4</text>
    </svg>
    <svg height="20" width="14.0" x="56.0" y="80">
      <defs/>
      <text dominant-baseline="central" fill="white" style="filter: url(#shadow)" text-anchor="middle" x="50%" y="50%">5</text>
    </svg>
    <svg height="100" viewBox="-35 -50 70 100" width="70" x="0" y="0">
      <defs/>
      <image height="12" style="filter: url(#shadow)" transform="translate(-0.0, -20.0)" width="12" x="-6" xlink:href="/img/pieces/pips/r.svg" y="-6"/>
      <image height="12" style="filter: url(#shadow)" transform="translate(-19.02113032590307, -6.180339887498949)" width="12" x="-6" xlink:href="/img/pieces/pips/y.svg" y="-6"/>
      <image height="12" style="filter: url(#shadow)" transform="translate(-11.755705045849465, 16.180339887498945)" width="12" x="-6" xlink:href="/img/pieces/pips/g.svg" y="-6"/>
      <image height="12" style="filter: url(#shadow)" transform="translate(11.75570504584946, 16.180339887498953)" width="12" x="-6" xlink:href="/img/pieces/pips/b.svg" y="-6"/>
      <image height="12" style="filter: url(#shadow)" transform="translate(19.021130325903073, -6.180339887498945)" width="12" x="-6" xlink:href="/img/pieces/pips/p.svg" y="-6"/>
    </svg>
  </svg>
  <svg height="100" width="70" x="652" y="10">
    <defs/>
    <rect fill="gray" height="100" rx="5" ry="5" width="70" x="0" y="0"/>
    <svg height="20" width="14.0" x="0.0" y="80">
      <defs/>
      <text dominant-baseline="central" fill="white" style="filter: url(#shadow)" text-anchor="middle" x="50%" y="50%">1</text>
    </svg>
    <svg height="20" width="14.0" x="14.0" y="80">
      <defs/>
      <text dominant-baseline="central" fill="white" style="filter: url(#shadow)" text-anchor="middle" x="50%" y="50%">2</text>
    </svg>
    <svg height="20" width="14.0" x="28.0" y="80">
      <defs/>
      <text dominant-baseline="central" fill="white" style="filter: url(#shadow)" text-anchor="middle" x="50%" y="50%">3</text>
    </svg>
    <svg height="20" width="14.0" x="42.0" y="80">
      <defs/>
      <text dominant-baseline="central" fill="white" style="filter: url(#shadow)" text-anchor="middle" x="50%" y="50%">4</text>
    </svg>
    <svg height="20" width="14.0" x="56.0" y="80">
      <defs/>
      <text dominant-baseline="central" fill="white" style="filter: url(#shadow)" text-anchor="middle" x="50%" y="50%">5</text>
    </svg>
    <svg height="100" viewBox="-35 -50 70 100" width="70" x="0" y="0">
      <defs/>
      <image height="12" style="filter: url(#shadow)" transform="translate(-0.0, -20.0)" width="12" x="-6" xlink:href="/img/pieces/pips/r.svg" y="-6"/>
      <image height="12" style="filter: url(#shadow)" transform="translate(-19.02113032590307, -6.180339887498949)" width="12" x="-6" xlink:href="/img/pieces/pips/y.svg" y="-6"/>
      <image height="12" style="filter: url(#shadow)" transform="translate(-11.755705045849465, 16.180339887498945)" width="12" x="-6" xlink:href="/img/pieces/pips/g.svg" y="-6"/>
      <image height="12" style="filter: url(#shadow)" transform="translate(11.75570504584946, 16.180339887498953)" width="12" x="-6" xlink:href="/img/pieces/pips/b.svg" y="-6"/>
      <image height="12" style="filter: url(#shadow)" transform="translate(19.021130325903073, -6.180339887498945)" width="12" x="-6" xlink:href="/img/pieces/pips/p.svg" y="-6"/>
    </svg>
  </svg>
  <svg height="100" width="70" x="726" y="10">
    <defs/>
    <rect fill="gray" height="100" rx="5" ry="5" width="70" x="0" y="0"/>
    <svg height="20" width="14.0" x="0.0" y="80">
      <defs/>
      <text dominant-baseline="central" fill="white" style="filter: url(#shadow)" text-anchor="middle" x="50%" y="50%">1</text>
    </svg>
    <svg height="20" width="14.0" x="14.0" y="80">
      <defs/>
      <text dominant-baseline="central" fill="white" style="filter: url(#shadow)" text-anchor="middle" x="50%" y="50%">2</text>
    </svg>
    <svg height="20" width="14.0" x="28.0" y="80">
      <defs/>
      <text dominant-baseline="central" fill="white" style="filter: url(#shadow)" text-anchor="middle" x="50%" y="50%">3</text>
    </svg>
    <svg height="20" width="14.0" x="42.0" y="80">
      <defs/>
      <text dominant-baseline="central" fill="white" style="filter: url(#shadow)" text-anchor="middle" x="50%" y="50%">4</text>
    </svg>
    <svg height="20" width="14.0" x="56.0" y="80">
      <defs/>
      <text dominant-baseline="central" fill="white" style="filter: url(#shadow)" text-anchor="middle" x="50%" y="50%">5</text>
    </svg>
    <svg height="100" viewBox="-35 -50 70 100" width="70" x="0" y="0">
      <defs/>
      <image height="12" style="filter: url(#shadow)" transform="translate(-0.0, -20.0)" width="12" x="-6" xlink:href="/img/pieces/pips/r.svg" y="-6"/>
      <image height="12" style="filter: url(#shadow)" transform="translate(-19.02113032590307, -6.180339887498949)" width="12" x="-6" xlink:href="/img/pieces/pips/y.svg" y="-6"/>
      <image height="12" style="filter: url(#shadow)" transform="translate(-11.755705045849465, 16.180339887498945)" width="12" x="-6" xlink:href="/img/pieces/pips/g.svg" y="-6"/>
      <image height="12" style="filter: url(#shadow)" transform="translate(11.75570504584946, 16.180339887498953)" width="12" x="-6" xlink:href="/img/pieces/pips/b.svg" y="-6"/>
      <image height="12" style="filter: url(#shadow)" transform="translate(19.021130325903073, -6.180339887498945)" width="12" x="-6" xlink:href="/img/pieces/pips/p.svg" y="-6"/>
    </svg>
  </svg>
  <svg height="40" width="64" x="729" y="0">
    <defs/>
    <rect fill="purple" height="40" stroke="white" width="64" x="0" y="0"/>
    <svg height="20" width="64" x="0" y="0">
      <defs/>
      <text dominant-baseline="central" fill="white" text-anchor="middle" x="50%" y="50%">Chop</text>
    </svg>
    <svg height="20" width="64" x="0" y="20">
      <defs/>
      <text dominant-baseline="central" fill="white" text-anchor="middle" x="50%" y="50%">Move</text>
    </svg>
  </svg>
  <svg height="100" width="70" x="800" y="10">
    <defs/>
    <rect fill="gray" height="100" rx="5" ry="5" width="70" x="0" y="0"/>
    <svg height="20" width="14.0" x="0.0" y="80">
      <defs/>
      <text dominant-baseline="central" fill="white" style="filter: url(#shadow)" text-anchor="middle" x="50%" y="50%">1</text>
    </svg>
    <svg height="20" width="14.0" x="14.0" y="80">
      <defs/>
      <text dominant-baseline="central" fill="white" style="filter: url(#shadow)" text-anchor="middle" x="50%" y="50%">2</text>
    </svg>
    <svg height="20" width="14.0" x="28.0" y="80">
      <defs/>
      <text dominant-baseline="central" fill="white" style="filter: url(#shadow)" text-anchor="middle" x="50%" y="50%">3</text>
    </svg>
    <svg height="20" width="14.0" x="42.0" y="80">
      <defs/>
      <text dominant-baseline="central" fill="white" style="filter: url(#shadow)" text-anchor="middle" x="50%" y="50%">4</text>
    </svg>
    <svg height="20" width="14.0" x="56.0" y="80">
      <defs/>
      <text dominant-baseline="central" fill="white" style="filter: url(#shadow)" text-anchor="middle" x="50%" y="50%">5</text>
    </svg>
    <svg height="100" viewBox="-35 -50 70 100" width="70" x="0" y="0">
      <defs/>
      <image height="12" style="filter: url(#shadow)" transform="translate(-0.0, -20.0)" width="12" x="-6" xlink:href="/img/pieces/pips/r.svg" y="-6"/>
      <image height="12" style="filter: url(#shadow)" transform="translate(-19.02113032590307, -6.180339887498949)" width="12" x="-6" xlink:href="/img/pieces/pips/y.svg" y="-6"/>
      <image height="12" style="filter: url(#shadow)" transform="translate(-11.755705045849465, 16.180339887498945)" width="12" x="-6" xlink:href="/img/pieces/pips/g.svg" y="-6"/>
      <image height="12" style="filter: url(#shadow)" transform="translate(11.75570504584946, 16.180339887498953)" width="12" x="-6" xlink:href="/img/pieces/pips/b.svg" y="-6"/>
      <image height="12" style="filter: url(#shadow)" transform="translate(19.021130325903073, -6.180339887498945)" width="12" x="-6" xlink:href="/img/pieces/pips/p.svg" y="-6"/>
    </svg>
  </svg>
  <svg height="40" width="64" x="803" y="0">
    <defs/>
    <rect fill="maroon" height="40" stroke="white" width="64" x="0" y="0"/>
    <svg height="20" width="64" x="0" y="0">
      <defs/>
      <text dominant-baseline="central" fill="white" text-anchor="middle" x="50%" y="50%">Chop</text>
    </svg>
    <svg height="20" width="64" x="0" y="20">
      <defs/>
      <text dominant-baseline="central" fill="white" text-anchor="middle" x="50%" y="50%">Move</text>
    </svg>
  </svg>
  <text dy="50" fill="#000001" x="444" y="125">Bob</text>
  <rect fill="orange" height="102" rx="5" ry="5" width="72" x="503" y="124"/>
  <svg height="100" width="70" x="504" y="125">
    <defs/>
    <image height="100" width="70" x="0" xlink:href="/img/pieces/cards/1.svg" y="0"/>
    <svg height="100" viewBox="-35 -50 70 100" width="70" x="0" y="0">
      <defs/>
      <image height="12" style="filter: url(#shadow)" transform="translate(-0.0, -20.0)" width="12" x="-6" xlink:href="/img/pieces/pips/r.svg" y="-6"/>
      <image height="12" style="filter: url(#shadow)" transform="translate(-19.02113032590307, -6.180339887498949)" width="12" x="-6" xlink:href="/img/pieces/pips/y.svg" y="-6"/>
      <image height="12" style="filter: url(#shadow)" transform="translate(-11.755705045849465, 16.180339887498945)" width="12" x="-6" xlink:href="/img/pieces/pips/g.svg" y="-6"/>
      <image height="12" style="filter: url(#shadow)" transform="translate(11.75570504584946, 16.180339887498953)" width="12" x="-6" xlink:href="/img/pieces/pips/b.svg" y="-6"/>
      <image height="12" style="filter: url(#shadow)" transform="translate(19.021130325903073, -6.180339887498945)" width="12" x="-6" xlink:href="/img/pieces/pips/p.svg" y="-6"/>
    </svg>
  </svg>
  <image height="70" width="50" x="514" xlink:href="/img/pieces/arrow.svg" y="85"/>
  <circle cx="539" cy="110" fill="black" r="15" stroke="white" stroke-width="2"/>
  <image height="16" style="filter: url(#whitenum)" width="16" x="531" xlink:href="/img/pieces/pips/1.svg" y="102"/>
  <svg height="80" width="64" x="507" y="230">
    <defs/>
    <rect fill="purple" height="80" stroke="white" width="64" x="0" y="0"/>
    <svg height="20" width="64" x="0" y="0">
      <defs/>
      <text dominant-baseline="central" fill="white" text-anchor="middle" x="50%" y="50%">Double</text>
    </svg>
    <svg height="20" width="64" x="0" y="20">
      <defs/>
      <text dominant-baseline="central" fill="white" text-anchor="middle" x="50%" y="50%">Chop</text>
    </svg>
    <svg height="20" width="64" x="0" y="40">
      <defs/>
      <text dominant-baseline="central" fill="white" text-anchor="middle" x="50%" y="50%">Move</text>
    </svg>
    <svg height="20" width="64" x="0" y="60">
      <defs/>
      <text dominant-baseline="central" fill="white" text-anchor="middle" x="50%" y="50%">Alice</text>
    </svg>
  </svg>
  <rect fill="orange" height="102" rx="5" ry="5" width="72" x="577" y="124"/>
  <svg height="100" width="70" x="578" y="125">
    <defs/>
    <image height="100" width="70" x="0" xlink:href="/img/pieces/cards/1.svg" y="0"/>
    <svg height="100" viewBox="-35 -50 70 100" width="70" x="0" y="0">
      <defs/>
      <image height="12" style="filter: url(#shadow)" transform="translate(-0.0, -20.0)" width="12" x="-6" xlink:href="/img/pieces/pips/r.svg" y="-6"/>
      <image height="12" style="filter: url(#shadow)" transform="translate(-19.02113032590307, -6.180339887498949)" width="12" x="-6" xlink:href="/img/pieces/pips/y.svg" y="-6"/>
      <image height="12" style="filter: url(#shadow)" transform="translate(-11.755705045849465, 16.180339887498945)" width="12" x="-6" xlink:href="/img/pieces/pips/g.svg" y="-6"/>
      <image height="12" style="filter: url(#shadow)" transform="translate(11.75570504584946, 16.180339887498953)" width="12" x="-6" xlink:href="/img/pieces/pips/b.svg" y="-6"/>
      <image height="12" style="filter: url(#shadow)" transform="translate(19.021130325903073, -6.180339887498945)" width="12" x="-6" xlink:href="/img/pieces/pips/p.svg" y="-6"/>
    </svg>
  </svg>
  <image height="70" width="50" x="588" xlink:href="/img/pieces/arrow.svg" y="85"/>
  <circle cx="613" cy="110" fill="black" r="15" stroke="white" stroke-width="2"/>
  <image height="16" style="filter: url(#whitenum)" width="16" x="605" xlink:href="/img/pieces/pips/1.svg" y="102"/>
  <svg height="80" width="64" x="581" y="230">
    <defs/>
    <rect fill="darkgreen" height="80" stroke="white" width="64" x="0" y="0"/>
    <svg height="20" width="64" x="0" y="0">
      <defs/>
      <text dominant-baseline="central" fill="white" text-anchor="middle" x="50%" y="50%">Double</text>
    </svg>
    <svg height="20" width="64" x="0" y="20">
      <defs/>
      <text dominant-baseline="central" fill="white" text-anchor="middle" x="50%" y="50%">Chop</text>
    </svg>
    <svg height="20" width="64" x="0" y="40">
      <defs/>
      <text dominant-baseline="central" fill="white" text-anchor="middle" x="50%" y="50%">Move</text>
    </svg>
    <svg height="20" width="64" x="0" y="60">
      <defs/>
      <text dominant-baseline="central" fill="white" text-anchor="middle" x="50%" y="50%">Cathy</text>
    </svg>
  </svg>
  <rect fill="orange" height="102" rx="5" ry="5" width="72" x="651" y="124"/>
  <svg height="100" width="70" x="652" y="125">
    <defs/>
    <image height="100" width="70" x="0" xlink:href="/img/pieces/cards/1.svg" y="0"/>
    <svg height="100" viewBox="-35 -50 70 100" width="70" x="0" y="0">
      <defs/>
      <image height="12" style="filter: url(#shadow)" transform="translate(-0.0, -20.0)" width="12" x="-6" xlink:href="/img/pieces/pips/r.svg" y="-6"/>
      <image height="12" style="filter: url(#shadow)" transform="translate(-19.02113032590307, -6.180339887498949)" width="12" x="-6" xlink:href="/img/pieces/pips/y.svg" y="-6"/>
      <image height="12" style="filter: url(#shadow)" transform="translate(-11.755705045849465, 16.180339887498945)" width="12" x="-6" xlink:href="/img/pieces/pips/g.svg" y="-6"/>
      <image height="12" style="filter: url(#shadow)" transform="translate(11.75570504584946, 16.180339887498953)" width="12" x="-6" xlink:href="/img/pieces/pips/b.svg" y="-6"/>
      <image height="12" style="filter: url(#shadow)" transform="translate(19.021130325903073, -6.180339887498945)" width="12" x="-6" xlink:href="/img/pieces/pips/p.svg" y="-6"/>
    </svg>
  </svg>
  <image height="70" width="50" x="662" xlink:href="/img/pieces/arrow.svg" y="85"/>
  <circle cx="687" cy="110" fill="black" r="15" stroke="white" stroke-width="2"/>
  <image height="16" style="filter: url(#whitenum)" width="16" x="679" xlink:href="/img/pieces/pips/1.svg" y="102"/>
  <svg height="60" width="64" x="655" y="230">
    <defs/>
    <rect fill="maroon" height="60" stroke="white" width="64" x="0" y="0"/>
    <svg height="20" width="64" x="0" y="0">
      <defs/>
      <text dominant-baseline="central" fill="white" text-anchor="middle" x="50%" y="50%">Chop</text>
    </svg>
    <svg height="20" width="64" x="0" y="20">
      <defs/>
      <text dominant-baseline="central" fill="white" text-anchor="middle" x="50%" y="50%">Move</text>
    </svg>
    <svg height="20" width="64" x="0" y="40">
      <defs/>
      <text dominant-baseline="central" fill="white" text-anchor="middle" x="50%" y="50%">Alice</text>
    </svg>
  </svg>
  <rect fill="orange" height="102" rx="5" ry="5" width="72" x="725" y="124"/>
  <svg height="100" width="70" x="726" y="125">
    <defs/>
    <image height="100" width="70" x="0" xlink:href="/img/pieces/cards/1.svg" y="0"/>
    <svg height="100" viewBox="-35 -50 70 100" width="70" x="0" y="0">
      <defs/>
      <image height="12" style="filter: url(#shadow)" transform="translate(-0.0, -20.0)" width="12" x="-6" xlink:href="/img/pieces/pips/r.svg" y="-6"/>
      <image height="12" style="filter: url(#shadow)" transform="translate(-19.02113032590307, -6.180339887498949)" width="12" x="-6" xlink:href="/img/pieces/pips/y.svg" y="-6"/>
      <image height="12" style="filter: url(#shadow)" transform="translate(-11.755705045849465, 16.180339887498945)" width="12" x="-6" xlink:href="/img/pieces/pips/g.svg" y="-6"/>
      <image height="12" style="filter: url(#shadow)" transform="translate(11.75570504584946, 16.180339887498953)" width="12" x="-6" xlink:href="/img/pieces/pips/b.svg" y="-6"/>
      <image height="12" style="filter: url(#shadow)" transform="translate(19.021130325903073, -6.180339887498945)" width="12" x="-6" xlink:href="/img/pieces/pips/p.svg" y="-6"/>
    </svg>
  </svg>
  <image height="70" width="50" x="736" xlink:href="/img/pieces/arrow.svg" y="85"/>
  <circle cx="761" cy="110" fill="black" r="15" stroke="white" stroke-width="2"/>
  <image height="16" style="filter: url(#whitenum)" width="16" x="753" xlink:href="/img/pieces/pips/1.svg" y="102"/>
  <svg height="60" width="64" x="729" y="230">
    <defs/>
    <rect fill="darkblue" height="60" stroke="white" width="64" x="0" y="0"/>
    <svg height="20" width="64" x="0" y="0">
      <defs/>
      <text dominant-baseline="central" fill="white" text-anchor="middle" x="50%" y="50%">Chop</text>
    </svg>
    <svg height="20" width="64" x="0" y="20">
      <defs/>
      <text dominant-baseline="central" fill="white" text-anchor="middle" x="50%" y="50%">Move</text>
    </svg>
    <svg height="20" width="64" x="0" y="40">
      <defs/>
      <text dominant-baseline="central" fill="white" text-anchor="middle" x="50%" y="50%">Cathy</text>
    </svg>
  </svg>
  <rect fill="orange" height="102" rx="5" ry="5" width="72" x="799" y="124"/>
  <svg height="100" width="70" x="800" y="125">
    <defs/>
    <image height="100" width="70" x="0" xlink:href="/img/pieces/cards/1.svg" y="0"/>
    <svg height="100" viewBox="-35 -50 70 100" width="70" x="0" y="0">
      <defs/>
      <image height="12" style="filter: url(#shadow)" transform="translate(-0.0, -20.0)" width="12" x="-6" xlink:href="/img/pieces/pips/r.svg" y="-6"/>
      <image height="12" style="filter: url(#shadow)" transform="translate(-19.02113032590307, -6.180339887498949)" width="12" x="-6" xlink:href="/img/pieces/pips/y.svg" y="-6"/>
      <image height="12" style="filter: url(#shadow)" transform="translate(-11.755705045849465, 16.180339887498945)" width="12" x="-6" xlink:href="/img/pieces/pips/g.svg" y="-6"/>
      <image height="12" style="filter: url(#shadow)" transform="translate(11.75570504584946, 16.180339887498953)" width="12" x="-6" xlink:href="/img/pieces/pips/b.svg" y="-6"/>
      <image height="12" style="filter: url(#shadow)" transform="translate(19.021130325903073, -6.180339887498945)" width="12" x="-6" xlink:href="/img/pieces/pips/p.svg" y="-6"/>
    </svg>
  </svg>
  <image height="70" width="50" x="810" xlink:href="/img/pieces/arrow.svg" y="85"/>
  <circle cx="835" cy="110" fill="black" r="15" stroke="white" stroke-width="2"/>
  <image height="16" style="filter: url(#whitenum)" width="16" x="827" xlink:href="/img/pieces/pips/1.svg" y="102"/>
  <text dy="50" fill="#000001" x="444" y="325">Cathy</text>
  <svg height="100" width="70" x="504" y="335">
    <defs/>
    <rect fill="gray" height="100" rx="5" ry="5" width="70" x="0" y="0"/>
    <svg height="20" width="14.0" x="0.0" y="80">
      <defs/>
      <text dominant-baseline="central" fill="white" style="filter: url(#shadow)" text-anchor="middle" x="50%" y="50%">1</text>
    </svg>
    <svg height="20" width="14.0" x="14.0" y="80">
      <defs/>
      <text dominant-baseline="central" fill="white" style="filter: url(#shadow)" text-anchor="middle" x="50%" y="50%">2</text>
    </svg>
    <svg height="20" width="14.0" x="28.0" y="80">
      <defs/>
      <text dominant-baseline="central" fill="white" style="filter: url(#shadow)" text-anchor="middle" x="50%" y="50%">3</text>
    </svg>
    <svg height="20" width="14.0" x="42.0" y="80">
      <defs/>
      <text dominant-baseline="central" fill="white" style="filter: url(#shadow)" text-anchor="middle" x="50%" y="50%">4</text>
    </svg>
    <svg height="20" width="14.0" x="56.0" y="80">
      <defs/>
      <text dominant-baseline="central" fill="white" style="filter: url(#shadow)" text-anchor="middle" x="50%" y="50%">5</text>
    </svg>
    <svg height="100" viewBox="-35 -50 70 100" width="70" x="0" y="0">
      <defs/>
      <image height="12" style="filter: url(#shadow)" transform="translate(-0.0, -20.0)" width="12" x="-6" xlink:href="/img/pieces/pips/r.svg" y="-6"/>
      <image height="12" style="filter: url(#shadow)" transform="translate(-19.02113032590307, -6.180339887498949)" width="12" x="-6" xlink:href="/img/pieces/pips/y.svg" y="-6"/>
      <image height="12" style="filter: url(#shadow)" transform="translate(-11.755705045849465, 16.180339887498945)" width="12" x="-6" xlink:href="/img/pieces/pips/g.svg" y="-6"/>
      <image height="12" style="filter: url(#shadow)" transform="translate(11.75570504584946, 16.180339887498953)" width="12" x="-6" xlink:href="/img/pieces/pips/b.svg" y="-6"/>
      <image height="12" style="filter: url(#shadow)" transform="translate(19.021130325903073, -6.180339887498945)" width="12" x="-6" xlink:href="/img/pieces/pips/p.svg" y="-6"/>
    </svg>
  </svg>
  <svg height="100" width="70" x="578" y="335">
    <defs/>
    <rect fill="gray" height="100" rx="5" ry="5" width="70" x="0" y="0"/>
    <svg height="20" width="14.0" x="0.0" y="80">
      <defs/>
      <text dominant-baseline="central" fill="white" style="filter: url(#shadow)" text-anchor="middle" x="50%" y="50%">1</text>
    </svg>
    <svg height="20" width="14.0" x="14.0" y="80">
      <defs/>
      <text dominant-baseline="central" fill="white" style="filter: url(#shadow)" text-anchor="middle" x="50%" y="50%">2</text>
    </svg>
    <svg height="20" width="14.0" x="28.0" y="80">
      <defs/>
      <text dominant-baseline="central" fill="white" style="filter: url(#shadow)" text-anchor="middle" x="50%" y="50%">3</text>
    </svg>
    <svg height="20" width="14.0" x="42.0" y="80">
      <defs/>
      <text dominant-baseline="central" fill="white" style="filter: url(#shadow)" text-anchor="middle" x="50%" y="50%">4</text>
    </svg>
    <svg height="20" width="14.0" x="56.0" y="80">
      <defs/>
      <text dominant-baseline="central" fill="white" style="filter: url(#shadow)" text-anchor="middle" x="50%" y="50%">5</text>
    </svg>
    <svg height="100" viewBox="-35 -50 70 100" width="70" x="0" y="0">
      <defs/>
      <image height="12" style="filter: url(#shadow)" transform="translate(-0.0, -20.0)" width="12" x="-6" xlink:href="/img/pieces/pips/r.svg" y="-6"/>
      <image height="12" style="filter: url(#shadow)" transform="translate(-19.02113032590307, -6.180339887498949)" width="12" x="-6" xlink:href="/img/pieces/pips/y.svg" y="-6"/>
      <image height="12" style="filter: url(#shadow)" transform="translate(-11.755705045849465, 16.180339887498945)" width="12" x="-6" xlink:href="/img/pieces/pips/g.svg" y="-6"/>
      <image height="12" style="filter: url(#shadow)" transform="translate(11.75570504584946, 16.180339887498953)" width="12" x="-6" xlink:href="/img/pieces/pips/b.svg" y="-6"/>
      <image height="12" style="filter: url(#shadow)" transform="translate(19.021130325903073, -6.180339887498945)" width="12" x="-6" xlink:href="/img/pieces/pips/p.svg" y="-6"/>
    </svg>
  </svg>
  <svg height="100" width="70" x="652" y="335">
    <defs/>
    <rect fill="gray" height="100" rx="5" ry="5" width="70" x="0" y="0"/>
    <svg height="20" width="14.0" x="0.0" y="80">
      <defs/>
      <text dominant-baseline="central" fill="white" style="filter: url(#shadow)" text-anchor="middle" x="50%" y="50%">1</text>
    </svg>
    <svg height="20" width="14.0" x="14.0" y="80">
      <defs/>
      <text dominant-baseline="central" fill="white" style="filter: url(#shadow)" text-anchor="middle" x="50%" y="50%">2</text>
    </svg>
    <svg height="20" width="14.0" x="28.0" y="80">
      <defs/>
      <text dominant-baseline="central" fill="white" style="filter: url(#shadow)" text-anchor="middle" x="50%" y="50%">3</text>
    </svg>
    <svg height="20" width="14.0" x="42.0" y="80">
      <defs/>
      <text dominant-baseline="central" fill="white" style="filter: url(#shadow)" text-anchor="middle" x="50%" y="50%">4</text>
    </svg>
    <svg height="20" width="14.0" x="56.0" y="80">
      <defs/>
      <text dominant-baseline="central" fill="white" style="filter: url(#shadow)" text-anchor="middle" x="50%" y="50%">5</text>
    </svg>
    <svg height="100" viewBox="-35 -50 70 100" width="70" x="0" y="0">
      <defs/>
      <image height="12" style="filter: url(#shadow)" transform="translate(-0.0, -20.0)" width="12" x="-6" xlink:href="/img/pieces/pips/r.svg" y="-6"/>
      <image height="12" style="filter: url(#shadow)" transform="translate(-19.02113032590307, -6.180339887498949)" width="12" x="-6" xlink:href="/img/pieces/pips/y.svg" y="-6"/>
      <image height="12" style="filter: url(#shadow)" transform="translate(-11.755705045849465, 16.180339887498945)" width="12" x="-6" xlink:href="/img/pieces/pips/g.svg" y="-6"/>
      <image height="12" style="filter: url(#shadow)" transform="translate(11.75570504584946, 16.180339887498953)" width="12" x="-6" xlink:href="/img/pieces/pips/b.svg" y="-6"/>
      <image height="12" style="filter: url(#shadow)" transform="translate(19.021130325903073, -6.180339887498945)" width="12" x="-6" xlink:href="/img/pieces/pips/p.svg" y="-6"/>
    </svg>
  </svg>
  <svg height="100" width="70" x="726" y="335">
    <defs/>
    <rect fill="gray" height="100" rx="5" ry="5" width="70" x="0" y="0"/>
    <svg height="20" width="14.0" x="0.0" y="80">
      <defs/>
      <text dominant-baseline="central" fill="white" style="filter: url(#shadow)" text-anchor="middle" x="50%" y="50%">1</text>
    </svg>
    <svg height="20" width="14.0" x="14.0" y="80">
      <defs/>
      <text dominant-baseline="central" fill="white" style="filter: url(#shadow)" text-anchor="middle" x="50%" y="50%">2</text>
    </svg>
    <svg height="20" width="14.0" x="28.0" y="80">
      <defs/>
      <text dominant-baseline="central" fill="white" style="filter: url(#shadow)" text-anchor="middle" x="50%" y="50%">3</text>
    </svg>
    <svg height="20" width="14.0" x="42.0" y="80">
      <defs/>
      <text dominant-baseline="central" fill="white" style="filter: url(#shadow)" text-anchor="middle" x="50%" y="50%">4</text>
    </svg>
    <svg height="20" width="14.0" x="56.0" y="80">
      <defs/>
      <text dominant-baseline="central" fill="white" style="filter: url(#shadow)" text-anchor="middle" x="50%" y="50%">5</text>
    </svg>
    <svg height="100" viewBox="-35 -50 70 100" width="70" x="0" y="0">
      <defs/>
      <image height="12" style="filter: url(#shadow)" transform="translate(-0.0, -20.0)" width="12" x="-6" xlink:href="/img/pieces/pips/r.svg" y="-6"/>
      <image height="12" style="filter: url(#shadow)" transform="translate(-19.02113032590307, -6.180339887498949)" width="12" x="-6" xlink:href="/img/pieces/pips/y.svg" y="-6"/>
      <image height="12" style="filter: url(#shadow)" transform="translate(-11.755705045849465, 16.180339887498945)" width="12" x="-6" xlink:href="/img/pieces/pips/g.svg" y="-6"/>
      <image height="12" style="filter: url(#shadow)" transform="translate(11.75570504584946, 16.180339887498953)" width="12" x="-6" xlink:href="/img/pieces/pips/b.svg" y="-6"/>
      <image height="12" style="filter: url(#shadow)" transform="translate(19.021130325903073, -6.180339887498945)" width="12" x="-6" xlink:href="/img/pieces/pips/p.svg" y="-6"/>
    </svg>
  </svg>
  <svg height="40" width="64" x="729" y="325">
    <defs/>
    <rect fill="darkgreen" height="40" stroke="white" width="64" x="0" y="0"/>
    <svg height="20" width="64" x="0" y="0">
      <defs/>
      <text dominant-baseline="central" fill="white" text-anchor="middle" x="50%" y="50%">Chop</text>
    </svg>
    <svg height="20" width="64" x="0" y="20">
      <defs/>
      <text dominant-baseline="central" fill="white" text-anchor="middle" x="50%" y="50%">Move</text>
    </svg>
  </svg>
  <svg height="100" width="70" x="800" y="335">
    <defs/>
    <rect fill="gray" height="100" rx="5" ry="5" width="70" x="0" y="0"/>
    <svg height="20" width="14.0" x="0.0" y="80">
      <defs/>
      <text dominant-baseline="central" fill="white" style="filter: url(#shadow)" text-anchor="middle" x="50%" y="50%">1</text>
    </svg>
    <svg height="20" width="14.0" x="14.0" y="80">
      <defs/>
      <text dominant-baseline="central" fill="white" style="filter: url(#shadow)" text-anchor="middle" x="50%" y="50%">2</text>
    </svg>
    <svg height="20" width="14.0" x="28.0" y="80">
      <defs/>
      <text dominant-baseline="central" fill="white" style="filter: url(#shadow)" text-anchor="middle" x="50%" y="50%">3</text>
    </svg>
    <svg height="20" width="14.0" x="42.0" y="80">
      <defs/>
      <text dominant-baseline="central" fill="white" style="filter: url(#shadow)" text-anchor="middle" x="50%" y="50%">4</text>
    </svg>
    <svg height="20" width="14.0" x="56.0" y="80">
      <defs/>
      <text dominant-baseline="central" fill="white" style="filter: url(#shadow)" text-anchor="middle" x="50%" y="50%">5</text>
    </svg>
    <svg height="100" viewBox="-35 -50 70 100" width="70" x="0" y="0">
      <defs/>
      <image height="12" style="filter: url(#shadow)" transform="translate(-0.0, -20.0)" width="12" x="-6" xlink:href="/img/pieces/pips/r.svg" y="-6"/>
      <image height="12" style="filter: url(#shadow)" transform="translate(-19.02113032590307, -6.180339887498949)" width="12" x="-6" xlink:href="/img/pieces/pips/y.svg" y="-6"/>
      <image height="12" style="filter: url(#shadow)" transform="translate(-11.755705045849465, 16.180339887498945)" width="12" x="-6" xlink:href="/img/pieces/pips/g.svg" y="-6"/>
      <image height="12" style="filter: url(#shadow)" transform="translate(11.75570504584946, 16.180339887498953)" width="12" x="-6" xlink:href="/img/pieces/pips/b.svg" y="-6"/>
      <image height="12" style="filter: url(#shadow)" transform="translate(19.021130325903073, -6.180339887498945)" width="12" x="-6" xlink:href="/img/pieces/pips/p.svg" y="-6"/>
    </svg>
  </svg>
  <svg height="40" width="64" x="803" y="325">
    <defs/>
    <rect fill="darkblue" height="40" stroke="white" width="64" x="0" y="0"/>
    <svg height="20" width="64" x="0" y="0">
      <defs/>
      <text dominant-baseline="central" fill="white" text-anchor="middle" x="50%" y="50%">Chop</text>
    </svg>
    <svg height="20" width="64" x="0" y="20">
      <defs/>
      <text dominant-baseline="central" fill="white" text-anchor="middle" x="50%" y="50%">Move</text>
    </svg>
  </svg>
</svg>

