<?xml version="1.0" encoding="utf-8" ?>
<svg baseProfile="full" height="265" version="1.1" viewBox="0 0 934 265" width="934" xmlns="http://www.w3.org/2000/svg"  xmlns:xlink="http://www.w3.org/1999/xlink">
  <defs>
        <filter id="shadow">
        <feOffset in="SourceAlpha" dx="2" dy="2" result="offsetblur"/>
        <feComponentTransfer result="shadow">
            <feFuncA type="linear" slope="0.5"/>
        </feComponentTransfer>
        <feMorphology in="SourceAlpha" operator="dilate" radius="1" result="border"/>
        <feMerge>
            <feMergeNode in="shadow"/>
            <feMergeNode in="border"/>
            <feMergeNode in="SourceGraphic"/>
        </feMerge>
        </filter>
        <filter id="whitenum">
        <feComponentTransfer>
            <feFuncR type="linear" slope="100"/>
            <feFuncG type="linear" slope="100"/>
            <feFuncB type="linear" slope="100"/>
        </feComponentTransfer>
        </filter>
            
    </defs>
  <image height="100" width="70" x="0" xlink:href="/img/pieces/cards/r1.svg" y="0"/>
  <image height="100" width="70" x="78" xlink:href="/img/pieces/cards/y1.svg" y="0"/>
  <image height="100" width="70" x="156" xlink:href="/img/pieces/cards/g1.svg" y="0"/>
  <image height="100" width="70" x="234" xlink:href="/img/pieces/cards/b1.svg" y="0"/>
  <image height="100" width="70" x="312" xlink:href="/img/pieces/cards/p1.svg" y="0"/>
  <text dy="57.0" fill="#f5f6f7" style="font-size: 1.4em;" x="464" y="0">Alice</text>
  <svg height="100" width="70" x="544" y="0">
    <defs/>
    <rect fill="gray" height="100" rx="5" ry="5" width="70" x="0" y="0"/>
    <svg height="100" viewBox="-35 -50 70 100" width="70" x="0" y="0">
      <defs/>
    </svg>
  </svg>
  <svg height="100" width="70" x="622" y="0">
    <defs/>
    <rect fill="gray" height="100" rx="5" ry="5" width="70" x="0" y="0"/>
    <svg height="100" viewBox="-35 -50 70 100" width="70" x="0" y="0">
      <defs/>
    </svg>
  </svg>
  <svg height="100" width="70" x="700" y="0">
    <defs/>
    <rect fill="gray" height="100" rx="5" ry="5" width="70" x="0" y="0"/>
    <svg height="100" viewBox="-35 -50 70 100" width="70" x="0" y="0">
      <defs/>
    </svg>
  </svg>
  <svg height="100" width="70" x="778" y="0">
    <defs/>
    <rect fill="gray" height="100" rx="5" ry="5" width="70" x="0" y="0"/>
    <svg height="100" viewBox="-35 -50 70 100" width="70" x="0" y="0">
      <defs/>
    </svg>
  </svg>
  <svg height="100" width="70" x="856" y="0">
    <defs/>
    <rect fill="gray" height="100" rx="5" ry="5" width="70" x="0" y="0"/>
    <svg height="100" viewBox="-35 -50 70 100" width="70" x="0" y="0">
      <defs/>
    </svg>
  </svg>
  <text dy="57.0" fill="#f5f6f7" style="font-size: 1.4em;" x="464" y="125">Bob</text>
  <svg height="100" width="70" x="544" y="125">
    <defs/>
    <rect fill="gray" height="100" rx="5" ry="5" width="70" x="0" y="0"/>
    <svg height="100" viewBox="-35 -50 70 100" width="70" x="0" y="0">
      <defs/>
    </svg>
  </svg>
  <rect fill="orange" height="104" rx="5" ry="5" width="74" x="620.0" y="123.0"/>
  <svg height="100" width="70" x="622" y="125">
    <defs/>
    <image height="100" width="70" x="0" xlink:href="/img/pieces/cards/5.svg" y="0"/>
    <svg height="100" viewBox="-35 -50 70 100" width="70" x="0" y="0">
      <defs/>
      <image height="12" style="filter: url(#shadow)" transform="translate(-0.0, -20.0)" width="12" x="-6" xlink:href="/img/pieces/pips/r.svg" y="-6"/>
      <image height="12" style="filter: url(#shadow)" transform="translate(-19.02113032590307, -6.180339887498949)" width="12" x="-6" xlink:href="/img/pieces/pips/y.svg" y="-6"/>
      <image height="12" style="filter: url(#shadow)" transform="translate(-11.755705045849465, 16.180339887498945)" width="12" x="-6" xlink:href="/img/pieces/pips/g.svg" y="-6"/>
      <image height="12" style="filter: url(#shadow)" transform="translate(11.75570504584946, 16.180339887498953)" width="12" x="-6" xlink:href="/img/pieces/pips/b.svg" y="-6"/>
      <image height="12" style="filter: url(#shadow)" transform="translate(19.021130325903073, -6.180339887498945)" width="12" x="-6" xlink:href="/img/pieces/pips/p.svg" y="-6"/>
    </svg>
  </svg>
  <image height="70" width="50" x="632" xlink:href="/img/pieces/arrow.svg" y="85"/>
  <circle cx="657" cy="110" fill="black" r="15" stroke="white" stroke-width="2"/>
  <image height="16" style="filter: url(#whitenum)" width="16" x="649" xlink:href="/img/pieces/pips/5.svg" y="102"/>
  <svg height="100" width="70" x="700" y="125">
    <defs/>
    <rect fill="gray" height="100" rx="5" ry="5" width="70" x="0" y="0"/>
    <svg height="100" viewBox="-35 -50 70 100" width="70" x="0" y="0">
      <defs/>
    </svg>
  </svg>
  <svg height="40" width="64" x="703" y="125">
    <defs/>
    <rect fill="darkred" height="40" rx="5" ry="5" stroke="white" width="64" x="0" y="0"/>
    <svg height="20" width="64" x="0" y="0">
      <defs/>
      <text dominant-baseline="central" fill="white" text-anchor="middle" x="50%" y="50%">Chop</text>
    </svg>
    <svg height="20" width="64" x="0" y="20">
      <defs/>
      <text dominant-baseline="central" fill="white" text-anchor="middle" x="50%" y="50%">slot</text>
    </svg>
  </svg>
  <rect fill="orange" height="104" rx="5" ry="5" width="74" x="776.0" y="123.0"/>
  <svg height="100" width="70" x="778" y="125">
    <defs/>
    <image height="100" width="70" x="0" xlink:href="/img/pieces/cards/5.svg" y="0"/>
    <svg height="100" viewBox="-35 -50 70 100" width="70" x="0" y="0">
      <defs/>
      <image height="12" style="filter: url(#shadow)" transform="translate(-0.0, -20.0)" width="12" x="-6" xlink:href="/img/pieces/pips/r.svg" y="-6"/>
      <image height="12" style="filter: url(#shadow)" transform="translate(-19.02113032590307, -6.180339887498949)" width="12" x="-6" xlink:href="/img/pieces/pips/y.svg" y="-6"/>
      <image height="12" style="filter: url(#shadow)" transform="translate(-11.755705045849465, 16.180339887498945)" width="12" x="-6" xlink:href="/img/pieces/pips/g.svg" y="-6"/>
      <image height="12" style="filter: url(#shadow)" transform="translate(11.75570504584946, 16.180339887498953)" width="12" x="-6" xlink:href="/img/pieces/pips/b.svg" y="-6"/>
      <image height="12" style="filter: url(#shadow)" transform="translate(19.021130325903073, -6.180339887498945)" width="12" x="-6" xlink:href="/img/pieces/pips/p.svg" y="-6"/>
    </svg>
  </svg>
  <image height="70" width="50" x="788" xlink:href="/img/pieces/arrow.svg" y="85"/>
  <circle cx="813" cy="110" fill="black" r="15" stroke="white" stroke-width="2"/>
  <image height="16" style="filter: url(#whitenum)" width="16" x="805" xlink:href="/img/pieces/pips/5.svg" y="102"/>
  <svg height="100" width="70" x="856" y="125">
    <defs/>
    <rect fill="gray" height="100" rx="5" ry="5" width="70" x="0" y="0"/>
    <svg height="100" viewBox="-35 -50 70 100" width="70" x="0" y="0">
      <defs/>
    </svg>
  </svg>
  <svg height="20" width="64" x="859" y="230">
    <defs/>
    <rect fill="black" height="20" rx="5" ry="5" stroke="white" width="64" x="0" y="0"/>
    <svg height="20" width="64" x="0" y="0">
      <defs/>
      <text dominant-baseline="central" fill="white" text-anchor="middle" x="50%" y="50%">Save</text>
    </svg>
  </svg>
  <text dx="22.0" dy="56.0" fill="white" stroke="white" style="font-size: 1.5em; filter: url(#shadow);" x="856" y="125">(CM)</text>
</svg>

