<?xml version="1.0" encoding="utf-8" ?>
<svg baseProfile="full" height="590" version="1.1" viewBox="0 0 948 590" width="948" xmlns="http://www.w3.org/2000/svg"  xmlns:xlink="http://www.w3.org/1999/xlink">
  <defs>
        <filter id="shadow">
        <feOffset in="SourceAlpha" dx="2" dy="2" result="offsetblur"/>
        <feComponentTransfer result="shadow">
            <feFuncA type="linear" slope="0.5"/>
        </feComponentTransfer>
        <feMorphology in="SourceAlpha" operator="dilate" radius="1" result="border"/>
        <feMerge>
            <feMergeNode in="shadow"/>
            <feMergeNode in="border"/>
            <feMergeNode in="SourceGraphic"/>
        </feMerge>
        </filter>
    </defs>
  <image height="100" width="70" x="0" xlink:href="/img/pieces/cards/r2.svg" y="0"/>
  <image height="100" width="70" x="74" xlink:href="/img/pieces/cards/y2.svg" y="0"/>
  <image height="100" width="70" x="148" xlink:href="/img/pieces/cards/g2.svg" y="0"/>
  <image height="100" width="70" x="222" xlink:href="/img/pieces/cards/b2.svg" y="0"/>
  <image height="100" width="70" x="296" xlink:href="/img/pieces/cards/p2.svg" y="0"/>
  <image height="100" width="70" x="370" xlink:href="/img/pieces/cards/m2.svg" y="0"/>
  <text dy="20" fill="#000001" x="558" y="0">Situation before clue</text>
  <text dy="50" fill="#000001" x="518" y="30">Bob</text>
  <svg height="100" width="70" x="578" y="40">
    <defs/>
    <rect fill="gray" height="100" rx="5" ry="5" width="70" x="0" y="0"/>
    <svg height="20" width="14.0" x="0.0" y="80">
      <defs/>
      <text dominant-baseline="central" fill="white" style="filter: url(#shadow)" text-anchor="middle" x="50%" y="50%">1</text>
    </svg>
    <svg height="20" width="14.0" x="14.0" y="80">
      <defs/>
      <text dominant-baseline="central" fill="white" style="filter: url(#shadow)" text-anchor="middle" x="50%" y="50%">2</text>
    </svg>
    <svg height="20" width="14.0" x="28.0" y="80">
      <defs/>
      <text dominant-baseline="central" fill="white" style="filter: url(#shadow)" text-anchor="middle" x="50%" y="50%">3</text>
    </svg>
    <svg height="20" width="14.0" x="42.0" y="80">
      <defs/>
      <text dominant-baseline="central" fill="white" style="filter: url(#shadow)" text-anchor="middle" x="50%" y="50%">4</text>
    </svg>
    <svg height="20" width="14.0" x="56.0" y="80">
      <defs/>
      <text dominant-baseline="central" fill="white" style="filter: url(#shadow)" text-anchor="middle" x="50%" y="50%">5</text>
    </svg>
    <svg height="100" viewBox="-35 -50 70 100" width="70" x="0" y="0">
      <defs/>
      <image height="12" style="filter: url(#shadow)" transform="translate(-0.0, -20.0)" width="12" x="-6" xlink:href="/img/pieces/pips/r.svg" y="-6"/>
      <image height="12" style="filter: url(#shadow)" transform="translate(-17.32050807568877, -10.000000000000002)" width="12" x="-6" xlink:href="/img/pieces/pips/y.svg" y="-6"/>
      <image height="12" style="filter: url(#shadow)" transform="translate(-17.320508075688775, 9.999999999999996)" width="12" x="-6" xlink:href="/img/pieces/pips/g.svg" y="-6"/>
      <image height="12" style="filter: url(#shadow)" transform="translate(-2.4492935982947065e-15, 20.0)" width="12" x="-6" xlink:href="/img/pieces/pips/b.svg" y="-6"/>
      <image height="12" style="filter: url(#shadow)" transform="translate(17.320508075688767, 10.000000000000009)" width="12" x="-6" xlink:href="/img/pieces/pips/p.svg" y="-6"/>
      <image height="12" style="filter: url(#shadow)" transform="translate(17.32050807568878, -9.999999999999986)" width="12" x="-6" xlink:href="/img/pieces/pips/m.svg" y="-6"/>
    </svg>
  </svg>
  <svg height="100" width="70" x="652" y="40">
    <defs/>
    <rect fill="gray" height="100" rx="5" ry="5" width="70" x="0" y="0"/>
    <svg height="20" width="14.0" x="0.0" y="80">
      <defs/>
      <text dominant-baseline="central" fill="white" style="filter: url(#shadow)" text-anchor="middle" x="50%" y="50%">1</text>
    </svg>
    <svg height="20" width="14.0" x="14.0" y="80">
      <defs/>
      <text dominant-baseline="central" fill="white" style="filter: url(#shadow)" text-anchor="middle" x="50%" y="50%">2</text>
    </svg>
    <svg height="20" width="14.0" x="28.0" y="80">
      <defs/>
      <text dominant-baseline="central" fill="white" style="filter: url(#shadow)" text-anchor="middle" x="50%" y="50%">3</text>
    </svg>
    <svg height="20" width="14.0" x="42.0" y="80">
      <defs/>
      <text dominant-baseline="central" fill="white" style="filter: url(#shadow)" text-anchor="middle" x="50%" y="50%">4</text>
    </svg>
    <svg height="20" width="14.0" x="56.0" y="80">
      <defs/>
      <text dominant-baseline="central" fill="white" style="filter: url(#shadow)" text-anchor="middle" x="50%" y="50%">5</text>
    </svg>
    <svg height="100" viewBox="-35 -50 70 100" width="70" x="0" y="0">
      <defs/>
      <image height="12" style="filter: url(#shadow)" transform="translate(-0.0, -20.0)" width="12" x="-6" xlink:href="/img/pieces/pips/r.svg" y="-6"/>
      <image height="12" style="filter: url(#shadow)" transform="translate(-17.32050807568877, -10.000000000000002)" width="12" x="-6" xlink:href="/img/pieces/pips/y.svg" y="-6"/>
      <image height="12" style="filter: url(#shadow)" transform="translate(-17.320508075688775, 9.999999999999996)" width="12" x="-6" xlink:href="/img/pieces/pips/g.svg" y="-6"/>
      <image height="12" style="filter: url(#shadow)" transform="translate(-2.4492935982947065e-15, 20.0)" width="12" x="-6" xlink:href="/img/pieces/pips/b.svg" y="-6"/>
      <image height="12" style="filter: url(#shadow)" transform="translate(17.320508075688767, 10.000000000000009)" width="12" x="-6" xlink:href="/img/pieces/pips/p.svg" y="-6"/>
      <image height="12" style="filter: url(#shadow)" transform="translate(17.32050807568878, -9.999999999999986)" width="12" x="-6" xlink:href="/img/pieces/pips/m.svg" y="-6"/>
    </svg>
  </svg>
  <svg height="100" width="70" x="726" y="40">
    <defs/>
    <rect fill="gray" height="100" rx="5" ry="5" width="70" x="0" y="0"/>
    <svg height="20" width="14.0" x="0.0" y="80">
      <defs/>
      <text dominant-baseline="central" fill="white" style="filter: url(#shadow)" text-anchor="middle" x="50%" y="50%">1</text>
    </svg>
    <svg height="20" width="14.0" x="14.0" y="80">
      <defs/>
      <text dominant-baseline="central" fill="white" style="filter: url(#shadow)" text-anchor="middle" x="50%" y="50%">2</text>
    </svg>
    <svg height="20" width="14.0" x="28.0" y="80">
      <defs/>
      <text dominant-baseline="central" fill="white" style="filter: url(#shadow)" text-anchor="middle" x="50%" y="50%">3</text>
    </svg>
    <svg height="20" width="14.0" x="42.0" y="80">
      <defs/>
      <text dominant-baseline="central" fill="white" style="filter: url(#shadow)" text-anchor="middle" x="50%" y="50%">4</text>
    </svg>
    <svg height="20" width="14.0" x="56.0" y="80">
      <defs/>
      <text dominant-baseline="central" fill="white" style="filter: url(#shadow)" text-anchor="middle" x="50%" y="50%">5</text>
    </svg>
    <svg height="100" viewBox="-35 -50 70 100" width="70" x="0" y="0">
      <defs/>
      <image height="12" style="filter: url(#shadow)" transform="translate(-0.0, -20.0)" width="12" x="-6" xlink:href="/img/pieces/pips/r.svg" y="-6"/>
      <image height="12" style="filter: url(#shadow)" transform="translate(-17.32050807568877, -10.000000000000002)" width="12" x="-6" xlink:href="/img/pieces/pips/y.svg" y="-6"/>
      <image height="12" style="filter: url(#shadow)" transform="translate(-17.320508075688775, 9.999999999999996)" width="12" x="-6" xlink:href="/img/pieces/pips/g.svg" y="-6"/>
      <image height="12" style="filter: url(#shadow)" transform="translate(-2.4492935982947065e-15, 20.0)" width="12" x="-6" xlink:href="/img/pieces/pips/b.svg" y="-6"/>
      <image height="12" style="filter: url(#shadow)" transform="translate(17.320508075688767, 10.000000000000009)" width="12" x="-6" xlink:href="/img/pieces/pips/p.svg" y="-6"/>
      <image height="12" style="filter: url(#shadow)" transform="translate(17.32050807568878, -9.999999999999986)" width="12" x="-6" xlink:href="/img/pieces/pips/m.svg" y="-6"/>
    </svg>
  </svg>
  <svg height="100" width="70" x="800" y="40">
    <defs/>
    <rect fill="gray" height="100" rx="5" ry="5" width="70" x="0" y="0"/>
    <svg height="20" width="14.0" x="0.0" y="80">
      <defs/>
      <text dominant-baseline="central" fill="white" style="filter: url(#shadow)" text-anchor="middle" x="50%" y="50%">1</text>
    </svg>
    <svg height="20" width="14.0" x="14.0" y="80">
      <defs/>
      <text dominant-baseline="central" fill="white" style="filter: url(#shadow)" text-anchor="middle" x="50%" y="50%">2</text>
    </svg>
    <svg height="20" width="14.0" x="28.0" y="80">
      <defs/>
      <text dominant-baseline="central" fill="white" style="filter: url(#shadow)" text-anchor="middle" x="50%" y="50%">3</text>
    </svg>
    <svg height="20" width="14.0" x="42.0" y="80">
      <defs/>
      <text dominant-baseline="central" fill="white" style="filter: url(#shadow)" text-anchor="middle" x="50%" y="50%">4</text>
    </svg>
    <svg height="20" width="14.0" x="56.0" y="80">
      <defs/>
      <text dominant-baseline="central" fill="white" style="filter: url(#shadow)" text-anchor="middle" x="50%" y="50%">5</text>
    </svg>
    <svg height="100" viewBox="-35 -50 70 100" width="70" x="0" y="0">
      <defs/>
      <image height="12" style="filter: url(#shadow)" transform="translate(-0.0, -20.0)" width="12" x="-6" xlink:href="/img/pieces/pips/r.svg" y="-6"/>
      <image height="12" style="filter: url(#shadow)" transform="translate(-17.32050807568877, -10.000000000000002)" width="12" x="-6" xlink:href="/img/pieces/pips/y.svg" y="-6"/>
      <image height="12" style="filter: url(#shadow)" transform="translate(-17.320508075688775, 9.999999999999996)" width="12" x="-6" xlink:href="/img/pieces/pips/g.svg" y="-6"/>
      <image height="12" style="filter: url(#shadow)" transform="translate(-2.4492935982947065e-15, 20.0)" width="12" x="-6" xlink:href="/img/pieces/pips/b.svg" y="-6"/>
      <image height="12" style="filter: url(#shadow)" transform="translate(17.320508075688767, 10.000000000000009)" width="12" x="-6" xlink:href="/img/pieces/pips/p.svg" y="-6"/>
      <image height="12" style="filter: url(#shadow)" transform="translate(17.32050807568878, -9.999999999999986)" width="12" x="-6" xlink:href="/img/pieces/pips/m.svg" y="-6"/>
    </svg>
  </svg>
  <svg height="100" width="70" x="874" y="40">
    <defs/>
    <rect fill="gray" height="100" rx="5" ry="5" width="70" x="0" y="0"/>
    <svg height="20" width="14.0" x="0.0" y="80">
      <defs/>
      <text dominant-baseline="central" fill="white" style="filter: url(#shadow)" text-anchor="middle" x="50%" y="50%">1</text>
    </svg>
    <svg height="20" width="14.0" x="14.0" y="80">
      <defs/>
      <text dominant-baseline="central" fill="white" style="filter: url(#shadow)" text-anchor="middle" x="50%" y="50%">2</text>
    </svg>
    <svg height="20" width="14.0" x="28.0" y="80">
      <defs/>
      <text dominant-baseline="central" fill="white" style="filter: url(#shadow)" text-anchor="middle" x="50%" y="50%">3</text>
    </svg>
    <svg height="20" width="14.0" x="42.0" y="80">
      <defs/>
      <text dominant-baseline="central" fill="white" style="filter: url(#shadow)" text-anchor="middle" x="50%" y="50%">4</text>
    </svg>
    <svg height="20" width="14.0" x="56.0" y="80">
      <defs/>
      <text dominant-baseline="central" fill="white" style="filter: url(#shadow)" text-anchor="middle" x="50%" y="50%">5</text>
    </svg>
    <svg height="100" viewBox="-35 -50 70 100" width="70" x="0" y="0">
      <defs/>
      <image height="12" style="filter: url(#shadow)" transform="translate(-0.0, -20.0)" width="12" x="-6" xlink:href="/img/pieces/pips/r.svg" y="-6"/>
      <image height="12" style="filter: url(#shadow)" transform="translate(-17.32050807568877, -10.000000000000002)" width="12" x="-6" xlink:href="/img/pieces/pips/y.svg" y="-6"/>
      <image height="12" style="filter: url(#shadow)" transform="translate(-17.320508075688775, 9.999999999999996)" width="12" x="-6" xlink:href="/img/pieces/pips/g.svg" y="-6"/>
      <image height="12" style="filter: url(#shadow)" transform="translate(-2.4492935982947065e-15, 20.0)" width="12" x="-6" xlink:href="/img/pieces/pips/b.svg" y="-6"/>
      <image height="12" style="filter: url(#shadow)" transform="translate(17.320508075688767, 10.000000000000009)" width="12" x="-6" xlink:href="/img/pieces/pips/p.svg" y="-6"/>
      <image height="12" style="filter: url(#shadow)" transform="translate(17.32050807568878, -9.999999999999986)" width="12" x="-6" xlink:href="/img/pieces/pips/m.svg" y="-6"/>
    </svg>
  </svg>
  <text dy="50" fill="#000001" x="518" y="155">Cathy</text>
  <svg height="100" width="70" x="578" y="165">
    <defs/>
    <rect fill="gray" height="100" rx="5" ry="5" width="70" x="0" y="0"/>
    <svg height="20" width="14.0" x="0.0" y="80">
      <defs/>
      <text dominant-baseline="central" fill="white" style="filter: url(#shadow)" text-anchor="middle" x="50%" y="50%">1</text>
    </svg>
    <svg height="20" width="14.0" x="14.0" y="80">
      <defs/>
      <text dominant-baseline="central" fill="white" style="filter: url(#shadow)" text-anchor="middle" x="50%" y="50%">2</text>
    </svg>
    <svg height="20" width="14.0" x="28.0" y="80">
      <defs/>
      <text dominant-baseline="central" fill="white" style="filter: url(#shadow)" text-anchor="middle" x="50%" y="50%">3</text>
    </svg>
    <svg height="20" width="14.0" x="42.0" y="80">
      <defs/>
      <text dominant-baseline="central" fill="white" style="filter: url(#shadow)" text-anchor="middle" x="50%" y="50%">4</text>
    </svg>
    <svg height="20" width="14.0" x="56.0" y="80">
      <defs/>
      <text dominant-baseline="central" fill="white" style="filter: url(#shadow)" text-anchor="middle" x="50%" y="50%">5</text>
    </svg>
    <svg height="100" viewBox="-35 -50 70 100" width="70" x="0" y="0">
      <defs/>
      <image height="12" style="filter: url(#shadow)" transform="translate(-0.0, -20.0)" width="12" x="-6" xlink:href="/img/pieces/pips/r.svg" y="-6"/>
      <image height="12" style="filter: url(#shadow)" transform="translate(-17.32050807568877, -10.000000000000002)" width="12" x="-6" xlink:href="/img/pieces/pips/y.svg" y="-6"/>
      <image height="12" style="filter: url(#shadow)" transform="translate(-17.320508075688775, 9.999999999999996)" width="12" x="-6" xlink:href="/img/pieces/pips/g.svg" y="-6"/>
      <image height="12" style="filter: url(#shadow)" transform="translate(-2.4492935982947065e-15, 20.0)" width="12" x="-6" xlink:href="/img/pieces/pips/b.svg" y="-6"/>
      <image height="12" style="filter: url(#shadow)" transform="translate(17.320508075688767, 10.000000000000009)" width="12" x="-6" xlink:href="/img/pieces/pips/p.svg" y="-6"/>
      <image height="12" style="filter: url(#shadow)" transform="translate(17.32050807568878, -9.999999999999986)" width="12" x="-6" xlink:href="/img/pieces/pips/m.svg" y="-6"/>
    </svg>
  </svg>
  <svg height="100" width="70" x="652" y="165">
    <defs/>
    <rect fill="gray" height="100" rx="5" ry="5" width="70" x="0" y="0"/>
    <svg height="20" width="14.0" x="0.0" y="80">
      <defs/>
      <text dominant-baseline="central" fill="white" style="filter: url(#shadow)" text-anchor="middle" x="50%" y="50%">1</text>
    </svg>
    <svg height="20" width="14.0" x="14.0" y="80">
      <defs/>
      <text dominant-baseline="central" fill="white" style="filter: url(#shadow)" text-anchor="middle" x="50%" y="50%">2</text>
    </svg>
    <svg height="20" width="14.0" x="28.0" y="80">
      <defs/>
      <text dominant-baseline="central" fill="white" style="filter: url(#shadow)" text-anchor="middle" x="50%" y="50%">3</text>
    </svg>
    <svg height="20" width="14.0" x="42.0" y="80">
      <defs/>
      <text dominant-baseline="central" fill="white" style="filter: url(#shadow)" text-anchor="middle" x="50%" y="50%">4</text>
    </svg>
    <svg height="20" width="14.0" x="56.0" y="80">
      <defs/>
      <text dominant-baseline="central" fill="white" style="filter: url(#shadow)" text-anchor="middle" x="50%" y="50%">5</text>
    </svg>
    <svg height="100" viewBox="-35 -50 70 100" width="70" x="0" y="0">
      <defs/>
      <image height="12" style="filter: url(#shadow)" transform="translate(-0.0, -20.0)" width="12" x="-6" xlink:href="/img/pieces/pips/r.svg" y="-6"/>
      <image height="12" style="filter: url(#shadow)" transform="translate(-17.32050807568877, -10.000000000000002)" width="12" x="-6" xlink:href="/img/pieces/pips/y.svg" y="-6"/>
      <image height="12" style="filter: url(#shadow)" transform="translate(-17.320508075688775, 9.999999999999996)" width="12" x="-6" xlink:href="/img/pieces/pips/g.svg" y="-6"/>
      <image height="12" style="filter: url(#shadow)" transform="translate(-2.4492935982947065e-15, 20.0)" width="12" x="-6" xlink:href="/img/pieces/pips/b.svg" y="-6"/>
      <image height="12" style="filter: url(#shadow)" transform="translate(17.320508075688767, 10.000000000000009)" width="12" x="-6" xlink:href="/img/pieces/pips/p.svg" y="-6"/>
      <image height="12" style="filter: url(#shadow)" transform="translate(17.32050807568878, -9.999999999999986)" width="12" x="-6" xlink:href="/img/pieces/pips/m.svg" y="-6"/>
    </svg>
  </svg>
  <svg height="40" width="64" x="655" y="155">
    <defs/>
    <rect fill="peru" height="40" stroke="white" width="64" x="0" y="0"/>
    <svg height="20" width="64" x="0" y="0">
      <defs/>
      <text dominant-baseline="central" fill="white" text-anchor="middle" x="50%" y="50%">Chop</text>
    </svg>
    <svg height="20" width="64" x="0" y="20">
      <defs/>
      <text dominant-baseline="central" fill="white" text-anchor="middle" x="50%" y="50%">slot</text>
    </svg>
  </svg>
  <rect fill="orange" height="102" rx="5" ry="5" width="72" x="725" y="154"/>
  <svg height="100" width="70" x="726" y="155">
    <defs/>
    <rect fill="gray" height="100" rx="5" ry="5" width="70" x="0" y="0"/>
    <svg height="20" width="14.0" x="0.0" y="80">
      <defs/>
      <text dominant-baseline="central" fill="white" style="filter: url(#shadow)" text-anchor="middle" x="50%" y="50%">1</text>
    </svg>
    <svg height="20" width="14.0" x="14.0" y="80">
      <defs/>
      <text dominant-baseline="central" fill="white" style="filter: url(#shadow)" text-anchor="middle" x="50%" y="50%">2</text>
    </svg>
    <svg height="20" width="14.0" x="28.0" y="80">
      <defs/>
      <text dominant-baseline="central" fill="white" style="filter: url(#shadow)" text-anchor="middle" x="50%" y="50%">3</text>
    </svg>
    <svg height="20" width="14.0" x="42.0" y="80">
      <defs/>
      <text dominant-baseline="central" fill="white" style="filter: url(#shadow)" text-anchor="middle" x="50%" y="50%">4</text>
    </svg>
    <svg height="20" width="14.0" x="56.0" y="80">
      <defs/>
      <text dominant-baseline="central" fill="white" style="filter: url(#shadow)" text-anchor="middle" x="50%" y="50%">5</text>
    </svg>
    <svg height="100" viewBox="-35 -50 70 100" width="70" x="0" y="0">
      <defs/>
      <image height="12" style="filter: url(#shadow)" transform="translate(-0.0, -20.0)" width="12" x="-6" xlink:href="/img/pieces/pips/r.svg" y="-6"/>
      <image height="12" style="filter: url(#shadow)" transform="translate(17.32050807568878, -9.999999999999986)" width="12" x="-6" xlink:href="/img/pieces/pips/m.svg" y="-6"/>
    </svg>
  </svg>
  <rect fill="orange" height="102" rx="5" ry="5" width="72" x="799" y="154"/>
  <svg height="100" width="70" x="800" y="155">
    <defs/>
    <rect fill="gray" height="100" rx="5" ry="5" width="70" x="0" y="0"/>
    <svg height="20" width="14.0" x="0.0" y="80">
      <defs/>
      <text dominant-baseline="central" fill="white" style="filter: url(#shadow)" text-anchor="middle" x="50%" y="50%">1</text>
    </svg>
    <svg height="20" width="14.0" x="14.0" y="80">
      <defs/>
      <text dominant-baseline="central" fill="white" style="filter: url(#shadow)" text-anchor="middle" x="50%" y="50%">2</text>
    </svg>
    <svg height="20" width="14.0" x="28.0" y="80">
      <defs/>
      <text dominant-baseline="central" fill="white" style="filter: url(#shadow)" text-anchor="middle" x="50%" y="50%">3</text>
    </svg>
    <svg height="20" width="14.0" x="42.0" y="80">
      <defs/>
      <text dominant-baseline="central" fill="white" style="filter: url(#shadow)" text-anchor="middle" x="50%" y="50%">4</text>
    </svg>
    <svg height="20" width="14.0" x="56.0" y="80">
      <defs/>
      <text dominant-baseline="central" fill="white" style="filter: url(#shadow)" text-anchor="middle" x="50%" y="50%">5</text>
    </svg>
    <svg height="100" viewBox="-35 -50 70 100" width="70" x="0" y="0">
      <defs/>
      <image height="12" style="filter: url(#shadow)" transform="translate(-0.0, -20.0)" width="12" x="-6" xlink:href="/img/pieces/pips/r.svg" y="-6"/>
      <image height="12" style="filter: url(#shadow)" transform="translate(17.32050807568878, -9.999999999999986)" width="12" x="-6" xlink:href="/img/pieces/pips/m.svg" y="-6"/>
    </svg>
  </svg>
  <svg height="100" width="70" x="874" y="165">
    <defs/>
    <rect fill="gray" height="100" rx="5" ry="5" width="70" x="0" y="0"/>
    <svg height="20" width="14.0" x="0.0" y="80">
      <defs/>
      <text dominant-baseline="central" fill="white" style="filter: url(#shadow)" text-anchor="middle" x="50%" y="50%">1</text>
    </svg>
    <svg height="20" width="14.0" x="14.0" y="80">
      <defs/>
      <text dominant-baseline="central" fill="white" style="filter: url(#shadow)" text-anchor="middle" x="50%" y="50%">2</text>
    </svg>
    <svg height="20" width="14.0" x="28.0" y="80">
      <defs/>
      <text dominant-baseline="central" fill="white" style="filter: url(#shadow)" text-anchor="middle" x="50%" y="50%">3</text>
    </svg>
    <svg height="20" width="14.0" x="42.0" y="80">
      <defs/>
      <text dominant-baseline="central" fill="white" style="filter: url(#shadow)" text-anchor="middle" x="50%" y="50%">4</text>
    </svg>
    <svg height="20" width="14.0" x="56.0" y="80">
      <defs/>
      <text dominant-baseline="central" fill="white" style="filter: url(#shadow)" text-anchor="middle" x="50%" y="50%">5</text>
    </svg>
    <svg height="100" viewBox="-35 -50 70 100" width="70" x="0" y="0">
      <defs/>
      <image height="12" style="filter: url(#shadow)" transform="translate(-17.32050807568877, -10.000000000000002)" width="12" x="-6" xlink:href="/img/pieces/pips/y.svg" y="-6"/>
      <image height="12" style="filter: url(#shadow)" transform="translate(-17.320508075688775, 9.999999999999996)" width="12" x="-6" xlink:href="/img/pieces/pips/g.svg" y="-6"/>
      <image height="12" style="filter: url(#shadow)" transform="translate(-2.4492935982947065e-15, 20.0)" width="12" x="-6" xlink:href="/img/pieces/pips/b.svg" y="-6"/>
      <image height="12" style="filter: url(#shadow)" transform="translate(17.320508075688767, 10.000000000000009)" width="12" x="-6" xlink:href="/img/pieces/pips/p.svg" y="-6"/>
    </svg>
  </svg>
  <svg height="20" width="64" x="877" y="260">
    <defs/>
    <rect fill="black" height="20" stroke="white" width="64" x="0" y="0"/>
    <svg height="20" width="64" x="0" y="0">
      <defs/>
      <text dominant-baseline="central" fill="white" text-anchor="middle" x="50%" y="50%">Save</text>
    </svg>
  </svg>
  <text dy="30" fill="white" stroke="white" style="filter: url(#shadow)" x="909" y="155">(CM)</text>
  <text dy="20" fill="#000001" x="558" y="295">Situation after clue</text>
  <text dy="50" fill="#000001" x="518" y="325">Alice</text>
  <svg height="100" width="70" x="578" y="335">
    <defs/>
    <rect fill="gray" height="100" rx="5" ry="5" width="70" x="0" y="0"/>
    <svg height="20" width="14.0" x="0.0" y="80">
      <defs/>
      <text dominant-baseline="central" fill="white" style="filter: url(#shadow)" text-anchor="middle" x="50%" y="50%">1</text>
    </svg>
    <svg height="20" width="14.0" x="14.0" y="80">
      <defs/>
      <text dominant-baseline="central" fill="white" style="filter: url(#shadow)" text-anchor="middle" x="50%" y="50%">2</text>
    </svg>
    <svg height="20" width="14.0" x="28.0" y="80">
      <defs/>
      <text dominant-baseline="central" fill="white" style="filter: url(#shadow)" text-anchor="middle" x="50%" y="50%">3</text>
    </svg>
    <svg height="20" width="14.0" x="42.0" y="80">
      <defs/>
      <text dominant-baseline="central" fill="white" style="filter: url(#shadow)" text-anchor="middle" x="50%" y="50%">4</text>
    </svg>
    <svg height="20" width="14.0" x="56.0" y="80">
      <defs/>
      <text dominant-baseline="central" fill="white" style="filter: url(#shadow)" text-anchor="middle" x="50%" y="50%">5</text>
    </svg>
    <svg height="100" viewBox="-35 -50 70 100" width="70" x="0" y="0">
      <defs/>
      <image height="12" style="filter: url(#shadow)" transform="translate(-0.0, -20.0)" width="12" x="-6" xlink:href="/img/pieces/pips/r.svg" y="-6"/>
      <image height="12" style="filter: url(#shadow)" transform="translate(-17.32050807568877, -10.000000000000002)" width="12" x="-6" xlink:href="/img/pieces/pips/y.svg" y="-6"/>
      <image height="12" style="filter: url(#shadow)" transform="translate(-17.320508075688775, 9.999999999999996)" width="12" x="-6" xlink:href="/img/pieces/pips/g.svg" y="-6"/>
      <image height="12" style="filter: url(#shadow)" transform="translate(-2.4492935982947065e-15, 20.0)" width="12" x="-6" xlink:href="/img/pieces/pips/b.svg" y="-6"/>
      <image height="12" style="filter: url(#shadow)" transform="translate(17.320508075688767, 10.000000000000009)" width="12" x="-6" xlink:href="/img/pieces/pips/p.svg" y="-6"/>
      <image height="12" style="filter: url(#shadow)" transform="translate(17.32050807568878, -9.999999999999986)" width="12" x="-6" xlink:href="/img/pieces/pips/m.svg" y="-6"/>
    </svg>
  </svg>
  <svg height="100" width="70" x="652" y="335">
    <defs/>
    <rect fill="gray" height="100" rx="5" ry="5" width="70" x="0" y="0"/>
    <svg height="20" width="14.0" x="0.0" y="80">
      <defs/>
      <text dominant-baseline="central" fill="white" style="filter: url(#shadow)" text-anchor="middle" x="50%" y="50%">1</text>
    </svg>
    <svg height="20" width="14.0" x="14.0" y="80">
      <defs/>
      <text dominant-baseline="central" fill="white" style="filter: url(#shadow)" text-anchor="middle" x="50%" y="50%">2</text>
    </svg>
    <svg height="20" width="14.0" x="28.0" y="80">
      <defs/>
      <text dominant-baseline="central" fill="white" style="filter: url(#shadow)" text-anchor="middle" x="50%" y="50%">3</text>
    </svg>
    <svg height="20" width="14.0" x="42.0" y="80">
      <defs/>
      <text dominant-baseline="central" fill="white" style="filter: url(#shadow)" text-anchor="middle" x="50%" y="50%">4</text>
    </svg>
    <svg height="20" width="14.0" x="56.0" y="80">
      <defs/>
      <text dominant-baseline="central" fill="white" style="filter: url(#shadow)" text-anchor="middle" x="50%" y="50%">5</text>
    </svg>
    <svg height="100" viewBox="-35 -50 70 100" width="70" x="0" y="0">
      <defs/>
      <image height="12" style="filter: url(#shadow)" transform="translate(-0.0, -20.0)" width="12" x="-6" xlink:href="/img/pieces/pips/r.svg" y="-6"/>
      <image height="12" style="filter: url(#shadow)" transform="translate(-17.32050807568877, -10.000000000000002)" width="12" x="-6" xlink:href="/img/pieces/pips/y.svg" y="-6"/>
      <image height="12" style="filter: url(#shadow)" transform="translate(-17.320508075688775, 9.999999999999996)" width="12" x="-6" xlink:href="/img/pieces/pips/g.svg" y="-6"/>
      <image height="12" style="filter: url(#shadow)" transform="translate(-2.4492935982947065e-15, 20.0)" width="12" x="-6" xlink:href="/img/pieces/pips/b.svg" y="-6"/>
      <image height="12" style="filter: url(#shadow)" transform="translate(17.320508075688767, 10.000000000000009)" width="12" x="-6" xlink:href="/img/pieces/pips/p.svg" y="-6"/>
      <image height="12" style="filter: url(#shadow)" transform="translate(17.32050807568878, -9.999999999999986)" width="12" x="-6" xlink:href="/img/pieces/pips/m.svg" y="-6"/>
    </svg>
  </svg>
  <svg height="100" width="70" x="726" y="335">
    <defs/>
    <rect fill="gray" height="100" rx="5" ry="5" width="70" x="0" y="0"/>
    <svg height="20" width="14.0" x="0.0" y="80">
      <defs/>
      <text dominant-baseline="central" fill="white" style="filter: url(#shadow)" text-anchor="middle" x="50%" y="50%">1</text>
    </svg>
    <svg height="20" width="14.0" x="14.0" y="80">
      <defs/>
      <text dominant-baseline="central" fill="white" style="filter: url(#shadow)" text-anchor="middle" x="50%" y="50%">2</text>
    </svg>
    <svg height="20" width="14.0" x="28.0" y="80">
      <defs/>
      <text dominant-baseline="central" fill="white" style="filter: url(#shadow)" text-anchor="middle" x="50%" y="50%">3</text>
    </svg>
    <svg height="20" width="14.0" x="42.0" y="80">
      <defs/>
      <text dominant-baseline="central" fill="white" style="filter: url(#shadow)" text-anchor="middle" x="50%" y="50%">4</text>
    </svg>
    <svg height="20" width="14.0" x="56.0" y="80">
      <defs/>
      <text dominant-baseline="central" fill="white" style="filter: url(#shadow)" text-anchor="middle" x="50%" y="50%">5</text>
    </svg>
    <svg height="100" viewBox="-35 -50 70 100" width="70" x="0" y="0">
      <defs/>
      <image height="12" style="filter: url(#shadow)" transform="translate(-0.0, -20.0)" width="12" x="-6" xlink:href="/img/pieces/pips/r.svg" y="-6"/>
      <image height="12" style="filter: url(#shadow)" transform="translate(-17.32050807568877, -10.000000000000002)" width="12" x="-6" xlink:href="/img/pieces/pips/y.svg" y="-6"/>
      <image height="12" style="filter: url(#shadow)" transform="translate(-17.320508075688775, 9.999999999999996)" width="12" x="-6" xlink:href="/img/pieces/pips/g.svg" y="-6"/>
      <image height="12" style="filter: url(#shadow)" transform="translate(-2.4492935982947065e-15, 20.0)" width="12" x="-6" xlink:href="/img/pieces/pips/b.svg" y="-6"/>
      <image height="12" style="filter: url(#shadow)" transform="translate(17.320508075688767, 10.000000000000009)" width="12" x="-6" xlink:href="/img/pieces/pips/p.svg" y="-6"/>
      <image height="12" style="filter: url(#shadow)" transform="translate(17.32050807568878, -9.999999999999986)" width="12" x="-6" xlink:href="/img/pieces/pips/m.svg" y="-6"/>
    </svg>
  </svg>
  <svg height="100" width="70" x="800" y="335">
    <defs/>
    <rect fill="gray" height="100" rx="5" ry="5" width="70" x="0" y="0"/>
    <svg height="20" width="14.0" x="0.0" y="80">
      <defs/>
      <text dominant-baseline="central" fill="white" style="filter: url(#shadow)" text-anchor="middle" x="50%" y="50%">1</text>
    </svg>
    <svg height="20" width="14.0" x="14.0" y="80">
      <defs/>
      <text dominant-baseline="central" fill="white" style="filter: url(#shadow)" text-anchor="middle" x="50%" y="50%">2</text>
    </svg>
    <svg height="20" width="14.0" x="28.0" y="80">
      <defs/>
      <text dominant-baseline="central" fill="white" style="filter: url(#shadow)" text-anchor="middle" x="50%" y="50%">3</text>
    </svg>
    <svg height="20" width="14.0" x="42.0" y="80">
      <defs/>
      <text dominant-baseline="central" fill="white" style="filter: url(#shadow)" text-anchor="middle" x="50%" y="50%">4</text>
    </svg>
    <svg height="20" width="14.0" x="56.0" y="80">
      <defs/>
      <text dominant-baseline="central" fill="white" style="filter: url(#shadow)" text-anchor="middle" x="50%" y="50%">5</text>
    </svg>
    <svg height="100" viewBox="-35 -50 70 100" width="70" x="0" y="0">
      <defs/>
      <image height="12" style="filter: url(#shadow)" transform="translate(-0.0, -20.0)" width="12" x="-6" xlink:href="/img/pieces/pips/r.svg" y="-6"/>
      <image height="12" style="filter: url(#shadow)" transform="translate(-17.32050807568877, -10.000000000000002)" width="12" x="-6" xlink:href="/img/pieces/pips/y.svg" y="-6"/>
      <image height="12" style="filter: url(#shadow)" transform="translate(-17.320508075688775, 9.999999999999996)" width="12" x="-6" xlink:href="/img/pieces/pips/g.svg" y="-6"/>
      <image height="12" style="filter: url(#shadow)" transform="translate(-2.4492935982947065e-15, 20.0)" width="12" x="-6" xlink:href="/img/pieces/pips/b.svg" y="-6"/>
      <image height="12" style="filter: url(#shadow)" transform="translate(17.320508075688767, 10.000000000000009)" width="12" x="-6" xlink:href="/img/pieces/pips/p.svg" y="-6"/>
      <image height="12" style="filter: url(#shadow)" transform="translate(17.32050807568878, -9.999999999999986)" width="12" x="-6" xlink:href="/img/pieces/pips/m.svg" y="-6"/>
    </svg>
  </svg>
  <svg height="100" width="70" x="874" y="335">
    <defs/>
    <rect fill="gray" height="100" rx="5" ry="5" width="70" x="0" y="0"/>
    <svg height="20" width="14.0" x="0.0" y="80">
      <defs/>
      <text dominant-baseline="central" fill="white" style="filter: url(#shadow)" text-anchor="middle" x="50%" y="50%">1</text>
    </svg>
    <svg height="20" width="14.0" x="14.0" y="80">
      <defs/>
      <text dominant-baseline="central" fill="white" style="filter: url(#shadow)" text-anchor="middle" x="50%" y="50%">2</text>
    </svg>
    <svg height="20" width="14.0" x="28.0" y="80">
      <defs/>
      <text dominant-baseline="central" fill="white" style="filter: url(#shadow)" text-anchor="middle" x="50%" y="50%">3</text>
    </svg>
    <svg height="20" width="14.0" x="42.0" y="80">
      <defs/>
      <text dominant-baseline="central" fill="white" style="filter: url(#shadow)" text-anchor="middle" x="50%" y="50%">4</text>
    </svg>
    <svg height="20" width="14.0" x="56.0" y="80">
      <defs/>
      <text dominant-baseline="central" fill="white" style="filter: url(#shadow)" text-anchor="middle" x="50%" y="50%">5</text>
    </svg>
    <svg height="100" viewBox="-35 -50 70 100" width="70" x="0" y="0">
      <defs/>
      <image height="12" style="filter: url(#shadow)" transform="translate(-0.0, -20.0)" width="12" x="-6" xlink:href="/img/pieces/pips/r.svg" y="-6"/>
      <image height="12" style="filter: url(#shadow)" transform="translate(-17.32050807568877, -10.000000000000002)" width="12" x="-6" xlink:href="/img/pieces/pips/y.svg" y="-6"/>
      <image height="12" style="filter: url(#shadow)" transform="translate(-17.320508075688775, 9.999999999999996)" width="12" x="-6" xlink:href="/img/pieces/pips/g.svg" y="-6"/>
      <image height="12" style="filter: url(#shadow)" transform="translate(-2.4492935982947065e-15, 20.0)" width="12" x="-6" xlink:href="/img/pieces/pips/b.svg" y="-6"/>
      <image height="12" style="filter: url(#shadow)" transform="translate(17.320508075688767, 10.000000000000009)" width="12" x="-6" xlink:href="/img/pieces/pips/p.svg" y="-6"/>
      <image height="12" style="filter: url(#shadow)" transform="translate(17.32050807568878, -9.999999999999986)" width="12" x="-6" xlink:href="/img/pieces/pips/m.svg" y="-6"/>
    </svg>
  </svg>
  <text dy="50" fill="#000001" x="518" y="450">Bob</text>
  <svg height="100" width="70" x="578" y="460">
    <defs/>
    <rect fill="gray" height="100" rx="5" ry="5" width="70" x="0" y="0"/>
    <svg height="20" width="14.0" x="0.0" y="80">
      <defs/>
      <text dominant-baseline="central" fill="white" style="filter: url(#shadow)" text-anchor="middle" x="50%" y="50%">1</text>
    </svg>
    <svg height="20" width="14.0" x="14.0" y="80">
      <defs/>
      <text dominant-baseline="central" fill="white" style="filter: url(#shadow)" text-anchor="middle" x="50%" y="50%">2</text>
    </svg>
    <svg height="20" width="14.0" x="28.0" y="80">
      <defs/>
      <text dominant-baseline="central" fill="white" style="filter: url(#shadow)" text-anchor="middle" x="50%" y="50%">3</text>
    </svg>
    <svg height="20" width="14.0" x="42.0" y="80">
      <defs/>
      <text dominant-baseline="central" fill="white" style="filter: url(#shadow)" text-anchor="middle" x="50%" y="50%">4</text>
    </svg>
    <svg height="20" width="14.0" x="56.0" y="80">
      <defs/>
      <text dominant-baseline="central" fill="white" style="filter: url(#shadow)" text-anchor="middle" x="50%" y="50%">5</text>
    </svg>
    <svg height="100" viewBox="-35 -50 70 100" width="70" x="0" y="0">
      <defs/>
      <image height="12" style="filter: url(#shadow)" transform="translate(-0.0, -20.0)" width="12" x="-6" xlink:href="/img/pieces/pips/r.svg" y="-6"/>
      <image height="12" style="filter: url(#shadow)" transform="translate(-17.32050807568877, -10.000000000000002)" width="12" x="-6" xlink:href="/img/pieces/pips/y.svg" y="-6"/>
      <image height="12" style="filter: url(#shadow)" transform="translate(-17.320508075688775, 9.999999999999996)" width="12" x="-6" xlink:href="/img/pieces/pips/g.svg" y="-6"/>
      <image height="12" style="filter: url(#shadow)" transform="translate(17.320508075688767, 10.000000000000009)" width="12" x="-6" xlink:href="/img/pieces/pips/p.svg" y="-6"/>
    </svg>
  </svg>
  <svg height="100" width="70" x="652" y="460">
    <defs/>
    <rect fill="gray" height="100" rx="5" ry="5" width="70" x="0" y="0"/>
    <svg height="20" width="14.0" x="0.0" y="80">
      <defs/>
      <text dominant-baseline="central" fill="white" style="filter: url(#shadow)" text-anchor="middle" x="50%" y="50%">1</text>
    </svg>
    <svg height="20" width="14.0" x="14.0" y="80">
      <defs/>
      <text dominant-baseline="central" fill="white" style="filter: url(#shadow)" text-anchor="middle" x="50%" y="50%">2</text>
    </svg>
    <svg height="20" width="14.0" x="28.0" y="80">
      <defs/>
      <text dominant-baseline="central" fill="white" style="filter: url(#shadow)" text-anchor="middle" x="50%" y="50%">3</text>
    </svg>
    <svg height="20" width="14.0" x="42.0" y="80">
      <defs/>
      <text dominant-baseline="central" fill="white" style="filter: url(#shadow)" text-anchor="middle" x="50%" y="50%">4</text>
    </svg>
    <svg height="20" width="14.0" x="56.0" y="80">
      <defs/>
      <text dominant-baseline="central" fill="white" style="filter: url(#shadow)" text-anchor="middle" x="50%" y="50%">5</text>
    </svg>
    <svg height="100" viewBox="-35 -50 70 100" width="70" x="0" y="0">
      <defs/>
      <image height="12" style="filter: url(#shadow)" transform="translate(-0.0, -20.0)" width="12" x="-6" xlink:href="/img/pieces/pips/r.svg" y="-6"/>
      <image height="12" style="filter: url(#shadow)" transform="translate(-17.32050807568877, -10.000000000000002)" width="12" x="-6" xlink:href="/img/pieces/pips/y.svg" y="-6"/>
      <image height="12" style="filter: url(#shadow)" transform="translate(-17.320508075688775, 9.999999999999996)" width="12" x="-6" xlink:href="/img/pieces/pips/g.svg" y="-6"/>
      <image height="12" style="filter: url(#shadow)" transform="translate(17.320508075688767, 10.000000000000009)" width="12" x="-6" xlink:href="/img/pieces/pips/p.svg" y="-6"/>
    </svg>
  </svg>
  <svg height="40" width="64" x="655" y="450">
    <defs/>
    <rect fill="peru" height="40" stroke="white" width="64" x="0" y="0"/>
    <svg height="20" width="64" x="0" y="0">
      <defs/>
      <text dominant-baseline="central" fill="white" text-anchor="middle" x="50%" y="50%">Chop</text>
    </svg>
    <svg height="20" width="64" x="0" y="20">
      <defs/>
      <text dominant-baseline="central" fill="white" text-anchor="middle" x="50%" y="50%">slot</text>
    </svg>
  </svg>
  <rect fill="orange" height="102" rx="5" ry="5" width="72" x="725" y="449"/>
  <svg height="100" width="70" x="726" y="450">
    <defs/>
    <image height="100" width="70" x="0" xlink:href="/img/pieces/cards/m.svg" y="0"/>
    <svg height="20" width="14.0" x="0.0" y="80">
      <defs/>
      <text dominant-baseline="central" fill="white" style="filter: url(#shadow)" text-anchor="middle" x="50%" y="50%">1</text>
    </svg>
    <svg height="20" width="14.0" x="14.0" y="80">
      <defs/>
      <text dominant-baseline="central" fill="white" style="filter: url(#shadow)" text-anchor="middle" x="50%" y="50%">2</text>
    </svg>
    <svg height="20" width="14.0" x="28.0" y="80">
      <defs/>
      <text dominant-baseline="central" fill="white" style="filter: url(#shadow)" text-anchor="middle" x="50%" y="50%">3</text>
    </svg>
    <svg height="20" width="14.0" x="42.0" y="80">
      <defs/>
      <text dominant-baseline="central" fill="white" style="filter: url(#shadow)" text-anchor="middle" x="50%" y="50%">4</text>
    </svg>
    <svg height="20" width="14.0" x="56.0" y="80">
      <defs/>
      <text dominant-baseline="central" fill="white" style="filter: url(#shadow)" text-anchor="middle" x="50%" y="50%">5</text>
    </svg>
    <svg height="100" viewBox="-35 -50 70 100" width="70" x="0" y="0">
      <defs/>
    </svg>
  </svg>
  <image height="70" width="50" x="736" xlink:href="/img/pieces/arrow.svg" y="410"/>
  <circle cx="761" cy="435" fill="blue" r="15" stroke="black" stroke-width="2"/>
  <image height="16" style="filter: url(#shadow)" width="16" x="753" xlink:href="/img/pieces/pips/b.svg" y="427"/>
  <rect fill="orange" height="102" rx="5" ry="5" width="72" x="799" y="449"/>
  <svg height="100" width="70" x="800" y="450">
    <defs/>
    <image height="100" width="70" x="0" xlink:href="/img/pieces/cards/m.svg" y="0"/>
    <svg height="20" width="14.0" x="0.0" y="80">
      <defs/>
      <text dominant-baseline="central" fill="white" style="filter: url(#shadow)" text-anchor="middle" x="50%" y="50%">1</text>
    </svg>
    <svg height="20" width="14.0" x="14.0" y="80">
      <defs/>
      <text dominant-baseline="central" fill="white" style="filter: url(#shadow)" text-anchor="middle" x="50%" y="50%">2</text>
    </svg>
    <svg height="20" width="14.0" x="28.0" y="80">
      <defs/>
      <text dominant-baseline="central" fill="white" style="filter: url(#shadow)" text-anchor="middle" x="50%" y="50%">3</text>
    </svg>
    <svg height="20" width="14.0" x="42.0" y="80">
      <defs/>
      <text dominant-baseline="central" fill="white" style="filter: url(#shadow)" text-anchor="middle" x="50%" y="50%">4</text>
    </svg>
    <svg height="20" width="14.0" x="56.0" y="80">
      <defs/>
      <text dominant-baseline="central" fill="white" style="filter: url(#shadow)" text-anchor="middle" x="50%" y="50%">5</text>
    </svg>
    <svg height="100" viewBox="-35 -50 70 100" width="70" x="0" y="0">
      <defs/>
    </svg>
  </svg>
  <image height="70" width="50" x="810" xlink:href="/img/pieces/arrow.svg" y="410"/>
  <circle cx="835" cy="435" fill="blue" r="15" stroke="black" stroke-width="2"/>
  <image height="16" style="filter: url(#shadow)" width="16" x="827" xlink:href="/img/pieces/pips/b.svg" y="427"/>
  <rect fill="orange" height="102" rx="5" ry="5" width="72" x="873" y="449"/>
  <svg height="100" width="70" x="874" y="450">
    <defs/>
    <image height="100" width="70" x="0" xlink:href="/img/pieces/cards/b.svg" y="0"/>
    <svg height="20" width="14.0" x="0.0" y="80">
      <defs/>
      <text dominant-baseline="central" fill="white" style="filter: url(#shadow)" text-anchor="middle" x="50%" y="50%">1</text>
    </svg>
    <svg height="20" width="14.0" x="14.0" y="80">
      <defs/>
      <text dominant-baseline="central" fill="white" style="filter: url(#shadow)" text-anchor="middle" x="50%" y="50%">2</text>
    </svg>
    <svg height="20" width="14.0" x="28.0" y="80">
      <defs/>
      <text dominant-baseline="central" fill="white" style="filter: url(#shadow)" text-anchor="middle" x="50%" y="50%">3</text>
    </svg>
    <svg height="20" width="14.0" x="42.0" y="80">
      <defs/>
      <text dominant-baseline="central" fill="white" style="filter: url(#shadow)" text-anchor="middle" x="50%" y="50%">4</text>
    </svg>
    <svg height="20" width="14.0" x="56.0" y="80">
      <defs/>
      <text dominant-baseline="central" fill="white" style="filter: url(#shadow)" text-anchor="middle" x="50%" y="50%">5</text>
    </svg>
    <svg height="100" viewBox="-35 -50 70 100" width="70" x="0" y="0">
      <defs/>
    </svg>
  </svg>
  <image height="70" width="50" x="884" xlink:href="/img/pieces/arrow.svg" y="410"/>
  <circle cx="909" cy="435" fill="blue" r="15" stroke="black" stroke-width="2"/>
  <image height="16" style="filter: url(#shadow)" width="16" x="901" xlink:href="/img/pieces/pips/b.svg" y="427"/>
  <svg height="20" width="64" x="877" y="555">
    <defs/>
    <rect fill="gold" height="20" stroke="black" width="64" x="0" y="0"/>
    <svg height="20" width="64" x="0" y="0">
      <defs/>
      <text dominant-baseline="central" fill="black" text-anchor="middle" x="50%" y="50%">Focus</text>
    </svg>
  </svg>
</svg>

