<?xml version="1.0" encoding="utf-8" ?>
<svg baseProfile="full" height="615" version="1.1" viewBox="0 0 1022 615" width="1022" xmlns="http://www.w3.org/2000/svg"  xmlns:xlink="http://www.w3.org/1999/xlink">
  <defs>
        <filter x="0" y="0" width="1" height="1" id="clue_giver">
            <feFlood flood-color="cyan"/>
        </filter>
        <filter id="shadow">
            <feOffset in="SourceAlpha" dx="2" dy="2" result="offsetblur"/>
            <feComponentTransfer result="shadow">
                <feFuncA type="linear" slope="0.5"/>
            </feComponentTransfer>
            <feMorphology in="SourceAlpha" operator="dilate" radius="1" result="border"/>
            <feMerge>
                <feMergeNode in="shadow"/>
                <feMergeNode in="border"/>
                <feMergeNode in="SourceGraphic"/>
            </feMerge>
        </filter>
    </defs>
  <image height="100" width="70" x="0" xlink:href="/img/pieces/cards/r2.svg" y="0"/>
  <image height="100" width="70" x="78" xlink:href="/img/pieces/cards/y2.svg" y="0"/>
  <image height="100" width="70" x="156" xlink:href="/img/pieces/cards/g2.svg" y="0"/>
  <image height="100" width="70" x="234" xlink:href="/img/pieces/cards/b2.svg" y="0"/>
  <image height="100" width="70" x="312" xlink:href="/img/pieces/cards/p2.svg" y="0"/>
  <image height="100" width="70" x="390" xlink:href="/img/pieces/cards/m2.svg" y="0"/>
  <text dy="20" fill="#000001" x="582" y="0">Situation before clue</text>
  <svg height="100" width="90" x="542" y="50">
    <defs/>
    <text dominant-baseline="central" fill="#000001" style="font-size: 1.4em;" x="0%" y="50%">Alice</text>
  </svg>
  <svg height="100" width="70" x="632" y="50">
    <defs/>
    <rect fill="gray" height="100" rx="5" ry="5" width="70" x="0" y="0"/>
  </svg>
  <svg height="100" width="70" x="710" y="50">
    <defs/>
    <rect fill="gray" height="100" rx="5" ry="5" width="70" x="0" y="0"/>
  </svg>
  <svg height="100" width="70" x="788" y="50">
    <defs/>
    <rect fill="gray" height="100" rx="5" ry="5" width="70" x="0" y="0"/>
  </svg>
  <svg height="100" width="70" x="866" y="50">
    <defs/>
    <rect fill="gray" height="100" rx="5" ry="5" width="70" x="0" y="0"/>
  </svg>
  <svg height="100" width="70" x="944" y="50">
    <defs/>
    <rect fill="gray" height="100" rx="5" ry="5" width="70" x="0" y="0"/>
  </svg>
  <svg height="100" width="90" x="542" y="175">
    <defs/>
    <text dominant-baseline="central" fill="#000001" style="font-size: 1.4em;" x="0%" y="50%">Bob</text>
  </svg>
  <svg height="100" width="70" x="632" y="175">
    <defs/>
    <rect fill="gray" height="100" rx="5" ry="5" width="70" x="0" y="0"/>
  </svg>
  <svg height="100" width="70" x="710" y="175">
    <defs/>
    <rect fill="gray" height="100" rx="5" ry="5" width="70" x="0" y="0"/>
  </svg>
  <svg height="20" width="64" x="713" y="175">
    <defs/>
    <rect fill="darkred" height="20" stroke="white" width="64" x="0" y="0"/>
    <svg height="20" width="64" x="0" y="0">
      <defs/>
      <text dominant-baseline="central" fill="white" text-anchor="middle" x="50%" y="50%">Chop</text>
    </svg>
  </svg>
  <rect fill="orange" height="106" rx="5" ry="5" width="76" x="785.0" y="172.0"/>
  <svg height="100" width="70" x="788" y="175">
    <defs/>
    <rect fill="gray" height="100" rx="5" ry="5" width="70" x="0" y="0"/>
    <image height="12" style="filter: url(#shadow)" width="12" x="29.0" xlink:href="/img/pieces/pips/r.svg" y="24.0"/>
    <image height="12" style="filter: url(#shadow)" width="12" x="46.32050807568878" xlink:href="/img/pieces/pips/m.svg" y="34.000000000000014"/>
  </svg>
  <rect fill="orange" height="106" rx="5" ry="5" width="76" x="863.0" y="172.0"/>
  <svg height="100" width="70" x="866" y="175">
    <defs/>
    <rect fill="gray" height="100" rx="5" ry="5" width="70" x="0" y="0"/>
    <image height="12" style="filter: url(#shadow)" width="12" x="29.0" xlink:href="/img/pieces/pips/r.svg" y="24.0"/>
    <image height="12" style="filter: url(#shadow)" width="12" x="46.32050807568878" xlink:href="/img/pieces/pips/m.svg" y="34.000000000000014"/>
  </svg>
  <svg height="100" width="70" x="944" y="175">
    <defs/>
    <rect fill="gray" height="100" rx="5" ry="5" width="70" x="0" y="0"/>
  </svg>
  <svg height="40" width="64" x="947" y="175">
    <defs/>
    <rect fill="black" height="40" stroke="white" width="64" x="0" y="0"/>
    <svg height="20" width="64" x="0" y="0">
      <defs/>
      <text dominant-baseline="central" fill="white" text-anchor="middle" x="50%" y="50%">Chop</text>
    </svg>
    <svg height="20" width="64" x="0" y="20">
      <defs/>
      <text dominant-baseline="central" fill="white" text-anchor="middle" x="50%" y="50%">Moved</text>
    </svg>
  </svg>
  <text dy="20" fill="#000001" x="582" y="300">Situation after clue</text>
  <svg height="100" width="90" x="542" y="350">
    <defs/>
    <text dominant-baseline="central" fill="#000001" style="font-size: 1.4em;" x="0%" y="50%">Alice</text>
    <text dominant-baseline="central" dy="30" fill="black" filter="url(#clue_giver)" x="0%" y="50%">clue giver</text>
    <text dominant-baseline="central" dy="30" fill="black" x="0%" y="50%">clue giver</text>
  </svg>
  <svg height="100" width="70" x="632" y="350">
    <defs/>
    <rect fill="gray" height="100" rx="5" ry="5" width="70" x="0" y="0"/>
  </svg>
  <svg height="100" width="70" x="710" y="350">
    <defs/>
    <rect fill="gray" height="100" rx="5" ry="5" width="70" x="0" y="0"/>
  </svg>
  <svg height="100" width="70" x="788" y="350">
    <defs/>
    <rect fill="gray" height="100" rx="5" ry="5" width="70" x="0" y="0"/>
  </svg>
  <svg height="100" width="70" x="866" y="350">
    <defs/>
    <rect fill="gray" height="100" rx="5" ry="5" width="70" x="0" y="0"/>
  </svg>
  <svg height="100" width="70" x="944" y="350">
    <defs/>
    <rect fill="gray" height="100" rx="5" ry="5" width="70" x="0" y="0"/>
  </svg>
  <svg height="100" width="90" x="542" y="475">
    <defs/>
    <text dominant-baseline="central" fill="#000001" style="font-size: 1.4em;" x="0%" y="50%">Bob</text>
  </svg>
  <svg height="100" width="70" x="632" y="475">
    <defs/>
    <rect fill="gray" height="100" rx="5" ry="5" width="70" x="0" y="0"/>
  </svg>
  <svg height="100" width="70" x="710" y="475">
    <defs/>
    <rect fill="gray" height="100" rx="5" ry="5" width="70" x="0" y="0"/>
  </svg>
  <svg height="20" width="64" x="713" y="475">
    <defs/>
    <rect fill="darkred" height="20" stroke="white" width="64" x="0" y="0"/>
    <svg height="20" width="64" x="0" y="0">
      <defs/>
      <text dominant-baseline="central" fill="white" text-anchor="middle" x="50%" y="50%">Chop</text>
    </svg>
  </svg>
  <rect fill="orange" height="106" rx="5" ry="5" width="76" x="785.0" y="472.0"/>
  <svg height="100" width="70" x="788" y="475">
    <defs/>
    <image height="100" width="70" x="0" xlink:href="/img/pieces/cards/m.svg" y="0"/>
  </svg>
  <image height="70" width="50" x="798" xlink:href="/img/pieces/arrow.svg" y="435"/>
  <circle cx="823" cy="460" fill="blue" r="15" stroke="black" stroke-width="2"/>
  <rect fill="orange" height="106" rx="5" ry="5" width="76" x="863.0" y="472.0"/>
  <svg height="100" width="70" x="866" y="475">
    <defs/>
    <image height="100" width="70" x="0" xlink:href="/img/pieces/cards/m.svg" y="0"/>
  </svg>
  <image height="70" width="50" x="876" xlink:href="/img/pieces/arrow.svg" y="435"/>
  <circle cx="901" cy="460" fill="blue" r="15" stroke="black" stroke-width="2"/>
  <rect fill="orange" height="106" rx="5" ry="5" width="76" x="941.0" y="472.0"/>
  <svg height="100" width="70" x="944" y="475">
    <defs/>
    <image height="100" width="70" x="0" xlink:href="/img/pieces/cards/b.svg" y="0"/>
  </svg>
  <image height="70" width="50" x="954" xlink:href="/img/pieces/arrow.svg" y="435"/>
  <circle cx="979" cy="460" fill="blue" r="15" stroke="black" stroke-width="2"/>
  <svg height="20" width="64" x="947" y="580">
    <defs/>
    <rect fill="gold" height="20" stroke="black" width="64" x="0" y="0"/>
    <svg height="20" width="64" x="0" y="0">
      <defs/>
      <text dominant-baseline="central" fill="black" text-anchor="middle" x="50%" y="50%">Focus</text>
    </svg>
  </svg>
</svg>

