<?xml version="1.0" encoding="utf-8" ?>
<svg baseProfile="full" height="390" version="1.1" viewBox="0 0 1022 390" width="1022" xmlns="http://www.w3.org/2000/svg"  xmlns:xlink="http://www.w3.org/1999/xlink">
  <defs>
        <filter x="0" y="0" width="1" height="1" id="cluegiver">
            <feFlood flood-color="cyan"/>
        </filter>
        <filter id="shadow">
            <feOffset in="SourceAlpha" dx="2" dy="2" result="offsetblur"/>
            <feComponentTransfer result="shadow">
                <feFuncA type="linear" slope="0.5"/>
            </feComponentTransfer>
            <feMorphology in="SourceAlpha" operator="dilate" radius="1" result="border"/>
            <feMerge>
                <feMergeNode in="shadow"/>
                <feMergeNode in="border"/>
                <feMergeNode in="SourceGraphic"/>
            </feMerge>
        </filter>
    </defs>
  <image height="100" width="70" x="0" xlink:href="/img/pieces/cards/r2.svg" y="0"/>
  <image height="100" width="70" x="78" xlink:href="/img/pieces/cards/y0.svg" y="0"/>
  <image height="100" width="70" x="156" xlink:href="/img/pieces/cards/g0.svg" y="0"/>
  <image height="100" width="70" x="234" xlink:href="/img/pieces/cards/b0.svg" y="0"/>
  <image height="100" width="70" x="312" xlink:href="/img/pieces/cards/p0.svg" y="0"/>
  <image height="100" width="70" x="390" xlink:href="/img/pieces/cards/m0.svg" y="0"/>
  <svg height="100" width="90" x="542" y="0">
    <defs/>
    <text dominant-baseline="central" fill="#000001" style="font-size: 1.4em;" x="0%" y="50%">Alice</text>
    <text dominant-baseline="central" dy="30" fill="black" filter="url(#cluegiver)" x="0%" y="50%">clue giver</text>
    <text dominant-baseline="central" dy="30" fill="black" x="0%" y="50%">clue giver</text>
  </svg>
  <svg height="100" width="70" x="632" y="0">
    <defs/>
    <rect fill="gray" height="100" rx="5" ry="5" width="70" x="0" y="0"/>
  </svg>
  <svg height="100" width="70" x="710" y="0">
    <defs/>
    <rect fill="gray" height="100" rx="5" ry="5" width="70" x="0" y="0"/>
  </svg>
  <svg height="100" width="70" x="788" y="0">
    <defs/>
    <rect fill="gray" height="100" rx="5" ry="5" width="70" x="0" y="0"/>
  </svg>
  <svg height="100" width="70" x="866" y="0">
    <defs/>
    <rect fill="gray" height="100" rx="5" ry="5" width="70" x="0" y="0"/>
  </svg>
  <svg height="100" width="70" x="944" y="0">
    <defs/>
    <rect fill="gray" height="100" rx="5" ry="5" width="70" x="0" y="0"/>
  </svg>
  <svg height="100" width="90" x="542" y="125">
    <defs/>
    <text dominant-baseline="central" fill="#000001" style="font-size: 1.4em;" x="0%" y="50%">Bob</text>
  </svg>
  <rect fill="orange" height="106" rx="5" ry="5" width="76" x="629.0" y="122.0"/>
  <svg height="100" width="70" x="632" y="125">
    <defs/>
    <rect fill="gray" height="100" rx="5" ry="5" width="70" x="0" y="0"/>
    <image height="12" style="filter: url(#shadow)" width="12" x="29.0" xlink:href="/img/pieces/pips/r.svg" y="24.0"/>
    <image height="12" style="filter: url(#shadow)" width="12" x="46.32050807568878" xlink:href="/img/pieces/pips/m.svg" y="34.000000000000014"/>
  </svg>
  <svg height="20" width="64" x="635" y="230">
    <defs/>
    <rect fill="black" height="20" stroke="white" width="64" x="0" y="0"/>
    <svg height="20" width="64" x="0" y="0">
      <defs/>
      <text dominant-baseline="central" fill="white" text-anchor="middle" x="50%" y="50%">Prompt</text>
    </svg>
  </svg>
  <rect fill="orange" height="106" rx="5" ry="5" width="76" x="707.0" y="122.0"/>
  <svg height="100" width="70" x="710" y="125">
    <defs/>
    <image height="100" width="70" x="0" xlink:href="/img/pieces/cards/r.svg" y="0"/>
  </svg>
  <svg height="100" width="70" x="788" y="125">
    <defs/>
    <rect fill="gray" height="100" rx="5" ry="5" width="70" x="0" y="0"/>
  </svg>
  <svg height="100" width="70" x="866" y="125">
    <defs/>
    <rect fill="gray" height="100" rx="5" ry="5" width="70" x="0" y="0"/>
  </svg>
  <svg height="100" width="70" x="944" y="125">
    <defs/>
    <rect fill="gray" height="100" rx="5" ry="5" width="70" x="0" y="0"/>
  </svg>
  <svg height="100" width="90" x="542" y="265">
    <defs/>
    <text dominant-baseline="central" fill="#000001" style="font-size: 1.4em;" x="0%" y="50%">Cathy</text>
  </svg>
  <svg height="100" width="70" x="632" y="265">
    <defs/>
    <rect fill="gray" height="100" rx="5" ry="5" width="70" x="0" y="0"/>
  </svg>
  <svg height="100" width="70" x="710" y="265">
    <defs/>
    <rect fill="gray" height="100" rx="5" ry="5" width="70" x="0" y="0"/>
  </svg>
  <rect fill="orange" height="106" rx="5" ry="5" width="76" x="785.0" y="262.0"/>
  <svg height="100" width="70" x="788" y="265">
    <defs/>
    <image height="100" width="70" x="0" xlink:href="/img/pieces/cards/r.svg" y="0"/>
  </svg>
  <image height="70" width="50" x="798" xlink:href="/img/pieces/arrow.svg" y="225"/>
  <circle cx="823" cy="250" fill="red" r="15" stroke="black" stroke-width="2"/>
  <svg height="100" width="70" x="788" y="265">
    <defs/>
    <text dominant-baseline="central" fill="white" stroke="white" style="font-size: 1.5em; filter: url(#shadow);" text-anchor="middle" x="50%" y="50%">(4)</text>
  </svg>
  <svg height="100" width="70" x="866" y="265">
    <defs/>
    <rect fill="gray" height="100" rx="5" ry="5" width="70" x="0" y="0"/>
  </svg>
  <svg height="100" width="70" x="944" y="265">
    <defs/>
    <rect fill="gray" height="100" rx="5" ry="5" width="70" x="0" y="0"/>
  </svg>
</svg>

