<?xml version="1.0" encoding="utf-8" ?>
<svg baseProfile="full" height="322" version="1.1" viewBox="0 0 944 322" width="944" xmlns="http://www.w3.org/2000/svg"  xmlns:xlink="http://www.w3.org/1999/xlink">
  <defs>
        <filter x="0" y="0" width="1" height="1" id="clue_giver">
            <feFlood flood-color="cyan"/>
        </filter>
        <filter id="shadow">
            <feOffset in="SourceAlpha" dx="2" dy="2" result="offsetblur"/>
            <feComponentTransfer result="shadow">
                <feFuncA type="linear" slope="0.5"/>
            </feComponentTransfer>
            <feMorphology in="SourceAlpha" operator="dilate" radius="1" result="border"/>
            <feMerge>
                <feMergeNode in="shadow"/>
                <feMergeNode in="border"/>
                <feMergeNode in="SourceGraphic"/>
            </feMerge>
        </filter>
    </defs>
  <image height="100" width="70" x="0" xlink:href="/img/pieces/cards/r1.svg" y="0"/>
  <image height="100" width="70" x="78" xlink:href="/img/pieces/cards/y1.svg" y="0"/>
  <image height="100" width="70" x="156" xlink:href="/img/pieces/cards/g0.svg" y="0"/>
  <image height="100" width="70" x="234" xlink:href="/img/pieces/cards/b1.svg" y="0"/>
  <image height="100" width="70" x="312" xlink:href="/img/pieces/cards/p0.svg" y="0"/>
  <svg height="100" width="90" x="464" y="0">
    <defs/>
    <text dominant-baseline="central" fill="#000001" style="font-size: 1.4em;" x="0%" y="50%">Alice</text>
    <text dominant-baseline="central" dy="30" fill="black" filter="url(#clue_giver)" x="0%" y="50%">clue giver</text>
    <text dominant-baseline="central" dy="30" fill="black" x="0%" y="50%">clue giver</text>
  </svg>
  <svg height="100" width="70" x="554" y="0">
    <defs/>
    <rect fill="gray" height="100" rx="5" ry="5" width="70" x="0" y="0"/>
  </svg>
  <svg height="100" width="70" x="632" y="0">
    <defs/>
    <rect fill="gray" height="100" rx="5" ry="5" width="70" x="0" y="0"/>
  </svg>
  <svg height="100" width="70" x="710" y="0">
    <defs/>
    <rect fill="gray" height="100" rx="5" ry="5" width="70" x="0" y="0"/>
  </svg>
  <svg height="100" width="70" x="788" y="0">
    <defs/>
    <rect fill="gray" height="100" rx="5" ry="5" width="70" x="0" y="0"/>
  </svg>
  <svg height="100" width="70" x="866" y="0">
    <defs/>
    <rect fill="gray" height="100" rx="5" ry="5" width="70" x="0" y="0"/>
  </svg>
  <svg height="100" width="90" x="464" y="125">
    <defs/>
    <text dominant-baseline="central" fill="#000001" style="font-size: 1.4em;" x="0%" y="50%">Bob</text>
  </svg>
  <svg height="100" width="70" x="554" y="125">
    <defs/>
    <rect fill="gray" height="100" rx="5" ry="5" width="70" x="0" y="0"/>
  </svg>
  <svg height="100" width="70" x="632" y="125">
    <defs/>
    <rect fill="gray" height="100" rx="5" ry="5" width="70" x="0" y="0"/>
  </svg>
  <svg height="100" width="70" x="710" y="125">
    <defs/>
    <rect fill="gray" height="100" rx="5" ry="5" width="70" x="0" y="0"/>
  </svg>
  <rect fill="orange" height="106" rx="5" ry="5" width="76" x="785.0" y="122.0"/>
  <svg height="100" width="70" x="788" y="125">
    <defs/>
    <image height="100" width="70" x="0" xlink:href="/img/pieces/cards/y.svg" y="0"/>
  </svg>
  <image height="70" width="50" x="798" xlink:href="/img/pieces/arrow.svg" y="85"/>
  <circle cx="823" cy="110" fill="yellow" r="15" stroke="black" stroke-width="2"/>
  <rect fill="orange" height="106" rx="5" ry="5" width="76" x="863.0" y="122.0"/>
  <svg height="100" width="70" x="866" y="125">
    <defs/>
    <image height="100" width="70" x="0" xlink:href="/img/pieces/cards/5.svg" y="0"/>
    <image height="12" style="filter: url(#shadow)" width="12" x="29.0" xlink:href="/img/pieces/pips/r.svg" y="24.0"/>
    <image height="12" style="filter: url(#shadow)" width="12" x="17.244294954150533" xlink:href="/img/pieces/pips/g.svg" y="60.180339887498945"/>
    <image height="12" style="filter: url(#shadow)" width="12" x="40.75570504584946" xlink:href="/img/pieces/pips/b.svg" y="60.18033988749895"/>
    <image height="12" style="filter: url(#shadow)" width="12" x="48.02113032590307" xlink:href="/img/pieces/pips/p.svg" y="37.819660112501055"/>
  </svg>
  <image height="200" opacity="0.2" width="200" x="91.0" xlink:href="/img/pieces/trashcan.png" y="120"/>
  <image height="100" width="70" x="156.0" xlink:href="/img/pieces/cards/y4.svg" y="170.0"/>
  <rect fill="none" height="200" rx="10" ry="10" stroke="darkgreen" stroke-width="2" width="200" x="91.0" y="120"/>
</svg>

