<?xml version="1.0" encoding="utf-8" ?>
<svg baseProfile="full" height="375" version="1.1" viewBox="0 0 944 375" width="944" xmlns="http://www.w3.org/2000/svg"  xmlns:xlink="http://www.w3.org/1999/xlink">
  <defs>
        <filter x="0" y="0" width="1" height="1" id="clue_giver">
            <feFlood flood-color="cyan"/>
        </filter>
        <filter id="shadow">
            <feOffset in="SourceAlpha" dx="2" dy="2" result="offsetblur"/>
            <feComponentTransfer result="shadow">
                <feFuncA type="linear" slope="0.5"/>
            </feComponentTransfer>
            <feMorphology in="SourceAlpha" operator="dilate" radius="1" result="border"/>
            <feMerge>
                <feMergeNode in="shadow"/>
                <feMergeNode in="border"/>
                <feMergeNode in="SourceGraphic"/>
            </feMerge>
        </filter>
    </defs>
  <image height="100" width="70" x="0" xlink:href="/img/pieces/cards/r2.svg" y="0"/>
  <image height="100" width="70" x="78" xlink:href="/img/pieces/cards/y1.svg" y="0"/>
  <image height="100" width="70" x="156" xlink:href="/img/pieces/cards/g2.svg" y="0"/>
  <image height="100" width="70" x="234" xlink:href="/img/pieces/cards/b2.svg" y="0"/>
  <image height="100" width="70" x="312" xlink:href="/img/pieces/cards/p1.svg" y="0"/>
  <svg height="100" width="90" x="464" y="0">
    <defs/>
    <text dominant-baseline="central" fill="#000001" style="font-size: 1.4em;" x="0%" y="50%">Alice</text>
    <text dominant-baseline="central" dy="30" fill="black" filter="url(#clue_giver)" x="0%" y="50%">Clue Giver</text>
    <text dominant-baseline="central" dy="30" fill="black" x="0%" y="50%">Clue Giver</text>
  </svg>
  <svg height="100" width="70" x="554" y="0">
    <defs/>
    <rect fill="gray" height="100" rx="5" ry="5" width="70" x="0" y="0"/>
  </svg>
  <svg height="100" width="70" x="632" y="0">
    <defs/>
    <rect fill="gray" height="100" rx="5" ry="5" width="70" x="0" y="0"/>
  </svg>
  <svg height="100" width="70" x="710" y="0">
    <defs/>
    <rect fill="gray" height="100" rx="5" ry="5" width="70" x="0" y="0"/>
  </svg>
  <svg height="100" width="70" x="788" y="0">
    <defs/>
    <rect fill="gray" height="100" rx="5" ry="5" width="70" x="0" y="0"/>
  </svg>
  <svg height="100" width="70" x="866" y="0">
    <defs/>
    <rect fill="gray" height="100" rx="5" ry="5" width="70" x="0" y="0"/>
  </svg>
  <svg height="100" width="90" x="464" y="125">
    <defs/>
    <text dominant-baseline="central" fill="#000001" style="font-size: 1.4em;" x="0%" y="50%">Bob</text>
  </svg>
  <svg height="100" width="70" x="554" y="125">
    <defs/>
    <rect fill="gray" height="100" rx="5" ry="5" width="70" x="0" y="0"/>
  </svg>
  <rect fill="orange" height="106" rx="5" ry="5" width="76" x="629.0" y="122.0"/>
  <svg height="100" width="70" x="632" y="125">
    <defs/>
    <image height="100" width="70" x="0" xlink:href="/img/pieces/cards/3.svg" y="0"/>
  </svg>
  <svg height="100" width="70" x="632" y="125">
    <defs/>
    <text dominant-baseline="central" fill="deepskyblue" stroke="deepskyblue" style="font-size: 1.5em; filter: url(#shadow);" text-anchor="middle" x="50%" y="50%">(B)</text>
  </svg>
  <rect fill="orange" height="106" rx="5" ry="5" width="76" x="707.0" y="122.0"/>
  <svg height="100" width="70" x="710" y="125">
    <defs/>
    <image height="100" width="70" x="0" xlink:href="/img/pieces/cards/3.svg" y="0"/>
  </svg>
  <svg height="100" width="70" x="710" y="125">
    <defs/>
    <text dominant-baseline="central" fill="lightgreen" stroke="lightgreen" style="font-size: 1.5em; filter: url(#shadow);" text-anchor="middle" x="50%" y="50%">(G)</text>
  </svg>
  <rect fill="orange" height="106" rx="5" ry="5" width="76" x="785.0" y="122.0"/>
  <svg height="100" width="70" x="788" y="125">
    <defs/>
    <image height="100" width="70" x="0" xlink:href="/img/pieces/cards/3.svg" y="0"/>
  </svg>
  <svg height="100" width="70" x="788" y="125">
    <defs/>
    <text dominant-baseline="central" fill="salmon" stroke="salmon" style="font-size: 1.5em; filter: url(#shadow);" text-anchor="middle" x="50%" y="50%">(R)</text>
  </svg>
  <svg height="100" width="70" x="866" y="125">
    <defs/>
    <rect fill="gray" height="100" rx="5" ry="5" width="70" x="0" y="0"/>
  </svg>
  <svg height="100" width="90" x="464" y="250">
    <defs/>
    <text dominant-baseline="central" fill="#000001" style="font-size: 1.4em;" x="0%" y="50%">Cathy</text>
  </svg>
  <svg height="100" width="70" x="554" y="250">
    <defs/>
    <rect fill="gray" height="100" rx="5" ry="5" width="70" x="0" y="0"/>
  </svg>
  <svg height="100" width="70" x="632" y="250">
    <defs/>
    <rect fill="gray" height="100" rx="5" ry="5" width="70" x="0" y="0"/>
  </svg>
  <rect fill="orange" height="106" rx="5" ry="5" width="76" x="707.0" y="247.0"/>
  <svg height="100" width="70" x="710" y="250">
    <defs/>
    <image height="100" width="70" x="0" xlink:href="/img/pieces/cards/r.svg" y="0"/>
  </svg>
  <image height="70" width="50" x="720" xlink:href="/img/pieces/arrow.svg" y="210"/>
  <circle cx="745" cy="235" fill="red" r="15" stroke="black" stroke-width="2"/>
  <svg height="100" width="70" x="710" y="250">
    <defs/>
    <text dominant-baseline="central" fill="white" stroke="white" style="font-size: 1.5em; filter: url(#shadow);" text-anchor="middle" x="50%" y="50%">(4)</text>
  </svg>
  <svg height="100" width="70" x="788" y="250">
    <defs/>
    <rect fill="gray" height="100" rx="5" ry="5" width="70" x="0" y="0"/>
  </svg>
  <svg height="100" width="70" x="866" y="250">
    <defs/>
    <rect fill="gray" height="100" rx="5" ry="5" width="70" x="0" y="0"/>
  </svg>
</svg>

