<?xml version="1.0" encoding="utf-8" ?>
<svg baseProfile="full" height="280" version="1.1" viewBox="0 0 944 280" width="944" xmlns="http://www.w3.org/2000/svg"  xmlns:xlink="http://www.w3.org/1999/xlink">
  <defs>
        <filter x="0" y="0" width="1" height="1" id="cluegiver">
            <feFlood flood-color="cyan"/>
        </filter>
        <filter id="shadow">
            <feOffset in="SourceAlpha" dx="2" dy="2" result="offsetblur"/>
            <feComponentTransfer result="shadow">
                <feFuncA type="linear" slope="0.5"/>
            </feComponentTransfer>
            <feMorphology in="SourceAlpha" operator="dilate" radius="1" result="border"/>
            <feMerge>
                <feMergeNode in="shadow"/>
                <feMergeNode in="border"/>
                <feMergeNode in="SourceGraphic"/>
            </feMerge>
        </filter>
    </defs>
  <image height="100" width="70" x="0" xlink:href="/img/pieces/cards/r0.svg" y="0"/>
  <image height="100" width="70" x="78" xlink:href="/img/pieces/cards/y0.svg" y="0"/>
  <image height="100" width="70" x="156" xlink:href="/img/pieces/cards/g0.svg" y="0"/>
  <image height="100" width="70" x="234" xlink:href="/img/pieces/cards/b0.svg" y="0"/>
  <image height="100" width="70" x="312" xlink:href="/img/pieces/cards/p0.svg" y="0"/>
  <svg height="100" width="90" x="464" y="0">
    <defs/>
    <text dominant-baseline="central" fill="#000001" style="font-size: 1.4em;" x="0%" y="50%">Alice</text>
  </svg>
  <image height="100" width="70" x="554" xlink:href="/img/pieces/cards/g3.svg" y="0"/>
  <rect fill="orange" height="106" rx="5" ry="5" width="76" x="629.0" y="-3.0"/>
  <image height="100" width="70" x="632" xlink:href="/img/pieces/cards/r2.svg" y="0"/>
  <image height="100" width="70" x="710" xlink:href="/img/pieces/cards/r1.svg" y="0"/>
  <image height="100" width="70" x="788" xlink:href="/img/pieces/cards/b4.svg" y="0"/>
  <svg height="20" width="64" x="791" y="105">
    <defs/>
    <rect fill="darkred" height="20" stroke="white" width="64" x="0" y="0"/>
    <svg height="20" width="64" x="0" y="0">
      <defs/>
      <text dominant-baseline="central" fill="white" text-anchor="middle" x="50%" y="50%">Chop</text>
    </svg>
  </svg>
  <rect fill="orange" height="106" rx="5" ry="5" width="76" x="863.0" y="-3.0"/>
  <svg height="100" width="70" x="866" y="0">
    <defs/>
    <image height="100" width="70" x="0" xlink:href="/img/pieces/cards/5.svg" y="0"/>
    <image height="12" style="filter: url(#shadow)" width="12" x="9.97886967409693" xlink:href="/img/pieces/pips/y.svg" y="37.819660112501055"/>
    <image height="12" style="filter: url(#shadow)" width="12" x="17.244294954150533" xlink:href="/img/pieces/pips/g.svg" y="60.180339887498945"/>
    <image height="12" style="filter: url(#shadow)" width="12" x="48.02113032590307" xlink:href="/img/pieces/pips/p.svg" y="37.819660112501055"/>
  </svg>
  <svg height="100" width="90" x="464" y="140">
    <defs/>
    <text dominant-baseline="central" fill="#000001" style="font-size: 1.4em;" x="0%" y="50%">Bob</text>
  </svg>
  <image height="100" width="70" x="554" xlink:href="/img/pieces/cards/y1.svg" y="140"/>
  <image height="100" width="70" x="632" xlink:href="/img/pieces/cards/b4.svg" y="140"/>
  <svg height="20" width="64" x="635" y="245">
    <defs/>
    <rect fill="darkred" height="20" stroke="white" width="64" x="0" y="0"/>
    <svg height="20" width="64" x="0" y="0">
      <defs/>
      <text dominant-baseline="central" fill="white" text-anchor="middle" x="50%" y="50%">Chop</text>
    </svg>
  </svg>
  <rect fill="orange" height="106" rx="5" ry="5" width="76" x="707.0" y="137.0"/>
  <svg height="100" width="70" x="710" y="140">
    <defs/>
    <image height="100" width="70" x="0" xlink:href="/img/pieces/cards/g.svg" y="0"/>
    <svg height="20.0" width="14.0" x="14.0" y="80.0">
      <defs/>
      <text dominant-baseline="central" fill="white" style="filter: url(#shadow)" text-anchor="middle" x="50%" y="50%">2</text>
    </svg>
    <svg height="20.0" width="14.0" x="28.0" y="80.0">
      <defs/>
      <text dominant-baseline="central" fill="white" style="filter: url(#shadow)" text-anchor="middle" x="50%" y="50%">3</text>
    </svg>
    <svg height="20.0" width="14.0" x="56.0" y="80.0">
      <defs/>
      <text dominant-baseline="central" fill="white" style="filter: url(#shadow)" text-anchor="middle" x="50%" y="50%">5</text>
    </svg>
  </svg>
  <rect fill="orange" height="106" rx="5" ry="5" width="76" x="785.0" y="137.0"/>
  <image height="100" width="70" x="788" xlink:href="/img/pieces/cards/g4.svg" y="140"/>
  <rect fill="orange" height="106" rx="5" ry="5" width="76" x="863.0" y="137.0"/>
  <svg height="100" width="70" x="866" y="140">
    <defs/>
    <image height="100" width="70" x="0" xlink:href="/img/pieces/cards/y.svg" y="0"/>
    <svg height="20.0" width="14.0" x="14.0" y="80.0">
      <defs/>
      <text dominant-baseline="central" fill="white" style="filter: url(#shadow)" text-anchor="middle" x="50%" y="50%">2</text>
    </svg>
    <svg height="20.0" width="14.0" x="56.0" y="80.0">
      <defs/>
      <text dominant-baseline="central" fill="white" style="filter: url(#shadow)" text-anchor="middle" x="50%" y="50%">5</text>
    </svg>
  </svg>
</svg>

