<?xml version="1.0" encoding="utf-8" ?>
<svg baseProfile="full" height="410" version="1.1" viewBox="0 0 554 410" width="554" xmlns="http://www.w3.org/2000/svg"  xmlns:xlink="http://www.w3.org/1999/xlink">
  <defs>
        <filter x="0" y="0" width="1" height="1" id="clue_giver">
            <feFlood flood-color="cyan"/>
        </filter>
        <filter id="shadow">
            <feOffset in="SourceAlpha" dx="2" dy="2" result="offsetblur"/>
            <feComponentTransfer result="shadow">
                <feFuncA type="linear" slope="0.5"/>
            </feComponentTransfer>
            <feMorphology in="SourceAlpha" operator="dilate" radius="1" result="border"/>
            <feMerge>
                <feMergeNode in="shadow"/>
                <feMergeNode in="border"/>
                <feMergeNode in="SourceGraphic"/>
            </feMerge>
        </filter>
        <linearGradient id="rainbowtext" x1="0" y1="0" x2="100%" y2="0">
            <stop offset="0" stop-color="#ff7777"></stop>
            <stop offset="0.25" stop-color="#ffff77"></stop>
            <stop offset="0.5" stop-color="#77ff77"></stop>
            <stop offset="0.75" stop-color="#77ffff"></stop>
            <stop offset="1" stop-color="#7777ff"></stop>
        </linearGradient>
    </defs>
  <image height="100" width="70" x="0" xlink:href="/img/pieces/cards/y1.svg" y="0"/>
  <image height="100" width="70" x="78" xlink:href="/img/pieces/cards/g1.svg" y="0"/>
  <svg height="100" width="90" x="230" y="0">
    <defs/>
    <text dominant-baseline="central" fill="#000001" style="font-size: 1.4em;" x="0%" y="50%">Alice</text>
  </svg>
  <rect fill="orange" height="106" rx="5" ry="5" width="76" x="317.0" y="-3.0"/>
  <svg height="100" width="70" x="320" y="0">
    <defs/>
    <image height="100" width="70" x="0" xlink:href="/img/pieces/cards/4.svg" y="0"/>
  </svg>
  <svg height="100" width="70" x="320" y="0">
    <defs/>
    <text dominant-baseline="central" fill="lightgreen" stroke="lightgreen" style="font-size: 1.5em; filter: url(#shadow);" text-anchor="middle" x="50%" y="50%">(G)</text>
  </svg>
  <rect fill="orange" height="106" rx="5" ry="5" width="76" x="395.0" y="-3.0"/>
  <svg height="100" width="70" x="398" y="0">
    <defs/>
    <image height="100" width="70" x="0" xlink:href="/img/pieces/cards/y.svg" y="0"/>
  </svg>
  <svg height="100" width="70" x="398" y="0">
    <defs/>
    <text dominant-baseline="central" fill="white" stroke="white" style="font-size: 1.5em; filter: url(#shadow);" text-anchor="middle" x="50%" y="50%">(2)</text>
  </svg>
  <svg height="100" width="70" x="476" y="0">
    <defs/>
    <rect fill="gray" height="100" rx="5" ry="5" width="70" x="0" y="0"/>
  </svg>
  <svg height="100" width="70" x="476" y="0">
    <defs/>
    <text dominant-baseline="central" fill="white" stroke="white" style="font-size: 1.5em; filter: url(#shadow);" text-anchor="middle" x="50%" y="50%">(CM)</text>
  </svg>
  <svg height="100" width="90" x="230" y="125">
    <defs/>
    <text dominant-baseline="central" fill="#000001" style="font-size: 1.4em;" x="0%" y="50%">Bob</text>
  </svg>
  <svg height="100" width="70" x="320" y="125">
    <defs/>
    <rect fill="gray" height="100" rx="5" ry="5" width="70" x="0" y="0"/>
  </svg>
  <svg height="20" width="64" x="323" y="125">
    <defs/>
    <rect fill="yellow" height="20" stroke="black" width="64" x="0" y="0"/>
    <svg height="20" width="64" x="0" y="0">
      <defs/>
      <text dominant-baseline="central" fill="black" text-anchor="middle" x="50%" y="50%">Yellow 1</text>
    </svg>
  </svg>
  <svg height="100" width="70" x="398" y="125">
    <defs/>
    <rect fill="gray" height="100" rx="5" ry="5" width="70" x="0" y="0"/>
  </svg>
  <svg height="20" width="64" x="401" y="230">
    <defs/>
    <rect fill="gold" height="20" stroke="black" width="64" x="0" y="0"/>
    <svg height="20" width="64" x="0" y="0">
      <defs/>
      <text dominant-baseline="central" fill="black" text-anchor="middle" x="50%" y="50%">Focus</text>
    </svg>
  </svg>
  <svg height="100" width="70" x="476" y="125">
    <defs/>
    <rect fill="gray" height="100" rx="5" ry="5" width="70" x="0" y="0"/>
  </svg>
  <svg height="20" width="85" x="466" y="125">
    <defs/>
    <rect fill="url(#rainbowtext)" height="20" stroke="black" width="85" x="0" y="0"/>
    <svg height="20" width="85" x="0" y="0">
      <defs/>
      <text dominant-baseline="central" fill="black" text-anchor="middle" x="50%" y="50%">Rainbow 4</text>
    </svg>
  </svg>
  <svg height="40" width="64" x="479" y="230">
    <defs/>
    <rect fill="darkred" height="40" stroke="white" width="64" x="0" y="0"/>
    <svg height="20" width="64" x="0" y="0">
      <defs/>
      <text dominant-baseline="central" fill="white" text-anchor="middle" x="50%" y="50%">Chop</text>
    </svg>
    <svg height="20" width="64" x="0" y="20">
      <defs/>
      <text dominant-baseline="central" fill="white" text-anchor="middle" x="50%" y="50%">slot</text>
    </svg>
  </svg>
  <svg height="100" width="70" x="476" y="125">
    <defs/>
    <text dominant-baseline="central" fill="deepskyblue" stroke="deepskyblue" style="font-size: 1.5em; filter: url(#shadow);" text-anchor="middle" x="50%" y="50%">(B)</text>
  </svg>
  <svg height="100" width="90" x="230" y="285">
    <defs/>
    <text dominant-baseline="central" fill="#000001" style="font-size: 1.4em;" x="0%" y="50%">Cathy</text>
  </svg>
  <svg height="100" width="70" x="320" y="285">
    <defs/>
    <rect fill="gray" height="100" rx="5" ry="5" width="70" x="0" y="0"/>
  </svg>
  <svg height="40" width="64" x="323" y="285">
    <defs/>
    <rect fill="url(#rainbowtext)" height="40" stroke="black" width="64" x="0" y="0"/>
    <svg height="20" width="64" x="0" y="0">
      <defs/>
      <text dominant-baseline="central" fill="black" text-anchor="middle" x="50%" y="50%">Foo</text>
    </svg>
    <svg height="20" width="64" x="0" y="20">
      <defs/>
      <text dominant-baseline="central" fill="black" text-anchor="middle" x="50%" y="50%">Bar</text>
    </svg>
  </svg>
  <svg height="100" width="70" x="398" y="285">
    <defs/>
    <rect fill="gray" height="100" rx="5" ry="5" width="70" x="0" y="0"/>
  </svg>
  <svg height="20" width="64" x="401" y="285">
    <defs/>
    <rect fill="blue" height="20" stroke="white" width="64" x="0" y="0"/>
    <svg height="20" width="64" x="0" y="0">
      <defs/>
      <text dominant-baseline="central" fill="white" text-anchor="middle" x="50%" y="50%">Blue 4</text>
    </svg>
  </svg>
  <svg height="100" width="70" x="476" y="285">
    <defs/>
    <rect fill="gray" height="100" rx="5" ry="5" width="70" x="0" y="0"/>
  </svg>
  <svg height="20" width="64" x="479" y="285">
    <defs/>
    <rect fill="black" height="20" stroke="white" width="64" x="0" y="0"/>
    <svg height="20" width="64" x="0" y="0">
      <defs/>
      <text dominant-baseline="central" fill="white" text-anchor="middle" x="50%" y="50%">Save</text>
    </svg>
  </svg>
</svg>

