<?xml version="1.0" encoding="utf-8" ?>
<svg baseProfile="full" height="270" version="1.1" viewBox="0 -20 476 250" width="476" xmlns="http://www.w3.org/2000/svg"  xmlns:xlink="http://www.w3.org/1999/xlink">
  <defs>
        <filter x="0" y="0" width="1" height="1" id="clue_giver">
            <feFlood flood-color="cyan"/>
        </filter>
        <filter id="shadow">
            <feOffset in="SourceAlpha" dx="2" dy="2" result="offsetblur"/>
            <feComponentTransfer result="shadow">
                <feFuncA type="linear" slope="0.5"/>
            </feComponentTransfer>
            <feMorphology in="SourceAlpha" operator="dilate" radius="1" result="border"/>
            <feMerge>
                <feMergeNode in="shadow"/>
                <feMergeNode in="border"/>
                <feMergeNode in="SourceGraphic"/>
            </feMerge>
        </filter>
    </defs>
  <image height="100" width="70" x="0" xlink:href="/img/pieces/cards/p0.svg" y="0"/>
  <image height="100" width="70" x="78" xlink:href="/img/pieces/cards/y0.svg" y="0"/>
  <svg height="100" width="90" x="230" y="0">
    <defs/>
    <text dominant-baseline="central" fill="#000001" style="font-size: 1.4em;" x="0%" y="50%">Alice</text>
    <text dominant-baseline="central" dy="30" fill="black" filter="url(#clue_giver)" x="0%" y="50%">Clue Giver</text>
    <text dominant-baseline="central" dy="30" fill="black" x="0%" y="50%">Clue Giver</text>
  </svg>
  <rect fill="orange" height="106" rx="5" ry="5" width="76" x="317.0" y="-3.0"/>
  <svg height="100" width="70" x="320" y="0">
    <defs/>
    <image height="100" width="70" x="0" xlink:href="/img/pieces/cards/p.svg" y="0"/>
  </svg>
  <image height="70" width="50" x="330" xlink:href="/img/pieces/arrow.svg" y="-40"/>
  <circle cx="355" cy="-15" fill="blueviolet" r="15" stroke="black" stroke-width="2"/>
  <svg height="100" width="70" x="398" y="0">
    <defs/>
    <rect fill="gray" height="100" rx="5" ry="5" width="70" x="0" y="0"/>
  </svg>
  <svg height="100" width="90" x="230" y="125">
    <defs/>
    <text dominant-baseline="central" fill="#000001" style="font-size: 1.4em;" x="0%" y="50%">Bob</text>
  </svg>
  <svg height="100" width="70" x="320" y="125">
    <defs/>
    <rect fill="gray" height="100" rx="5" ry="5" width="70" x="0" y="0"/>
  </svg>
  <rect fill="orange" height="106" rx="5" ry="5" width="76" x="395.0" y="122.0"/>
  <svg height="100" width="70" x="398" y="125">
    <defs/>
    <image height="100" width="70" x="0" xlink:href="/img/pieces/cards/5.svg" y="0"/>
    <image height="12" style="filter: url(#shadow)" width="12" x="29.0" xlink:href="/img/pieces/pips/p.svg" y="24.0"/>
    <image height="12" style="filter: url(#shadow)" width="12" x="28.999999999999996" xlink:href="/img/pieces/pips/y.svg" y="64.0"/>
  </svg>
  <image height="70" width="50" x="408" xlink:href="/img/pieces/arrow.svg" y="85"/>
  <circle cx="433" cy="110" fill="black" r="15" stroke="white" stroke-width="2"/>
  <svg height="16" width="16" x="425" y="102">
    <defs/>
    <text dominant-baseline="central" fill="white" style="font-size: 1.4em;" text-anchor="middle" x="50%" y="50%">5</text>
  </svg>
</svg>

