<?xml version="1.0" encoding="utf-8" ?>
<svg baseProfile="full" height="500" version="1.1" viewBox="0 0 632 500" width="632" xmlns="http://www.w3.org/2000/svg"  xmlns:xlink="http://www.w3.org/1999/xlink">
  <defs>
        <filter x="0" y="0" width="1" height="1" id="cluegiver">
            <feFlood flood-color="cyan"/>
        </filter>
        <filter id="shadow">
            <feOffset in="SourceAlpha" dx="2" dy="2" result="offsetblur"/>
            <feComponentTransfer result="shadow">
                <feFuncA type="linear" slope="0.5"/>
            </feComponentTransfer>
            <feMorphology in="SourceAlpha" operator="dilate" radius="1" result="border"/>
            <feMerge>
                <feMergeNode in="shadow"/>
                <feMergeNode in="border"/>
                <feMergeNode in="SourceGraphic"/>
            </feMerge>
        </filter>
    </defs>
  <image height="100" width="70" x="0" xlink:href="/img/pieces/cards/b1.svg" y="0"/>
  <image height="100" width="70" x="78" xlink:href="/img/pieces/cards/g1.svg" y="0"/>
  <image height="100" width="70" x="156" xlink:href="/img/pieces/cards/m1.svg" y="0"/>
  <svg height="100" width="90" x="308" y="0">
    <defs/>
    <text dominant-baseline="central" fill="#000001" style="font-size: 1.4em;" x="0%" y="50%">Alice</text>
  </svg>
  <svg height="100" width="70" x="398" y="0">
    <defs/>
    <rect fill="gray" height="100" rx="5" ry="5" width="70" x="0" y="0"/>
  </svg>
  <svg height="100" width="70" x="476" y="0">
    <defs/>
    <rect fill="gray" height="100" rx="5" ry="5" width="70" x="0" y="0"/>
    <svg height="20.0" width="14.0" x="0.0" y="80.0">
      <defs/>
      <text dominant-baseline="central" fill="white" style="filter: url(#shadow)" text-anchor="middle" x="50%" y="50%">1</text>
    </svg>
    <svg height="20.0" width="14.0" x="14.0" y="80.0">
      <defs/>
      <text dominant-baseline="central" fill="white" style="filter: url(#shadow)" text-anchor="middle" x="50%" y="50%">2</text>
    </svg>
    <svg height="20.0" width="14.0" x="56.0" y="80.0">
      <defs/>
      <text dominant-baseline="central" fill="white" style="filter: url(#shadow)" text-anchor="middle" x="50%" y="50%">5</text>
    </svg>
    <image height="12" style="filter: url(#shadow)" width="12" x="29.0" xlink:href="/img/pieces/pips/b.svg" y="24.0"/>
    <image height="12" style="filter: url(#shadow)" width="12" x="11.679491924311225" xlink:href="/img/pieces/pips/g.svg" y="54.0"/>
    <image height="12" style="filter: url(#shadow)" width="12" x="46.320508075688764" xlink:href="/img/pieces/pips/m.svg" y="54.00000000000001"/>
  </svg>
  <rect fill="orange" height="106" rx="5" ry="5" width="76" x="551.0" y="-3.0"/>
  <image height="100" width="70" x="554" xlink:href="/img/pieces/cards/g4.svg" y="0"/>
  <svg height="100" width="90" x="308" y="125">
    <defs/>
    <text dominant-baseline="central" fill="#000001" style="font-size: 1.4em;" x="0%" y="50%">Bob</text>
  </svg>
  <rect fill="orange" height="106" rx="5" ry="5" width="76" x="395.0" y="122.0"/>
  <svg height="100" width="70" x="398" y="125">
    <defs/>
    <image height="100" width="70" x="0" xlink:href="/img/pieces/cards/m.svg" y="0"/>
  </svg>
  <rect fill="orange" height="106" rx="5" ry="5" width="76" x="473.0" y="122.0"/>
  <svg height="100" width="70" x="476" y="125">
    <defs/>
    <image height="100" width="70" x="0" xlink:href="/img/pieces/cards/b.svg" y="0"/>
    <svg height="20.0" width="14.0" x="0.0" y="80.0">
      <defs/>
      <text dominant-baseline="central" fill="white" style="filter: url(#shadow)" text-anchor="middle" x="50%" y="50%">1</text>
    </svg>
    <svg height="20.0" width="14.0" x="14.0" y="80.0">
      <defs/>
      <text dominant-baseline="central" fill="white" style="filter: url(#shadow)" text-anchor="middle" x="50%" y="50%">2</text>
    </svg>
    <svg height="20.0" width="14.0" x="42.0" y="80.0">
      <defs/>
      <text dominant-baseline="central" fill="white" style="filter: url(#shadow)" text-anchor="middle" x="50%" y="50%">4</text>
    </svg>
  </svg>
  <rect fill="orange" height="106" rx="5" ry="5" width="76" x="551.0" y="122.0"/>
  <svg height="100" width="70" x="554" y="125">
    <defs/>
    <image height="100" width="70" x="0" xlink:href="/img/pieces/cards/5.svg" y="0"/>
  </svg>
  <svg height="100" width="90" x="308" y="250">
    <defs/>
    <text dominant-baseline="central" fill="#000001" style="font-size: 1.4em;" x="0%" y="50%">Cathy</text>
  </svg>
  <rect fill="orange" height="106" rx="5" ry="5" width="76" x="395.0" y="247.0"/>
  <svg height="100" width="70" x="398" y="250">
    <defs/>
    <rect fill="gray" height="100" rx="5" ry="5" width="70" x="0" y="0"/>
    <svg height="20.0" width="14.0" x="14.0" y="80.0">
      <defs/>
      <text dominant-baseline="central" fill="white" style="filter: url(#shadow)" text-anchor="middle" x="50%" y="50%">2</text>
    </svg>
    <svg height="20.0" width="14.0" x="42.0" y="80.0">
      <defs/>
      <text dominant-baseline="central" fill="white" style="filter: url(#shadow)" text-anchor="middle" x="50%" y="50%">4</text>
    </svg>
    <image height="12" style="filter: url(#shadow)" width="12" x="11.679491924311225" xlink:href="/img/pieces/pips/g.svg" y="54.0"/>
    <image height="12" style="filter: url(#shadow)" width="12" x="46.320508075688764" xlink:href="/img/pieces/pips/m.svg" y="54.00000000000001"/>
  </svg>
  <rect fill="orange" height="106" rx="5" ry="5" width="76" x="473.0" y="247.0"/>
  <svg height="100" width="70" x="476" y="250">
    <defs/>
    <image height="100" width="70" x="0" xlink:href="/img/pieces/cards/3.svg" y="0"/>
    <image height="12" style="filter: url(#shadow)" width="12" x="29.0" xlink:href="/img/pieces/pips/b.svg" y="24.0"/>
    <image height="12" style="filter: url(#shadow)" width="12" x="46.320508075688764" xlink:href="/img/pieces/pips/m.svg" y="54.00000000000001"/>
  </svg>
  <rect fill="orange" height="106" rx="5" ry="5" width="76" x="551.0" y="247.0"/>
  <image height="100" width="70" x="554" xlink:href="/img/pieces/cards/b2.svg" y="250"/>
  <svg height="100" width="90" x="308" y="375">
    <defs/>
    <text dominant-baseline="central" fill="#000001" style="font-size: 1.4em;" x="0%" y="50%">Donald</text>
  </svg>
  <rect fill="orange" height="106" rx="5" ry="5" width="76" x="395.0" y="372.0"/>
  <svg height="100" width="70" x="398" y="375">
    <defs/>
    <rect fill="gray" height="100" rx="5" ry="5" width="70" x="0" y="0"/>
  </svg>
  <image height="100" width="70" x="476" xlink:href="/img/pieces/cards/m4.svg" y="375"/>
  <svg height="100" width="70" x="554" y="375">
    <defs/>
    <rect fill="gray" height="100" rx="5" ry="5" width="70" x="0" y="0"/>
    <svg height="20.0" width="14.0" x="28.0" y="80.0">
      <defs/>
      <text dominant-baseline="central" fill="white" style="filter: url(#shadow)" text-anchor="middle" x="50%" y="50%">3</text>
    </svg>
    <image height="12" style="filter: url(#shadow)" width="12" x="11.679491924311225" xlink:href="/img/pieces/pips/g.svg" y="54.0"/>
  </svg>
</svg>

